<svg width="400" height="325"
xmlns="http://www.w3.org/2000/svg" xmlns:ev="http://www.w3.org/2001/xml-events" xmlns:xlink="http://www.w3.org/1999/xlink">
    <ellipse rx="105" ry="25" cx="145" cy="255" fill="gray" ></ellipse>
    <line x1="25" y1="165" x2="140" y2="250" stroke-width="10" stroke="black"></line>
    <line x1="20" y1="180" x2="180" y2="180" stroke-width="10" stroke="black"></line>
    <line x1="25" y1="195" x2="180" y2="90" stroke-width="10" stroke="black"></line>
    <rect x="95" y="-95" width="100" height="25" transform="rotate(45)" rx="15" fill="red" stroke="black" stroke-width="3"></rect>
    <rect x="100" y="-25" width="100" height="25" transform="rotate(25)" rx="15" fill="red" stroke="black" stroke-width="3"></rect>
    <circle r="110" cx="145" cy="150" fill="red" stroke="black" stroke-width="3"></circle>
    <circle r="30" cx="115" cy="140" fill="white" stroke="black"></circle>
    <circle r="30" cx="175" cy="140" fill="white" stroke="black"></circle>
    <circle r="10" cx="120" cy="140" fill="black"></circle>
    <circle r="10" cx="170" cy="140" fill="black"></circle>
    <ellipse cx="145" cy="225" rx="51" ry="34.5" fill="white"></ellipse>
    <rect x="205" y="0" width="50" height="50" transform="rotate(45)" fill="orange" stroke="black" stroke-width="1"></rect>
    <line x1="110" y1="180" x2="180" y2="180" stroke-width="1" stroke="black"></line>  
    <line x1="70" y1="100" x2="150" y2="120" stroke-width="20" stroke="black"></line> 
    <line x1="140" y1="120" x2="220" y2="100" stroke-width="20" stroke="black"></line> 
</svg>