<?xml version="1.0" encoding="UTF-8"?>
<!DOCTYPE svg PUBLIC "-//W3C//DTD SVG 1.1//EN" "http://www.w3.org/Graphics/SVG/1.1/DTD/svg11.dtd">
<!-- Creator: CorelDRAW 2021.5 -->
<svg xmlns="http://www.w3.org/2000/svg" xml:space="preserve" width="297mm" height="211mm" version="1.1" style="shape-rendering:geometricPrecision; text-rendering:geometricPrecision; image-rendering:optimizeQuality; fill-rule:evenodd; clip-rule:evenodd"
viewBox="0 0 29700 21100"
 xmlns:xlink="http://www.w3.org/1999/xlink"
 xmlns:xodm="http://www.corel.com/coreldraw/odm/2003">
 <defs>
  <style type="text/css">
   <![CDATA[
    .str0 {stroke:#5CA595;stroke-width:20;stroke-miterlimit:22.9256}
    .fil0 {fill:none}
   ]]>
  </style>
 </defs>
 <g id="Слой_x0020_1">
  <metadata id="CorelCorpID_0Corel-Layer"/>
  <g id="_2915445284336">
   <g>
    <circle class="fil0 str0" transform="matrix(-0.0490184 0.381192 -0.381192 -0.0490184 16696.2 6067.22)" r="3278.66"/>
    <circle class="fil0 str0" transform="matrix(-0.0490184 0.381192 -0.385481 -0.0156684 16696.2 6067.22)" r="3278.66"/>
    <circle class="fil0 str0" transform="matrix(-0.0490184 0.381192 -0.389769 0.0176815 16696.2 6067.22)" r="3278.66"/>
    <circle class="fil0 str0" transform="matrix(-0.0490184 0.381192 -0.394058 0.0510315 16696.2 6067.22)" r="3278.66"/>
    <circle class="fil0 str0" transform="matrix(-0.0490184 0.381192 -0.398346 0.0843815 16696.2 6067.22)" r="3278.66"/>
    <circle class="fil0 str0" transform="matrix(-0.0490184 0.381192 -0.402635 0.117731 16696.2 6067.22)" r="3278.66"/>
    <circle class="fil0 str0" transform="matrix(-0.0490184 0.381192 -0.406923 0.151081 16696.2 6067.22)" r="3278.66"/>
    <circle class="fil0 str0" transform="matrix(-0.0490184 0.381192 -0.411212 0.184431 16696.2 6067.22)" r="3278.66"/>
    <circle class="fil0 str0" transform="matrix(-0.0490184 0.381192 -0.415501 0.217781 16696.2 6067.22)" r="3278.66"/>
    <circle class="fil0 str0" transform="matrix(-0.0490184 0.381192 -0.419789 0.251131 16696.2 6067.22)" r="3278.66"/>
    <circle class="fil0 str0" transform="matrix(-0.0490184 0.381192 -0.424078 0.284481 16696.2 6067.22)" r="3278.66"/>
    <circle class="fil0 str0" transform="matrix(-0.0490184 0.381192 -0.428366 0.317831 16696.2 6067.22)" r="3278.66"/>
    <circle class="fil0 str0" transform="matrix(-0.0490184 0.381192 -0.432655 0.351181 16696.2 6067.22)" r="3278.66"/>
    <circle class="fil0 str0" transform="matrix(-0.0490184 0.381192 -0.436943 0.384531 16696.2 6067.22)" r="3278.66"/>
    <circle class="fil0 str0" transform="matrix(-0.0490184 0.381192 -0.441232 0.417881 16696.2 6067.22)" r="3278.66"/>
    <circle class="fil0 str0" transform="matrix(-0.0490184 0.381192 -0.44552 0.451231 16696.2 6067.22)" r="3278.66"/>
    <circle class="fil0 str0" transform="matrix(-0.0490184 0.381192 -0.449809 0.484581 16696.2 6067.22)" r="3278.66"/>
    <circle class="fil0 str0" transform="matrix(-0.0490184 0.381192 -0.454098 0.517931 16696.2 6067.22)" r="3278.66"/>
    <circle class="fil0 str0" transform="matrix(-0.0490184 0.381192 -0.458386 0.551281 16696.2 6067.22)" r="3278.66"/>
    <circle class="fil0 str0" transform="matrix(-0.0490184 0.381192 -0.462675 0.584631 16696.2 6067.22)" r="3278.66"/>
    <circle class="fil0 str0" transform="matrix(-0.0490184 0.381192 -0.466963 0.617981 16696.2 6067.22)" r="3278.66"/>
    <circle class="fil0 str0" transform="matrix(-0.0490184 0.381192 -0.471252 0.651331 16696.2 6067.22)" r="3278.66"/>
    <circle class="fil0 str0" transform="matrix(-0.0490184 0.381192 -0.47554 0.684681 16696.2 6067.22)" r="3278.66"/>
    <circle class="fil0 str0" transform="matrix(-0.0490184 0.381192 -0.479829 0.718031 16696.2 6067.22)" r="3278.66"/>
    <circle class="fil0 str0" transform="matrix(-0.0490184 0.381192 -0.484117 0.751381 16696.2 6067.22)" r="3278.66"/>
    <circle class="fil0 str0" transform="matrix(-0.0490184 0.381192 -0.488406 0.784731 16696.2 6067.22)" r="3278.66"/>
    <circle class="fil0 str0" transform="matrix(-0.0490184 0.381192 -0.492695 0.818081 16696.2 6067.22)" r="3278.66"/>
    <circle class="fil0 str0" transform="matrix(-0.0490184 0.381192 -0.496983 0.851431 16696.2 6067.22)" r="3278.66"/>
    <circle class="fil0 str0" transform="matrix(-0.0490184 0.381192 -0.501272 0.884781 16696.2 6067.22)" r="3278.66"/>
    <circle class="fil0 str0" transform="matrix(-0.0490184 0.381192 -0.50556 0.918131 16696.2 6067.22)" r="3278.66"/>
    <circle class="fil0 str0" transform="matrix(-0.0490184 0.381192 -0.509849 0.951481 16696.2 6067.22)" r="3278.66"/>
    <circle class="fil0 str0" transform="matrix(-0.0490184 0.381192 -0.514137 0.984831 16696.2 6067.22)" r="3278.66"/>
    <circle class="fil0 str0" transform="matrix(-0.0490184 0.381192 -0.518426 1.01818 16696.2 6067.22)" r="3278.66"/>
    <circle class="fil0 str0" transform="matrix(-0.0490184 0.381192 -0.522714 1.05153 16696.2 6067.22)" r="3278.66"/>
    <circle class="fil0 str0" transform="matrix(-0.0490184 0.381192 -0.527003 1.08488 16696.2 6067.22)" r="3278.66"/>
    <circle class="fil0 str0" transform="matrix(-0.0490184 0.381192 -0.531292 1.11823 16696.2 6067.22)" r="3278.66"/>
    <circle class="fil0 str0" transform="matrix(-0.0490184 0.381192 -0.53558 1.15158 16696.2 6067.22)" r="3278.66"/>
    <circle class="fil0 str0" transform="matrix(-0.0490184 0.381192 -0.539869 1.18493 16696.2 6067.22)" r="3278.66"/>
    <circle class="fil0 str0" transform="matrix(-0.0490184 0.381192 -0.544157 1.21828 16696.2 6067.22)" r="3278.66"/>
    <circle class="fil0 str0" transform="matrix(-0.0490184 0.381192 -0.548446 1.25163 16696.2 6067.22)" r="3278.66"/>
    <circle class="fil0 str0" transform="matrix(-0.0490184 0.381192 -0.552734 1.28498 16696.2 6067.22)" r="3278.66"/>
   </g>
   <g>
    <circle class="fil0 str0" transform="matrix(0.0843131 0.374969 -0.374969 0.0843131 15049 5706.41)" r="3278.66"/>
    <circle class="fil0 str0" transform="matrix(0.0843131 0.374969 -0.367592 0.117119 15049 5706.41)" r="3278.66"/>
    <circle class="fil0 str0" transform="matrix(0.0843131 0.374969 -0.360216 0.149924 15049 5706.41)" r="3278.66"/>
    <circle class="fil0 str0" transform="matrix(0.0843131 0.374969 -0.352839 0.18273 15049 5706.41)" r="3278.66"/>
    <circle class="fil0 str0" transform="matrix(0.0843131 0.374969 -0.345463 0.215535 15049 5706.41)" r="3278.66"/>
    <circle class="fil0 str0" transform="matrix(0.0843131 0.374969 -0.338086 0.248341 15049 5706.41)" r="3278.66"/>
    <circle class="fil0 str0" transform="matrix(0.0843131 0.374969 -0.33071 0.281146 15049 5706.41)" r="3278.66"/>
    <circle class="fil0 str0" transform="matrix(0.0843131 0.374969 -0.323334 0.313952 15049 5706.41)" r="3278.66"/>
    <circle class="fil0 str0" transform="matrix(0.0843131 0.374969 -0.315957 0.346757 15049 5706.41)" r="3278.66"/>
    <circle class="fil0 str0" transform="matrix(0.0843131 0.374969 -0.308581 0.379563 15049 5706.41)" r="3278.66"/>
    <circle class="fil0 str0" transform="matrix(0.0843131 0.374969 -0.301204 0.412368 15049 5706.41)" r="3278.66"/>
    <circle class="fil0 str0" transform="matrix(0.0843131 0.374969 -0.293828 0.445174 15049 5706.41)" r="3278.66"/>
    <circle class="fil0 str0" transform="matrix(0.0843131 0.374969 -0.286451 0.477979 15049 5706.41)" r="3278.66"/>
    <circle class="fil0 str0" transform="matrix(0.0843131 0.374969 -0.279075 0.510785 15049 5706.41)" r="3278.66"/>
    <circle class="fil0 str0" transform="matrix(0.0843131 0.374969 -0.271698 0.54359 15049 5706.41)" r="3278.66"/>
    <circle class="fil0 str0" transform="matrix(0.0843131 0.374969 -0.264322 0.576396 15049 5706.41)" r="3278.66"/>
    <circle class="fil0 str0" transform="matrix(0.0843131 0.374969 -0.256946 0.609201 15049 5706.41)" r="3278.66"/>
    <circle class="fil0 str0" transform="matrix(0.0843131 0.374969 -0.249569 0.642007 15049 5706.41)" r="3278.66"/>
    <circle class="fil0 str0" transform="matrix(0.0843131 0.374969 -0.242193 0.674812 15049 5706.41)" r="3278.66"/>
    <circle class="fil0 str0" transform="matrix(0.0843131 0.374969 -0.234816 0.707618 15049 5706.41)" r="3278.66"/>
    <circle class="fil0 str0" transform="matrix(0.0843131 0.374969 -0.22744 0.740423 15049 5706.41)" r="3278.66"/>
    <circle class="fil0 str0" transform="matrix(0.0843131 0.374969 -0.220063 0.773229 15049 5706.41)" r="3278.66"/>
    <circle class="fil0 str0" transform="matrix(0.0843131 0.374969 -0.212687 0.806034 15049 5706.41)" r="3278.66"/>
    <circle class="fil0 str0" transform="matrix(0.0843131 0.374969 -0.205311 0.83884 15049 5706.41)" r="3278.66"/>
    <circle class="fil0 str0" transform="matrix(0.0843131 0.374969 -0.197934 0.871645 15049 5706.41)" r="3278.66"/>
    <circle class="fil0 str0" transform="matrix(0.0843131 0.374969 -0.190558 0.904451 15049 5706.41)" r="3278.66"/>
    <circle class="fil0 str0" transform="matrix(0.0843131 0.374969 -0.183181 0.937256 15049 5706.41)" r="3278.66"/>
    <circle class="fil0 str0" transform="matrix(0.0843131 0.374969 -0.175805 0.970062 15049 5706.41)" r="3278.66"/>
    <circle class="fil0 str0" transform="matrix(0.0843131 0.374969 -0.168428 1.00287 15049 5706.41)" r="3278.66"/>
    <circle class="fil0 str0" transform="matrix(0.0843131 0.374969 -0.161052 1.03567 15049 5706.41)" r="3278.66"/>
    <circle class="fil0 str0" transform="matrix(0.0843131 0.374969 -0.153675 1.06848 15049 5706.41)" r="3278.66"/>
    <circle class="fil0 str0" transform="matrix(0.0843131 0.374969 -0.146299 1.10128 15049 5706.41)" r="3278.66"/>
    <circle class="fil0 str0" transform="matrix(0.0843131 0.374969 -0.138923 1.13409 15049 5706.41)" r="3278.66"/>
    <circle class="fil0 str0" transform="matrix(0.0843131 0.374969 -0.131546 1.16689 15049 5706.41)" r="3278.66"/>
    <circle class="fil0 str0" transform="matrix(0.0843131 0.374969 -0.12417 1.1997 15049 5706.41)" r="3278.66"/>
    <circle class="fil0 str0" transform="matrix(0.0843131 0.374969 -0.116793 1.23251 15049 5706.41)" r="3278.66"/>
    <circle class="fil0 str0" transform="matrix(0.0843131 0.374969 -0.109417 1.26531 15049 5706.41)" r="3278.66"/>
    <circle class="fil0 str0" transform="matrix(0.0843131 0.374969 -0.10204 1.29812 15049 5706.41)" r="3278.66"/>
    <circle class="fil0 str0" transform="matrix(0.0843131 0.374969 -0.0946639 1.33092 15049 5706.41)" r="3278.66"/>
    <circle class="fil0 str0" transform="matrix(0.0843131 0.374969 -0.0872875 1.36373 15049 5706.41)" r="3278.66"/>
    <circle class="fil0 str0" transform="matrix(0.0843131 0.374969 -0.079911 1.39653 15049 5706.41)" r="3278.66"/>
   </g>
   <g>
    <circle class="fil0 str0" transform="matrix(0.207475 0.323518 -0.323518 0.207475 13377.6 5930.76)" r="3278.66"/>
    <circle class="fil0 str0" transform="matrix(0.207475 0.323518 -0.305367 0.235779 13377.6 5930.76)" r="3278.66"/>
    <circle class="fil0 str0" transform="matrix(0.207475 0.323518 -0.287215 0.264084 13377.6 5930.76)" r="3278.66"/>
    <circle class="fil0 str0" transform="matrix(0.207475 0.323518 -0.269063 0.292388 13377.6 5930.76)" r="3278.66"/>
    <circle class="fil0 str0" transform="matrix(0.207475 0.323518 -0.250912 0.320692 13377.6 5930.76)" r="3278.66"/>
    <circle class="fil0 str0" transform="matrix(0.207475 0.323518 -0.23276 0.348996 13377.6 5930.76)" r="3278.66"/>
    <circle class="fil0 str0" transform="matrix(0.207475 0.323518 -0.214608 0.3773 13377.6 5930.76)" r="3278.66"/>
    <circle class="fil0 str0" transform="matrix(0.207475 0.323518 -0.196456 0.405605 13377.6 5930.76)" r="3278.66"/>
    <circle class="fil0 str0" transform="matrix(0.207475 0.323518 -0.178305 0.433909 13377.6 5930.76)" r="3278.66"/>
    <circle class="fil0 str0" transform="matrix(0.207475 0.323518 -0.160153 0.462213 13377.6 5930.76)" r="3278.66"/>
    <circle class="fil0 str0" transform="matrix(0.207475 0.323518 -0.142001 0.490517 13377.6 5930.76)" r="3278.66"/>
    <circle class="fil0 str0" transform="matrix(0.207475 0.323518 -0.123849 0.518821 13377.6 5930.76)" r="3278.66"/>
    <circle class="fil0 str0" transform="matrix(0.207475 0.323518 -0.105698 0.547126 13377.6 5930.76)" r="3278.66"/>
    <circle class="fil0 str0" transform="matrix(0.207475 0.323518 -0.087546 0.57543 13377.6 5930.76)" r="3278.66"/>
    <circle class="fil0 str0" transform="matrix(0.207475 0.323518 -0.0693943 0.603734 13377.6 5930.76)" r="3278.66"/>
    <circle class="fil0 str0" transform="matrix(0.207475 0.323518 -0.0512425 0.632038 13377.6 5930.76)" r="3278.66"/>
    <circle class="fil0 str0" transform="matrix(0.207475 0.323518 -0.0330908 0.660342 13377.6 5930.76)" r="3278.66"/>
    <circle class="fil0 str0" transform="matrix(0.207475 0.323518 -0.0149391 0.688647 13377.6 5930.76)" r="3278.66"/>
    <circle class="fil0 str0" transform="matrix(0.207475 0.323518 0.00321266 0.716951 13377.6 5930.76)" r="3278.66"/>
    <circle class="fil0 str0" transform="matrix(0.207475 0.323518 0.0213644 0.745255 13377.6 5930.76)" r="3278.66"/>
    <circle class="fil0 str0" transform="matrix(0.207475 0.323518 0.0395161 0.773559 13377.6 5930.76)" r="3278.66"/>
    <circle class="fil0 str0" transform="matrix(0.207475 0.323518 0.0576679 0.801863 13377.6 5930.76)" r="3278.66"/>
    <circle class="fil0 str0" transform="matrix(0.207475 0.323518 0.0758196 0.830168 13377.6 5930.76)" r="3278.66"/>
    <circle class="fil0 str0" transform="matrix(0.207475 0.323518 0.0939713 0.858472 13377.6 5930.76)" r="3278.66"/>
    <circle class="fil0 str0" transform="matrix(0.207475 0.323518 0.112123 0.886776 13377.6 5930.76)" r="3278.66"/>
    <circle class="fil0 str0" transform="matrix(0.207475 0.323518 0.130275 0.91508 13377.6 5930.76)" r="3278.66"/>
    <circle class="fil0 str0" transform="matrix(0.207475 0.323518 0.148427 0.943384 13377.6 5930.76)" r="3278.66"/>
    <circle class="fil0 str0" transform="matrix(0.207475 0.323518 0.166578 0.971689 13377.6 5930.76)" r="3278.66"/>
    <circle class="fil0 str0" transform="matrix(0.207475 0.323518 0.18473 0.999993 13377.6 5930.76)" r="3278.66"/>
    <circle class="fil0 str0" transform="matrix(0.207475 0.323518 0.202882 1.0283 13377.6 5930.76)" r="3278.66"/>
    <circle class="fil0 str0" transform="matrix(0.207475 0.323518 0.221033 1.0566 13377.6 5930.76)" r="3278.66"/>
    <circle class="fil0 str0" transform="matrix(0.207475 0.323518 0.239185 1.08491 13377.6 5930.76)" r="3278.66"/>
    <circle class="fil0 str0" transform="matrix(0.207475 0.323518 0.257337 1.11321 13377.6 5930.76)" r="3278.66"/>
    <circle class="fil0 str0" transform="matrix(0.207475 0.323518 0.275489 1.14151 13377.6 5930.76)" r="3278.66"/>
    <circle class="fil0 str0" transform="matrix(0.207475 0.323518 0.29364 1.16982 13377.6 5930.76)" r="3278.66"/>
    <circle class="fil0 str0" transform="matrix(0.207475 0.323518 0.311792 1.19812 13377.6 5930.76)" r="3278.66"/>
    <circle class="fil0 str0" transform="matrix(0.207475 0.323518 0.329944 1.22643 13377.6 5930.76)" r="3278.66"/>
    <circle class="fil0 str0" transform="matrix(0.207475 0.323518 0.348096 1.25473 13377.6 5930.76)" r="3278.66"/>
    <circle class="fil0 str0" transform="matrix(0.207475 0.323518 0.366247 1.28303 13377.6 5930.76)" r="3278.66"/>
    <circle class="fil0 str0" transform="matrix(0.207475 0.323518 0.384399 1.31134 13377.6 5930.76)" r="3278.66"/>
    <circle class="fil0 str0" transform="matrix(0.207475 0.323518 0.402551 1.33964 13377.6 5930.76)" r="3278.66"/>
   </g>
   <g>
    <circle class="fil0 str0" transform="matrix(0.305613 0.233047 -0.233047 0.305613 11883.8 6713.22)" r="3278.66"/>
    <circle class="fil0 str0" transform="matrix(0.305613 0.233047 -0.20631 0.326002 11883.8 6713.22)" r="3278.66"/>
    <circle class="fil0 str0" transform="matrix(0.305613 0.233047 -0.179572 0.346391 11883.8 6713.22)" r="3278.66"/>
    <circle class="fil0 str0" transform="matrix(0.305613 0.233047 -0.152834 0.36678 11883.8 6713.22)" r="3278.66"/>
    <circle class="fil0 str0" transform="matrix(0.305613 0.233047 -0.126097 0.387169 11883.8 6713.22)" r="3278.66"/>
    <circle class="fil0 str0" transform="matrix(0.305613 0.233047 -0.099359 0.407558 11883.8 6713.22)" r="3278.66"/>
    <circle class="fil0 str0" transform="matrix(0.305613 0.233047 -0.0726213 0.427947 11883.8 6713.22)" r="3278.66"/>
    <circle class="fil0 str0" transform="matrix(0.305613 0.233047 -0.0458837 0.448336 11883.8 6713.22)" r="3278.66"/>
    <circle class="fil0 str0" transform="matrix(0.305613 0.233047 -0.019146 0.468725 11883.8 6713.22)" r="3278.66"/>
    <circle class="fil0 str0" transform="matrix(0.305613 0.233047 0.00759166 0.489114 11883.8 6713.22)" r="3278.66"/>
    <circle class="fil0 str0" transform="matrix(0.305613 0.233047 0.0343293 0.509503 11883.8 6713.22)" r="3278.66"/>
    <circle class="fil0 str0" transform="matrix(0.305613 0.233047 0.061067 0.529892 11883.8 6713.22)" r="3278.66"/>
    <circle class="fil0 str0" transform="matrix(0.305613 0.233047 0.0878046 0.550281 11883.8 6713.22)" r="3278.66"/>
    <circle class="fil0 str0" transform="matrix(0.305613 0.233047 0.114542 0.57067 11883.8 6713.22)" r="3278.66"/>
    <circle class="fil0 str0" transform="matrix(0.305613 0.233047 0.14128 0.591059 11883.8 6713.22)" r="3278.66"/>
    <circle class="fil0 str0" transform="matrix(0.305613 0.233047 0.168018 0.611448 11883.8 6713.22)" r="3278.66"/>
    <circle class="fil0 str0" transform="matrix(0.305613 0.233047 0.194755 0.631837 11883.8 6713.22)" r="3278.66"/>
    <circle class="fil0 str0" transform="matrix(0.305613 0.233047 0.221493 0.652226 11883.8 6713.22)" r="3278.66"/>
    <circle class="fil0 str0" transform="matrix(0.305613 0.233047 0.248231 0.672615 11883.8 6713.22)" r="3278.66"/>
    <circle class="fil0 str0" transform="matrix(0.305613 0.233047 0.274968 0.693004 11883.8 6713.22)" r="3278.66"/>
    <circle class="fil0 str0" transform="matrix(0.305613 0.233047 0.301706 0.713393 11883.8 6713.22)" r="3278.66"/>
    <circle class="fil0 str0" transform="matrix(0.305613 0.233047 0.328444 0.733782 11883.8 6713.22)" r="3278.66"/>
    <circle class="fil0 str0" transform="matrix(0.305613 0.233047 0.355181 0.754171 11883.8 6713.22)" r="3278.66"/>
    <circle class="fil0 str0" transform="matrix(0.305613 0.233047 0.381919 0.77456 11883.8 6713.22)" r="3278.66"/>
    <circle class="fil0 str0" transform="matrix(0.305613 0.233047 0.408656 0.794949 11883.8 6713.22)" r="3278.66"/>
    <circle class="fil0 str0" transform="matrix(0.305613 0.233047 0.435394 0.815338 11883.8 6713.22)" r="3278.66"/>
    <circle class="fil0 str0" transform="matrix(0.305613 0.233047 0.462132 0.835727 11883.8 6713.22)" r="3278.66"/>
    <circle class="fil0 str0" transform="matrix(0.305613 0.233047 0.488869 0.856116 11883.8 6713.22)" r="3278.66"/>
    <circle class="fil0 str0" transform="matrix(0.305613 0.233047 0.515607 0.876505 11883.8 6713.22)" r="3278.66"/>
    <circle class="fil0 str0" transform="matrix(0.305613 0.233047 0.542345 0.896894 11883.8 6713.22)" r="3278.66"/>
    <circle class="fil0 str0" transform="matrix(0.305613 0.233047 0.569082 0.917283 11883.8 6713.22)" r="3278.66"/>
    <circle class="fil0 str0" transform="matrix(0.305613 0.233047 0.59582 0.937672 11883.8 6713.22)" r="3278.66"/>
    <circle class="fil0 str0" transform="matrix(0.305613 0.233047 0.622558 0.95806 11883.8 6713.22)" r="3278.66"/>
    <circle class="fil0 str0" transform="matrix(0.305613 0.233047 0.649295 0.978449 11883.8 6713.22)" r="3278.66"/>
    <circle class="fil0 str0" transform="matrix(0.305613 0.233047 0.676033 0.998838 11883.8 6713.22)" r="3278.66"/>
    <circle class="fil0 str0" transform="matrix(0.305613 0.233047 0.702771 1.01923 11883.8 6713.22)" r="3278.66"/>
    <circle class="fil0 str0" transform="matrix(0.305613 0.233047 0.729508 1.03962 11883.8 6713.22)" r="3278.66"/>
    <circle class="fil0 str0" transform="matrix(0.305613 0.233047 0.756246 1.06001 11883.8 6713.22)" r="3278.66"/>
    <circle class="fil0 str0" transform="matrix(0.305613 0.233047 0.782984 1.08039 11883.8 6713.22)" r="3278.66"/>
    <circle class="fil0 str0" transform="matrix(0.305613 0.233047 0.809721 1.10078 11883.8 6713.22)" r="3278.66"/>
    <circle class="fil0 str0" transform="matrix(0.305613 0.233047 0.836459 1.12117 11883.8 6713.22)" r="3278.66"/>
   </g>
   <g>
    <circle class="fil0 str0" transform="matrix(0.366889 0.114467 -0.114467 0.366889 10747.7 7959.41)" r="3278.66"/>
    <circle class="fil0 str0" transform="matrix(0.366889 0.114467 -0.0823684 0.376903 10747.7 7959.41)" r="3278.66"/>
    <circle class="fil0 str0" transform="matrix(0.366889 0.114467 -0.0502698 0.386918 10747.7 7959.41)" r="3278.66"/>
    <circle class="fil0 str0" transform="matrix(0.366889 0.114467 -0.0181712 0.396933 10747.7 7959.41)" r="3278.66"/>
    <circle class="fil0 str0" transform="matrix(0.366889 0.114467 0.0139275 0.406947 10747.7 7959.41)" r="3278.66"/>
    <circle class="fil0 str0" transform="matrix(0.366889 0.114467 0.0460261 0.416962 10747.7 7959.41)" r="3278.66"/>
    <circle class="fil0 str0" transform="matrix(0.366889 0.114467 0.0781247 0.426976 10747.7 7959.41)" r="3278.66"/>
    <circle class="fil0 str0" transform="matrix(0.366889 0.114467 0.110223 0.436991 10747.7 7959.41)" r="3278.66"/>
    <circle class="fil0 str0" transform="matrix(0.366889 0.114467 0.142322 0.447005 10747.7 7959.41)" r="3278.66"/>
    <circle class="fil0 str0" transform="matrix(0.366889 0.114467 0.174421 0.45702 10747.7 7959.41)" r="3278.66"/>
    <circle class="fil0 str0" transform="matrix(0.366889 0.114467 0.206519 0.467035 10747.7 7959.41)" r="3278.66"/>
    <circle class="fil0 str0" transform="matrix(0.366889 0.114467 0.238618 0.477049 10747.7 7959.41)" r="3278.66"/>
    <circle class="fil0 str0" transform="matrix(0.366889 0.114467 0.270716 0.487064 10747.7 7959.41)" r="3278.66"/>
    <circle class="fil0 str0" transform="matrix(0.366889 0.114467 0.302815 0.497078 10747.7 7959.41)" r="3278.66"/>
    <circle class="fil0 str0" transform="matrix(0.366889 0.114467 0.334914 0.507093 10747.7 7959.41)" r="3278.66"/>
    <circle class="fil0 str0" transform="matrix(0.366889 0.114467 0.367012 0.517107 10747.7 7959.41)" r="3278.66"/>
    <circle class="fil0 str0" transform="matrix(0.366889 0.114467 0.399111 0.527122 10747.7 7959.41)" r="3278.66"/>
    <circle class="fil0 str0" transform="matrix(0.366889 0.114467 0.43121 0.537137 10747.7 7959.41)" r="3278.66"/>
    <circle class="fil0 str0" transform="matrix(0.366889 0.114467 0.463308 0.547151 10747.7 7959.41)" r="3278.66"/>
    <circle class="fil0 str0" transform="matrix(0.366889 0.114467 0.495407 0.557166 10747.7 7959.41)" r="3278.66"/>
    <circle class="fil0 str0" transform="matrix(0.366889 0.114467 0.527505 0.56718 10747.7 7959.41)" r="3278.66"/>
    <circle class="fil0 str0" transform="matrix(0.366889 0.114467 0.559604 0.577195 10747.7 7959.41)" r="3278.66"/>
    <circle class="fil0 str0" transform="matrix(0.366889 0.114467 0.591703 0.587209 10747.7 7959.41)" r="3278.66"/>
    <circle class="fil0 str0" transform="matrix(0.366889 0.114467 0.623801 0.597224 10747.7 7959.41)" r="3278.66"/>
    <circle class="fil0 str0" transform="matrix(0.366889 0.114467 0.6559 0.607239 10747.7 7959.41)" r="3278.66"/>
    <circle class="fil0 str0" transform="matrix(0.366889 0.114467 0.687999 0.617253 10747.7 7959.41)" r="3278.66"/>
    <circle class="fil0 str0" transform="matrix(0.366889 0.114467 0.720097 0.627268 10747.7 7959.41)" r="3278.66"/>
    <circle class="fil0 str0" transform="matrix(0.366889 0.114467 0.752196 0.637282 10747.7 7959.41)" r="3278.66"/>
    <circle class="fil0 str0" transform="matrix(0.366889 0.114467 0.784294 0.647297 10747.7 7959.41)" r="3278.66"/>
    <circle class="fil0 str0" transform="matrix(0.366889 0.114467 0.816393 0.657311 10747.7 7959.41)" r="3278.66"/>
    <circle class="fil0 str0" transform="matrix(0.366889 0.114467 0.848492 0.667326 10747.7 7959.41)" r="3278.66"/>
    <circle class="fil0 str0" transform="matrix(0.366889 0.114467 0.88059 0.677341 10747.7 7959.41)" r="3278.66"/>
    <circle class="fil0 str0" transform="matrix(0.366889 0.114467 0.912689 0.687355 10747.7 7959.41)" r="3278.66"/>
    <circle class="fil0 str0" transform="matrix(0.366889 0.114467 0.944787 0.69737 10747.7 7959.41)" r="3278.66"/>
    <circle class="fil0 str0" transform="matrix(0.366889 0.114467 0.976886 0.707384 10747.7 7959.41)" r="3278.66"/>
    <circle class="fil0 str0" transform="matrix(0.366889 0.114467 1.00898 0.717399 10747.7 7959.41)" r="3278.66"/>
    <circle class="fil0 str0" transform="matrix(0.366889 0.114467 1.04108 0.727413 10747.7 7959.41)" r="3278.66"/>
    <circle class="fil0 str0" transform="matrix(0.366889 0.114467 1.07318 0.737428 10747.7 7959.41)" r="3278.66"/>
    <circle class="fil0 str0" transform="matrix(0.366889 0.114467 1.10528 0.747443 10747.7 7959.41)" r="3278.66"/>
    <circle class="fil0 str0" transform="matrix(0.366889 0.114467 1.13738 0.757457 10747.7 7959.41)" r="3278.66"/>
    <circle class="fil0 str0" transform="matrix(0.366889 0.114467 1.16948 0.767472 10747.7 7959.41)" r="3278.66"/>
   </g>
   <g>
    <circle class="fil0 str0" transform="matrix(0.383913 -0.0179196 0.0179196 0.383913 10106.3 9519.01)" r="3278.66"/>
    <circle class="fil0 str0" transform="matrix(0.383913 -0.0179196 0.0515076 0.382345 10106.3 9519.01)" r="3278.66"/>
    <circle class="fil0 str0" transform="matrix(0.383913 -0.0179196 0.0850956 0.380777 10106.3 9519.01)" r="3278.66"/>
    <circle class="fil0 str0" transform="matrix(0.383913 -0.0179196 0.118684 0.37921 10106.3 9519.01)" r="3278.66"/>
    <circle class="fil0 str0" transform="matrix(0.383913 -0.0179196 0.152272 0.377642 10106.3 9519.01)" r="3278.66"/>
    <circle class="fil0 str0" transform="matrix(0.383913 -0.0179196 0.18586 0.376074 10106.3 9519.01)" r="3278.66"/>
    <circle class="fil0 str0" transform="matrix(0.383913 -0.0179196 0.219448 0.374506 10106.3 9519.01)" r="3278.66"/>
    <circle class="fil0 str0" transform="matrix(0.383913 -0.0179196 0.253036 0.372939 10106.3 9519.01)" r="3278.66"/>
    <circle class="fil0 str0" transform="matrix(0.383913 -0.0179196 0.286624 0.371371 10106.3 9519.01)" r="3278.66"/>
    <circle class="fil0 str0" transform="matrix(0.383913 -0.0179196 0.320212 0.369803 10106.3 9519.01)" r="3278.66"/>
    <circle class="fil0 str0" transform="matrix(0.383913 -0.0179196 0.3538 0.368235 10106.3 9519.01)" r="3278.66"/>
    <circle class="fil0 str0" transform="matrix(0.383913 -0.0179196 0.387388 0.366667 10106.3 9519.01)" r="3278.66"/>
    <circle class="fil0 str0" transform="matrix(0.383913 -0.0179196 0.420976 0.3651 10106.3 9519.01)" r="3278.66"/>
    <circle class="fil0 str0" transform="matrix(0.383913 -0.0179196 0.454564 0.363532 10106.3 9519.01)" r="3278.66"/>
    <circle class="fil0 str0" transform="matrix(0.383913 -0.0179196 0.488152 0.361964 10106.3 9519.01)" r="3278.66"/>
    <circle class="fil0 str0" transform="matrix(0.383913 -0.0179196 0.52174 0.360396 10106.3 9519.01)" r="3278.66"/>
    <circle class="fil0 str0" transform="matrix(0.383913 -0.0179196 0.555328 0.358829 10106.3 9519.01)" r="3278.66"/>
    <circle class="fil0 str0" transform="matrix(0.383913 -0.0179196 0.588916 0.357261 10106.3 9519.01)" r="3278.66"/>
    <circle class="fil0 str0" transform="matrix(0.383913 -0.0179196 0.622504 0.355693 10106.3 9519.01)" r="3278.66"/>
    <circle class="fil0 str0" transform="matrix(0.383913 -0.0179196 0.656092 0.354125 10106.3 9519.01)" r="3278.66"/>
    <circle class="fil0 str0" transform="matrix(0.383913 -0.0179196 0.68968 0.352558 10106.3 9519.01)" r="3278.66"/>
    <circle class="fil0 str0" transform="matrix(0.383913 -0.0179196 0.723268 0.35099 10106.3 9519.01)" r="3278.66"/>
    <circle class="fil0 str0" transform="matrix(0.383913 -0.0179196 0.756856 0.349422 10106.3 9519.01)" r="3278.66"/>
    <circle class="fil0 str0" transform="matrix(0.383913 -0.0179196 0.790444 0.347854 10106.3 9519.01)" r="3278.66"/>
    <circle class="fil0 str0" transform="matrix(0.383913 -0.0179196 0.824032 0.346287 10106.3 9519.01)" r="3278.66"/>
    <circle class="fil0 str0" transform="matrix(0.383913 -0.0179196 0.85762 0.344719 10106.3 9519.01)" r="3278.66"/>
    <circle class="fil0 str0" transform="matrix(0.383913 -0.0179196 0.891208 0.343151 10106.3 9519.01)" r="3278.66"/>
    <circle class="fil0 str0" transform="matrix(0.383913 -0.0179196 0.924796 0.341583 10106.3 9519.01)" r="3278.66"/>
    <circle class="fil0 str0" transform="matrix(0.383913 -0.0179196 0.958384 0.340016 10106.3 9519.01)" r="3278.66"/>
    <circle class="fil0 str0" transform="matrix(0.383913 -0.0179196 0.991972 0.338448 10106.3 9519.01)" r="3278.66"/>
    <circle class="fil0 str0" transform="matrix(0.383913 -0.0179196 1.02556 0.33688 10106.3 9519.01)" r="3278.66"/>
    <circle class="fil0 str0" transform="matrix(0.383913 -0.0179196 1.05915 0.335312 10106.3 9519.01)" r="3278.66"/>
    <circle class="fil0 str0" transform="matrix(0.383913 -0.0179196 1.09274 0.333745 10106.3 9519.01)" r="3278.66"/>
    <circle class="fil0 str0" transform="matrix(0.383913 -0.0179196 1.12632 0.332177 10106.3 9519.01)" r="3278.66"/>
    <circle class="fil0 str0" transform="matrix(0.383913 -0.0179196 1.15991 0.330609 10106.3 9519.01)" r="3278.66"/>
    <circle class="fil0 str0" transform="matrix(0.383913 -0.0179196 1.1935 0.329041 10106.3 9519.01)" r="3278.66"/>
    <circle class="fil0 str0" transform="matrix(0.383913 -0.0179196 1.22709 0.327474 10106.3 9519.01)" r="3278.66"/>
    <circle class="fil0 str0" transform="matrix(0.383913 -0.0179196 1.26068 0.325906 10106.3 9519.01)" r="3278.66"/>
    <circle class="fil0 str0" transform="matrix(0.383913 -0.0179196 1.29426 0.324338 10106.3 9519.01)" r="3278.66"/>
    <circle class="fil0 str0" transform="matrix(0.383913 -0.0179196 1.32785 0.32277 10106.3 9519.01)" r="3278.66"/>
    <circle class="fil0 str0" transform="matrix(0.383913 -0.0179196 1.36144 0.321202 10106.3 9519.01)" r="3278.66"/>
   </g>
   <g>
    <circle class="fil0 str0" transform="matrix(0.354631 -0.148145 0.148145 0.354631 10037 11203.9)" r="3278.66"/>
    <circle class="fil0 str0" transform="matrix(0.354631 -0.148145 0.179171 0.34167 10037 11203.9)" r="3278.66"/>
    <circle class="fil0 str0" transform="matrix(0.354631 -0.148145 0.210197 0.328709 10037 11203.9)" r="3278.66"/>
    <circle class="fil0 str0" transform="matrix(0.354631 -0.148145 0.241223 0.315748 10037 11203.9)" r="3278.66"/>
    <circle class="fil0 str0" transform="matrix(0.354631 -0.148145 0.27225 0.302787 10037 11203.9)" r="3278.66"/>
    <circle class="fil0 str0" transform="matrix(0.354631 -0.148145 0.303276 0.289826 10037 11203.9)" r="3278.66"/>
    <circle class="fil0 str0" transform="matrix(0.354631 -0.148145 0.334302 0.276865 10037 11203.9)" r="3278.66"/>
    <circle class="fil0 str0" transform="matrix(0.354631 -0.148145 0.365328 0.263904 10037 11203.9)" r="3278.66"/>
    <circle class="fil0 str0" transform="matrix(0.354631 -0.148145 0.396355 0.250943 10037 11203.9)" r="3278.66"/>
    <circle class="fil0 str0" transform="matrix(0.354631 -0.148145 0.427381 0.237982 10037 11203.9)" r="3278.66"/>
    <circle class="fil0 str0" transform="matrix(0.354631 -0.148145 0.458407 0.225021 10037 11203.9)" r="3278.66"/>
    <circle class="fil0 str0" transform="matrix(0.354631 -0.148145 0.489433 0.21206 10037 11203.9)" r="3278.66"/>
    <circle class="fil0 str0" transform="matrix(0.354631 -0.148145 0.520459 0.199099 10037 11203.9)" r="3278.66"/>
    <circle class="fil0 str0" transform="matrix(0.354631 -0.148145 0.551486 0.186138 10037 11203.9)" r="3278.66"/>
    <circle class="fil0 str0" transform="matrix(0.354631 -0.148145 0.582512 0.173177 10037 11203.9)" r="3278.66"/>
    <circle class="fil0 str0" transform="matrix(0.354631 -0.148145 0.613538 0.160216 10037 11203.9)" r="3278.66"/>
    <circle class="fil0 str0" transform="matrix(0.354631 -0.148145 0.644564 0.147255 10037 11203.9)" r="3278.66"/>
    <circle class="fil0 str0" transform="matrix(0.354631 -0.148145 0.67559 0.134294 10037 11203.9)" r="3278.66"/>
    <circle class="fil0 str0" transform="matrix(0.354631 -0.148145 0.706617 0.121333 10037 11203.9)" r="3278.66"/>
    <circle class="fil0 str0" transform="matrix(0.354631 -0.148145 0.737643 0.108372 10037 11203.9)" r="3278.66"/>
    <circle class="fil0 str0" transform="matrix(0.354631 -0.148145 0.768669 0.0954114 10037 11203.9)" r="3278.66"/>
    <circle class="fil0 str0" transform="matrix(0.354631 -0.148145 0.799695 0.0824504 10037 11203.9)" r="3278.66"/>
    <circle class="fil0 str0" transform="matrix(0.354631 -0.148145 0.830721 0.0694894 10037 11203.9)" r="3278.66"/>
    <circle class="fil0 str0" transform="matrix(0.354631 -0.148145 0.861748 0.0565284 10037 11203.9)" r="3278.66"/>
    <circle class="fil0 str0" transform="matrix(0.354631 -0.148145 0.892774 0.0435674 10037 11203.9)" r="3278.66"/>
    <circle class="fil0 str0" transform="matrix(0.354631 -0.148145 0.9238 0.0306064 10037 11203.9)" r="3278.66"/>
    <circle class="fil0 str0" transform="matrix(0.354631 -0.148145 0.954826 0.0176454 10037 11203.9)" r="3278.66"/>
    <circle class="fil0 str0" transform="matrix(0.354631 -0.148145 0.985853 0.00468442 10037 11203.9)" r="3278.66"/>
    <circle class="fil0 str0" transform="matrix(0.354631 -0.148145 1.01688 -0.00827657 10037 11203.9)" r="3278.66"/>
    <circle class="fil0 str0" transform="matrix(0.354631 -0.148145 1.0479 -0.0212376 10037 11203.9)" r="3278.66"/>
    <circle class="fil0 str0" transform="matrix(0.354631 -0.148145 1.07893 -0.0341986 10037 11203.9)" r="3278.66"/>
    <circle class="fil0 str0" transform="matrix(0.354631 -0.148145 1.10996 -0.0471595 10037 11203.9)" r="3278.66"/>
    <circle class="fil0 str0" transform="matrix(0.354631 -0.148145 1.14098 -0.0601205 10037 11203.9)" r="3278.66"/>
    <circle class="fil0 str0" transform="matrix(0.354631 -0.148145 1.17201 -0.0730815 10037 11203.9)" r="3278.66"/>
    <circle class="fil0 str0" transform="matrix(0.354631 -0.148145 1.20304 -0.0860425 10037 11203.9)" r="3278.66"/>
    <circle class="fil0 str0" transform="matrix(0.354631 -0.148145 1.23406 -0.0990035 10037 11203.9)" r="3278.66"/>
    <circle class="fil0 str0" transform="matrix(0.354631 -0.148145 1.26509 -0.111965 10037 11203.9)" r="3278.66"/>
    <circle class="fil0 str0" transform="matrix(0.354631 -0.148145 1.29611 -0.124926 10037 11203.9)" r="3278.66"/>
    <circle class="fil0 str0" transform="matrix(0.354631 -0.148145 1.32714 -0.137886 10037 11203.9)" r="3278.66"/>
    <circle class="fil0 str0" transform="matrix(0.354631 -0.148145 1.35817 -0.150847 10037 11203.9)" r="3278.66"/>
    <circle class="fil0 str0" transform="matrix(0.354631 -0.148145 1.38919 -0.163808 10037 11203.9)" r="3278.66"/>
   </g>
   <g>
    <circle class="fil0 str0" transform="matrix(0.282576 -0.260502 0.260502 0.282576 10548.2 12810.9)" r="3278.66"/>
    <circle class="fil0 str0" transform="matrix(0.282576 -0.260502 0.285224 0.259785 10548.2 12810.9)" r="3278.66"/>
    <circle class="fil0 str0" transform="matrix(0.282576 -0.260502 0.309946 0.236994 10548.2 12810.9)" r="3278.66"/>
    <circle class="fil0 str0" transform="matrix(0.282576 -0.260502 0.334668 0.214203 10548.2 12810.9)" r="3278.66"/>
    <circle class="fil0 str0" transform="matrix(0.282576 -0.260502 0.35939 0.191412 10548.2 12810.9)" r="3278.66"/>
    <circle class="fil0 str0" transform="matrix(0.282576 -0.260502 0.384113 0.168621 10548.2 12810.9)" r="3278.66"/>
    <circle class="fil0 str0" transform="matrix(0.282576 -0.260502 0.408835 0.14583 10548.2 12810.9)" r="3278.66"/>
    <circle class="fil0 str0" transform="matrix(0.282576 -0.260502 0.433557 0.123039 10548.2 12810.9)" r="3278.66"/>
    <circle class="fil0 str0" transform="matrix(0.282576 -0.260502 0.458279 0.100248 10548.2 12810.9)" r="3278.66"/>
    <circle class="fil0 str0" transform="matrix(0.282576 -0.260502 0.483001 0.0774574 10548.2 12810.9)" r="3278.66"/>
    <circle class="fil0 str0" transform="matrix(0.282576 -0.260502 0.507723 0.0546664 10548.2 12810.9)" r="3278.66"/>
    <circle class="fil0 str0" transform="matrix(0.282576 -0.260502 0.532446 0.0318755 10548.2 12810.9)" r="3278.66"/>
    <circle class="fil0 str0" transform="matrix(0.282576 -0.260502 0.557168 0.00908457 10548.2 12810.9)" r="3278.66"/>
    <circle class="fil0 str0" transform="matrix(0.282576 -0.260502 0.58189 -0.0137064 10548.2 12810.9)" r="3278.66"/>
    <circle class="fil0 str0" transform="matrix(0.282576 -0.260502 0.606612 -0.0364973 10548.2 12810.9)" r="3278.66"/>
    <circle class="fil0 str0" transform="matrix(0.282576 -0.260502 0.631334 -0.0592882 10548.2 12810.9)" r="3278.66"/>
    <circle class="fil0 str0" transform="matrix(0.282576 -0.260502 0.656057 -0.0820792 10548.2 12810.9)" r="3278.66"/>
    <circle class="fil0 str0" transform="matrix(0.282576 -0.260502 0.680779 -0.10487 10548.2 12810.9)" r="3278.66"/>
    <circle class="fil0 str0" transform="matrix(0.282576 -0.260502 0.705501 -0.127661 10548.2 12810.9)" r="3278.66"/>
    <circle class="fil0 str0" transform="matrix(0.282576 -0.260502 0.730223 -0.150452 10548.2 12810.9)" r="3278.66"/>
    <circle class="fil0 str0" transform="matrix(0.282576 -0.260502 0.754945 -0.173243 10548.2 12810.9)" r="3278.66"/>
    <circle class="fil0 str0" transform="matrix(0.282576 -0.260502 0.779667 -0.196034 10548.2 12810.9)" r="3278.66"/>
    <circle class="fil0 str0" transform="matrix(0.282576 -0.260502 0.80439 -0.218825 10548.2 12810.9)" r="3278.66"/>
    <circle class="fil0 str0" transform="matrix(0.282576 -0.260502 0.829112 -0.241616 10548.2 12810.9)" r="3278.66"/>
    <circle class="fil0 str0" transform="matrix(0.282576 -0.260502 0.853834 -0.264407 10548.2 12810.9)" r="3278.66"/>
    <circle class="fil0 str0" transform="matrix(0.282576 -0.260502 0.878556 -0.287198 10548.2 12810.9)" r="3278.66"/>
    <circle class="fil0 str0" transform="matrix(0.282576 -0.260502 0.903278 -0.309989 10548.2 12810.9)" r="3278.66"/>
    <circle class="fil0 str0" transform="matrix(0.282576 -0.260502 0.928001 -0.33278 10548.2 12810.9)" r="3278.66"/>
    <circle class="fil0 str0" transform="matrix(0.282576 -0.260502 0.952723 -0.35557 10548.2 12810.9)" r="3278.66"/>
    <circle class="fil0 str0" transform="matrix(0.282576 -0.260502 0.977445 -0.378361 10548.2 12810.9)" r="3278.66"/>
    <circle class="fil0 str0" transform="matrix(0.282576 -0.260502 1.00217 -0.401152 10548.2 12810.9)" r="3278.66"/>
    <circle class="fil0 str0" transform="matrix(0.282576 -0.260502 1.02689 -0.423943 10548.2 12810.9)" r="3278.66"/>
    <circle class="fil0 str0" transform="matrix(0.282576 -0.260502 1.05161 -0.446734 10548.2 12810.9)" r="3278.66"/>
    <circle class="fil0 str0" transform="matrix(0.282576 -0.260502 1.07633 -0.469525 10548.2 12810.9)" r="3278.66"/>
    <circle class="fil0 str0" transform="matrix(0.282576 -0.260502 1.10106 -0.492316 10548.2 12810.9)" r="3278.66"/>
    <circle class="fil0 str0" transform="matrix(0.282576 -0.260502 1.12578 -0.515107 10548.2 12810.9)" r="3278.66"/>
    <circle class="fil0 str0" transform="matrix(0.282576 -0.260502 1.1505 -0.537898 10548.2 12810.9)" r="3278.66"/>
    <circle class="fil0 str0" transform="matrix(0.282576 -0.260502 1.17522 -0.560689 10548.2 12810.9)" r="3278.66"/>
    <circle class="fil0 str0" transform="matrix(0.282576 -0.260502 1.19994 -0.58348 10548.2 12810.9)" r="3278.66"/>
    <circle class="fil0 str0" transform="matrix(0.282576 -0.260502 1.22467 -0.606271 10548.2 12810.9)" r="3278.66"/>
    <circle class="fil0 str0" transform="matrix(0.282576 -0.260502 1.24939 -0.629062 10548.2 12810.9)" r="3278.66"/>
   </g>
   <g>
    <circle class="fil0 str0" transform="matrix(0.176438 -0.341438 0.341438 0.176438 11578.2 14146.2)" r="3278.66"/>
    <circle class="fil0 str0" transform="matrix(0.176438 -0.341438 0.356874 0.146566 11578.2 14146.2)" r="3278.66"/>
    <circle class="fil0 str0" transform="matrix(0.176438 -0.341438 0.372311 0.116694 11578.2 14146.2)" r="3278.66"/>
    <circle class="fil0 str0" transform="matrix(0.176438 -0.341438 0.387747 0.0868217 11578.2 14146.2)" r="3278.66"/>
    <circle class="fil0 str0" transform="matrix(0.176438 -0.341438 0.403183 0.0569498 11578.2 14146.2)" r="3278.66"/>
    <circle class="fil0 str0" transform="matrix(0.176438 -0.341438 0.41862 0.0270778 11578.2 14146.2)" r="3278.66"/>
    <circle class="fil0 str0" transform="matrix(0.176438 -0.341438 0.434056 -0.00279414 11578.2 14146.2)" r="3278.66"/>
    <circle class="fil0 str0" transform="matrix(0.176438 -0.341438 0.449492 -0.0326661 11578.2 14146.2)" r="3278.66"/>
    <circle class="fil0 str0" transform="matrix(0.176438 -0.341438 0.464928 -0.0625381 11578.2 14146.2)" r="3278.66"/>
    <circle class="fil0 str0" transform="matrix(0.176438 -0.341438 0.480365 -0.09241 11578.2 14146.2)" r="3278.66"/>
    <circle class="fil0 str0" transform="matrix(0.176438 -0.341438 0.495801 -0.122282 11578.2 14146.2)" r="3278.66"/>
    <circle class="fil0 str0" transform="matrix(0.176438 -0.341438 0.511237 -0.152154 11578.2 14146.2)" r="3278.66"/>
    <circle class="fil0 str0" transform="matrix(0.176438 -0.341438 0.526674 -0.182026 11578.2 14146.2)" r="3278.66"/>
    <circle class="fil0 str0" transform="matrix(0.176438 -0.341438 0.54211 -0.211898 11578.2 14146.2)" r="3278.66"/>
    <circle class="fil0 str0" transform="matrix(0.176438 -0.341438 0.557546 -0.24177 11578.2 14146.2)" r="3278.66"/>
    <circle class="fil0 str0" transform="matrix(0.176438 -0.341438 0.572982 -0.271642 11578.2 14146.2)" r="3278.66"/>
    <circle class="fil0 str0" transform="matrix(0.176438 -0.341438 0.588419 -0.301514 11578.2 14146.2)" r="3278.66"/>
    <circle class="fil0 str0" transform="matrix(0.176438 -0.341438 0.603855 -0.331386 11578.2 14146.2)" r="3278.66"/>
    <circle class="fil0 str0" transform="matrix(0.176438 -0.341438 0.619291 -0.361258 11578.2 14146.2)" r="3278.66"/>
    <circle class="fil0 str0" transform="matrix(0.176438 -0.341438 0.634728 -0.39113 11578.2 14146.2)" r="3278.66"/>
    <circle class="fil0 str0" transform="matrix(0.176438 -0.341438 0.650164 -0.421002 11578.2 14146.2)" r="3278.66"/>
    <circle class="fil0 str0" transform="matrix(0.176438 -0.341438 0.6656 -0.450874 11578.2 14146.2)" r="3278.66"/>
    <circle class="fil0 str0" transform="matrix(0.176438 -0.341438 0.681036 -0.480746 11578.2 14146.2)" r="3278.66"/>
    <circle class="fil0 str0" transform="matrix(0.176438 -0.341438 0.696473 -0.510617 11578.2 14146.2)" r="3278.66"/>
    <circle class="fil0 str0" transform="matrix(0.176438 -0.341438 0.711909 -0.540489 11578.2 14146.2)" r="3278.66"/>
    <circle class="fil0 str0" transform="matrix(0.176438 -0.341438 0.727345 -0.570361 11578.2 14146.2)" r="3278.66"/>
    <circle class="fil0 str0" transform="matrix(0.176438 -0.341438 0.742782 -0.600233 11578.2 14146.2)" r="3278.66"/>
    <circle class="fil0 str0" transform="matrix(0.176438 -0.341438 0.758218 -0.630105 11578.2 14146.2)" r="3278.66"/>
    <circle class="fil0 str0" transform="matrix(0.176438 -0.341438 0.773654 -0.659977 11578.2 14146.2)" r="3278.66"/>
    <circle class="fil0 str0" transform="matrix(0.176438 -0.341438 0.789091 -0.689849 11578.2 14146.2)" r="3278.66"/>
    <circle class="fil0 str0" transform="matrix(0.176438 -0.341438 0.804527 -0.719721 11578.2 14146.2)" r="3278.66"/>
    <circle class="fil0 str0" transform="matrix(0.176438 -0.341438 0.819963 -0.749593 11578.2 14146.2)" r="3278.66"/>
    <circle class="fil0 str0" transform="matrix(0.176438 -0.341438 0.835399 -0.779465 11578.2 14146.2)" r="3278.66"/>
    <circle class="fil0 str0" transform="matrix(0.176438 -0.341438 0.850836 -0.809337 11578.2 14146.2)" r="3278.66"/>
    <circle class="fil0 str0" transform="matrix(0.176438 -0.341438 0.866272 -0.839209 11578.2 14146.2)" r="3278.66"/>
    <circle class="fil0 str0" transform="matrix(0.176438 -0.341438 0.881708 -0.869081 11578.2 14146.2)" r="3278.66"/>
    <circle class="fil0 str0" transform="matrix(0.176438 -0.341438 0.897145 -0.898953 11578.2 14146.2)" r="3278.66"/>
    <circle class="fil0 str0" transform="matrix(0.176438 -0.341438 0.912581 -0.928825 11578.2 14146.2)" r="3278.66"/>
    <circle class="fil0 str0" transform="matrix(0.176438 -0.341438 0.928017 -0.958697 11578.2 14146.2)" r="3278.66"/>
    <circle class="fil0 str0" transform="matrix(0.176438 -0.341438 0.943453 -0.988569 11578.2 14146.2)" r="3278.66"/>
    <circle class="fil0 str0" transform="matrix(0.176438 -0.341438 0.95889 -1.01844 11578.2 14146.2)" r="3278.66"/>
   </g>
   <g>
    <circle class="fil0 str0" transform="matrix(0.0490184 -0.381192 0.381192 0.0490184 13002.7 15048.6)" r="3278.66"/>
    <circle class="fil0 str0" transform="matrix(0.0490184 -0.381192 0.385481 0.0156684 13002.7 15048.6)" r="3278.66"/>
    <circle class="fil0 str0" transform="matrix(0.0490184 -0.381192 0.389769 -0.0176815 13002.7 15048.6)" r="3278.66"/>
    <circle class="fil0 str0" transform="matrix(0.0490184 -0.381192 0.394058 -0.0510315 13002.7 15048.6)" r="3278.66"/>
    <circle class="fil0 str0" transform="matrix(0.0490184 -0.381192 0.398346 -0.0843815 13002.7 15048.6)" r="3278.66"/>
    <circle class="fil0 str0" transform="matrix(0.0490184 -0.381192 0.402635 -0.117731 13002.7 15048.6)" r="3278.66"/>
    <circle class="fil0 str0" transform="matrix(0.0490184 -0.381192 0.406923 -0.151081 13002.7 15048.6)" r="3278.66"/>
    <circle class="fil0 str0" transform="matrix(0.0490184 -0.381192 0.411212 -0.184431 13002.7 15048.6)" r="3278.66"/>
    <circle class="fil0 str0" transform="matrix(0.0490184 -0.381192 0.415501 -0.217781 13002.7 15048.6)" r="3278.66"/>
    <circle class="fil0 str0" transform="matrix(0.0490184 -0.381192 0.419789 -0.251131 13002.7 15048.6)" r="3278.66"/>
    <circle class="fil0 str0" transform="matrix(0.0490184 -0.381192 0.424078 -0.284481 13002.7 15048.6)" r="3278.66"/>
    <circle class="fil0 str0" transform="matrix(0.0490184 -0.381192 0.428366 -0.317831 13002.7 15048.6)" r="3278.66"/>
    <circle class="fil0 str0" transform="matrix(0.0490184 -0.381192 0.432655 -0.351181 13002.7 15048.6)" r="3278.66"/>
    <circle class="fil0 str0" transform="matrix(0.0490184 -0.381192 0.436943 -0.384531 13002.7 15048.6)" r="3278.66"/>
    <circle class="fil0 str0" transform="matrix(0.0490184 -0.381192 0.441232 -0.417881 13002.7 15048.6)" r="3278.66"/>
    <circle class="fil0 str0" transform="matrix(0.0490184 -0.381192 0.44552 -0.451231 13002.7 15048.6)" r="3278.66"/>
    <circle class="fil0 str0" transform="matrix(0.0490184 -0.381192 0.449809 -0.484581 13002.7 15048.6)" r="3278.66"/>
    <circle class="fil0 str0" transform="matrix(0.0490184 -0.381192 0.454098 -0.517931 13002.7 15048.6)" r="3278.66"/>
    <circle class="fil0 str0" transform="matrix(0.0490184 -0.381192 0.458386 -0.551281 13002.7 15048.6)" r="3278.66"/>
    <circle class="fil0 str0" transform="matrix(0.0490184 -0.381192 0.462675 -0.584631 13002.7 15048.6)" r="3278.66"/>
    <circle class="fil0 str0" transform="matrix(0.0490184 -0.381192 0.466963 -0.617981 13002.7 15048.6)" r="3278.66"/>
    <circle class="fil0 str0" transform="matrix(0.0490184 -0.381192 0.471252 -0.651331 13002.7 15048.6)" r="3278.66"/>
    <circle class="fil0 str0" transform="matrix(0.0490184 -0.381192 0.47554 -0.684681 13002.7 15048.6)" r="3278.66"/>
    <circle class="fil0 str0" transform="matrix(0.0490184 -0.381192 0.479829 -0.718031 13002.7 15048.6)" r="3278.66"/>
    <circle class="fil0 str0" transform="matrix(0.0490184 -0.381192 0.484117 -0.751381 13002.7 15048.6)" r="3278.66"/>
    <circle class="fil0 str0" transform="matrix(0.0490184 -0.381192 0.488406 -0.784731 13002.7 15048.6)" r="3278.66"/>
    <circle class="fil0 str0" transform="matrix(0.0490184 -0.381192 0.492695 -0.818081 13002.7 15048.6)" r="3278.66"/>
    <circle class="fil0 str0" transform="matrix(0.0490184 -0.381192 0.496983 -0.851431 13002.7 15048.6)" r="3278.66"/>
    <circle class="fil0 str0" transform="matrix(0.0490184 -0.381192 0.501272 -0.884781 13002.7 15048.6)" r="3278.66"/>
    <circle class="fil0 str0" transform="matrix(0.0490184 -0.381192 0.50556 -0.918131 13002.7 15048.6)" r="3278.66"/>
    <circle class="fil0 str0" transform="matrix(0.0490184 -0.381192 0.509849 -0.951481 13002.7 15048.6)" r="3278.66"/>
    <circle class="fil0 str0" transform="matrix(0.0490184 -0.381192 0.514137 -0.984831 13002.7 15048.6)" r="3278.66"/>
    <circle class="fil0 str0" transform="matrix(0.0490184 -0.381192 0.518426 -1.01818 13002.7 15048.6)" r="3278.66"/>
    <circle class="fil0 str0" transform="matrix(0.0490184 -0.381192 0.522714 -1.05153 13002.7 15048.6)" r="3278.66"/>
    <circle class="fil0 str0" transform="matrix(0.0490184 -0.381192 0.527003 -1.08488 13002.7 15048.6)" r="3278.66"/>
    <circle class="fil0 str0" transform="matrix(0.0490184 -0.381192 0.531292 -1.11823 13002.7 15048.6)" r="3278.66"/>
    <circle class="fil0 str0" transform="matrix(0.0490184 -0.381192 0.53558 -1.15158 13002.7 15048.6)" r="3278.66"/>
    <circle class="fil0 str0" transform="matrix(0.0490184 -0.381192 0.539869 -1.18493 13002.7 15048.6)" r="3278.66"/>
    <circle class="fil0 str0" transform="matrix(0.0490184 -0.381192 0.544157 -1.21828 13002.7 15048.6)" r="3278.66"/>
    <circle class="fil0 str0" transform="matrix(0.0490184 -0.381192 0.548446 -1.25163 13002.7 15048.6)" r="3278.66"/>
    <circle class="fil0 str0" transform="matrix(0.0490184 -0.381192 0.552734 -1.28498 13002.7 15048.6)" r="3278.66"/>
   </g>
   <g>
    <circle class="fil0 str0" transform="matrix(-0.0843131 -0.374969 0.374969 -0.0843131 14650 15409.5)" r="3278.66"/>
    <circle class="fil0 str0" transform="matrix(-0.0843131 -0.374969 0.367592 -0.117119 14650 15409.5)" r="3278.66"/>
    <circle class="fil0 str0" transform="matrix(-0.0843131 -0.374969 0.360216 -0.149924 14650 15409.5)" r="3278.66"/>
    <circle class="fil0 str0" transform="matrix(-0.0843131 -0.374969 0.352839 -0.18273 14650 15409.5)" r="3278.66"/>
    <circle class="fil0 str0" transform="matrix(-0.0843131 -0.374969 0.345463 -0.215535 14650 15409.5)" r="3278.66"/>
    <circle class="fil0 str0" transform="matrix(-0.0843131 -0.374969 0.338086 -0.248341 14650 15409.5)" r="3278.66"/>
    <circle class="fil0 str0" transform="matrix(-0.0843131 -0.374969 0.33071 -0.281146 14650 15409.5)" r="3278.66"/>
    <circle class="fil0 str0" transform="matrix(-0.0843131 -0.374969 0.323334 -0.313952 14650 15409.5)" r="3278.66"/>
    <circle class="fil0 str0" transform="matrix(-0.0843131 -0.374969 0.315957 -0.346757 14650 15409.5)" r="3278.66"/>
    <circle class="fil0 str0" transform="matrix(-0.0843131 -0.374969 0.308581 -0.379563 14650 15409.5)" r="3278.66"/>
    <circle class="fil0 str0" transform="matrix(-0.0843131 -0.374969 0.301204 -0.412368 14650 15409.5)" r="3278.66"/>
    <circle class="fil0 str0" transform="matrix(-0.0843131 -0.374969 0.293828 -0.445174 14650 15409.5)" r="3278.66"/>
    <circle class="fil0 str0" transform="matrix(-0.0843131 -0.374969 0.286451 -0.477979 14650 15409.5)" r="3278.66"/>
    <circle class="fil0 str0" transform="matrix(-0.0843131 -0.374969 0.279075 -0.510785 14650 15409.5)" r="3278.66"/>
    <circle class="fil0 str0" transform="matrix(-0.0843131 -0.374969 0.271698 -0.54359 14650 15409.5)" r="3278.66"/>
    <circle class="fil0 str0" transform="matrix(-0.0843131 -0.374969 0.264322 -0.576396 14650 15409.5)" r="3278.66"/>
    <circle class="fil0 str0" transform="matrix(-0.0843131 -0.374969 0.256946 -0.609201 14650 15409.5)" r="3278.66"/>
    <circle class="fil0 str0" transform="matrix(-0.0843131 -0.374969 0.249569 -0.642007 14650 15409.5)" r="3278.66"/>
    <circle class="fil0 str0" transform="matrix(-0.0843131 -0.374969 0.242193 -0.674812 14650 15409.5)" r="3278.66"/>
    <circle class="fil0 str0" transform="matrix(-0.0843131 -0.374969 0.234816 -0.707618 14650 15409.5)" r="3278.66"/>
    <circle class="fil0 str0" transform="matrix(-0.0843131 -0.374969 0.22744 -0.740423 14650 15409.5)" r="3278.66"/>
    <circle class="fil0 str0" transform="matrix(-0.0843131 -0.374969 0.220063 -0.773229 14650 15409.5)" r="3278.66"/>
    <circle class="fil0 str0" transform="matrix(-0.0843131 -0.374969 0.212687 -0.806034 14650 15409.5)" r="3278.66"/>
    <circle class="fil0 str0" transform="matrix(-0.0843131 -0.374969 0.205311 -0.83884 14650 15409.5)" r="3278.66"/>
    <circle class="fil0 str0" transform="matrix(-0.0843131 -0.374969 0.197934 -0.871645 14650 15409.5)" r="3278.66"/>
    <circle class="fil0 str0" transform="matrix(-0.0843131 -0.374969 0.190558 -0.904451 14650 15409.5)" r="3278.66"/>
    <circle class="fil0 str0" transform="matrix(-0.0843131 -0.374969 0.183181 -0.937256 14650 15409.5)" r="3278.66"/>
    <circle class="fil0 str0" transform="matrix(-0.0843131 -0.374969 0.175805 -0.970062 14650 15409.5)" r="3278.66"/>
    <circle class="fil0 str0" transform="matrix(-0.0843131 -0.374969 0.168428 -1.00287 14650 15409.5)" r="3278.66"/>
    <circle class="fil0 str0" transform="matrix(-0.0843131 -0.374969 0.161052 -1.03567 14650 15409.5)" r="3278.66"/>
    <circle class="fil0 str0" transform="matrix(-0.0843131 -0.374969 0.153675 -1.06848 14650 15409.5)" r="3278.66"/>
    <circle class="fil0 str0" transform="matrix(-0.0843131 -0.374969 0.146299 -1.10128 14650 15409.5)" r="3278.66"/>
    <circle class="fil0 str0" transform="matrix(-0.0843131 -0.374969 0.138923 -1.13409 14650 15409.5)" r="3278.66"/>
    <circle class="fil0 str0" transform="matrix(-0.0843131 -0.374969 0.131546 -1.16689 14650 15409.5)" r="3278.66"/>
    <circle class="fil0 str0" transform="matrix(-0.0843131 -0.374969 0.12417 -1.1997 14650 15409.5)" r="3278.66"/>
    <circle class="fil0 str0" transform="matrix(-0.0843131 -0.374969 0.116793 -1.23251 14650 15409.5)" r="3278.66"/>
    <circle class="fil0 str0" transform="matrix(-0.0843131 -0.374969 0.109417 -1.26531 14650 15409.5)" r="3278.66"/>
    <circle class="fil0 str0" transform="matrix(-0.0843131 -0.374969 0.10204 -1.29812 14650 15409.5)" r="3278.66"/>
    <circle class="fil0 str0" transform="matrix(-0.0843131 -0.374969 0.0946639 -1.33092 14650 15409.5)" r="3278.66"/>
    <circle class="fil0 str0" transform="matrix(-0.0843131 -0.374969 0.0872875 -1.36373 14650 15409.5)" r="3278.66"/>
    <circle class="fil0 str0" transform="matrix(-0.0843131 -0.374969 0.079911 -1.39653 14650 15409.5)" r="3278.66"/>
   </g>
   <g>
    <circle class="fil0 str0" transform="matrix(-0.207475 -0.323518 0.323518 -0.207475 16321.3 15185.1)" r="3278.66"/>
    <circle class="fil0 str0" transform="matrix(-0.207475 -0.323518 0.305367 -0.235779 16321.3 15185.1)" r="3278.66"/>
    <circle class="fil0 str0" transform="matrix(-0.207475 -0.323518 0.287215 -0.264084 16321.3 15185.1)" r="3278.66"/>
    <circle class="fil0 str0" transform="matrix(-0.207475 -0.323518 0.269063 -0.292388 16321.3 15185.1)" r="3278.66"/>
    <circle class="fil0 str0" transform="matrix(-0.207475 -0.323518 0.250912 -0.320692 16321.3 15185.1)" r="3278.66"/>
    <circle class="fil0 str0" transform="matrix(-0.207475 -0.323518 0.23276 -0.348996 16321.3 15185.1)" r="3278.66"/>
    <circle class="fil0 str0" transform="matrix(-0.207475 -0.323518 0.214608 -0.3773 16321.3 15185.1)" r="3278.66"/>
    <circle class="fil0 str0" transform="matrix(-0.207475 -0.323518 0.196456 -0.405605 16321.3 15185.1)" r="3278.66"/>
    <circle class="fil0 str0" transform="matrix(-0.207475 -0.323518 0.178305 -0.433909 16321.3 15185.1)" r="3278.66"/>
    <circle class="fil0 str0" transform="matrix(-0.207475 -0.323518 0.160153 -0.462213 16321.3 15185.1)" r="3278.66"/>
    <circle class="fil0 str0" transform="matrix(-0.207475 -0.323518 0.142001 -0.490517 16321.3 15185.1)" r="3278.66"/>
    <circle class="fil0 str0" transform="matrix(-0.207475 -0.323518 0.123849 -0.518821 16321.3 15185.1)" r="3278.66"/>
    <circle class="fil0 str0" transform="matrix(-0.207475 -0.323518 0.105698 -0.547126 16321.3 15185.1)" r="3278.66"/>
    <circle class="fil0 str0" transform="matrix(-0.207475 -0.323518 0.087546 -0.57543 16321.3 15185.1)" r="3278.66"/>
    <circle class="fil0 str0" transform="matrix(-0.207475 -0.323518 0.0693943 -0.603734 16321.3 15185.1)" r="3278.66"/>
    <circle class="fil0 str0" transform="matrix(-0.207475 -0.323518 0.0512425 -0.632038 16321.3 15185.1)" r="3278.66"/>
    <circle class="fil0 str0" transform="matrix(-0.207475 -0.323518 0.0330908 -0.660342 16321.3 15185.1)" r="3278.66"/>
    <circle class="fil0 str0" transform="matrix(-0.207475 -0.323518 0.0149391 -0.688647 16321.3 15185.1)" r="3278.66"/>
    <circle class="fil0 str0" transform="matrix(-0.207475 -0.323518 -0.00321266 -0.716951 16321.3 15185.1)" r="3278.66"/>
    <circle class="fil0 str0" transform="matrix(-0.207475 -0.323518 -0.0213644 -0.745255 16321.3 15185.1)" r="3278.66"/>
    <circle class="fil0 str0" transform="matrix(-0.207475 -0.323518 -0.0395161 -0.773559 16321.3 15185.1)" r="3278.66"/>
    <circle class="fil0 str0" transform="matrix(-0.207475 -0.323518 -0.0576679 -0.801863 16321.3 15185.1)" r="3278.66"/>
    <circle class="fil0 str0" transform="matrix(-0.207475 -0.323518 -0.0758196 -0.830168 16321.3 15185.1)" r="3278.66"/>
    <circle class="fil0 str0" transform="matrix(-0.207475 -0.323518 -0.0939713 -0.858472 16321.3 15185.1)" r="3278.66"/>
    <circle class="fil0 str0" transform="matrix(-0.207475 -0.323518 -0.112123 -0.886776 16321.3 15185.1)" r="3278.66"/>
    <circle class="fil0 str0" transform="matrix(-0.207475 -0.323518 -0.130275 -0.91508 16321.3 15185.1)" r="3278.66"/>
    <circle class="fil0 str0" transform="matrix(-0.207475 -0.323518 -0.148427 -0.943384 16321.3 15185.1)" r="3278.66"/>
    <circle class="fil0 str0" transform="matrix(-0.207475 -0.323518 -0.166578 -0.971689 16321.3 15185.1)" r="3278.66"/>
    <circle class="fil0 str0" transform="matrix(-0.207475 -0.323518 -0.18473 -0.999993 16321.3 15185.1)" r="3278.66"/>
    <circle class="fil0 str0" transform="matrix(-0.207475 -0.323518 -0.202882 -1.0283 16321.3 15185.1)" r="3278.66"/>
    <circle class="fil0 str0" transform="matrix(-0.207475 -0.323518 -0.221033 -1.0566 16321.3 15185.1)" r="3278.66"/>
    <circle class="fil0 str0" transform="matrix(-0.207475 -0.323518 -0.239185 -1.08491 16321.3 15185.1)" r="3278.66"/>
    <circle class="fil0 str0" transform="matrix(-0.207475 -0.323518 -0.257337 -1.11321 16321.3 15185.1)" r="3278.66"/>
    <circle class="fil0 str0" transform="matrix(-0.207475 -0.323518 -0.275489 -1.14151 16321.3 15185.1)" r="3278.66"/>
    <circle class="fil0 str0" transform="matrix(-0.207475 -0.323518 -0.29364 -1.16982 16321.3 15185.1)" r="3278.66"/>
    <circle class="fil0 str0" transform="matrix(-0.207475 -0.323518 -0.311792 -1.19812 16321.3 15185.1)" r="3278.66"/>
    <circle class="fil0 str0" transform="matrix(-0.207475 -0.323518 -0.329944 -1.22643 16321.3 15185.1)" r="3278.66"/>
    <circle class="fil0 str0" transform="matrix(-0.207475 -0.323518 -0.348096 -1.25473 16321.3 15185.1)" r="3278.66"/>
    <circle class="fil0 str0" transform="matrix(-0.207475 -0.323518 -0.366247 -1.28303 16321.3 15185.1)" r="3278.66"/>
    <circle class="fil0 str0" transform="matrix(-0.207475 -0.323518 -0.384399 -1.31134 16321.3 15185.1)" r="3278.66"/>
    <circle class="fil0 str0" transform="matrix(-0.207475 -0.323518 -0.402551 -1.33964 16321.3 15185.1)" r="3278.66"/>
   </g>
   <g>
    <circle class="fil0 str0" transform="matrix(-0.305613 -0.233047 0.233047 -0.305613 17815.2 14402.6)" r="3278.66"/>
    <circle class="fil0 str0" transform="matrix(-0.305613 -0.233047 0.20631 -0.326002 17815.2 14402.6)" r="3278.66"/>
    <circle class="fil0 str0" transform="matrix(-0.305613 -0.233047 0.179572 -0.346391 17815.2 14402.6)" r="3278.66"/>
    <circle class="fil0 str0" transform="matrix(-0.305613 -0.233047 0.152834 -0.36678 17815.2 14402.6)" r="3278.66"/>
    <circle class="fil0 str0" transform="matrix(-0.305613 -0.233047 0.126097 -0.387169 17815.2 14402.6)" r="3278.66"/>
    <circle class="fil0 str0" transform="matrix(-0.305613 -0.233047 0.099359 -0.407558 17815.2 14402.6)" r="3278.66"/>
    <circle class="fil0 str0" transform="matrix(-0.305613 -0.233047 0.0726213 -0.427947 17815.2 14402.6)" r="3278.66"/>
    <circle class="fil0 str0" transform="matrix(-0.305613 -0.233047 0.0458837 -0.448336 17815.2 14402.6)" r="3278.66"/>
    <circle class="fil0 str0" transform="matrix(-0.305613 -0.233047 0.019146 -0.468725 17815.2 14402.6)" r="3278.66"/>
    <circle class="fil0 str0" transform="matrix(-0.305613 -0.233047 -0.00759166 -0.489114 17815.2 14402.6)" r="3278.66"/>
    <circle class="fil0 str0" transform="matrix(-0.305613 -0.233047 -0.0343293 -0.509503 17815.2 14402.6)" r="3278.66"/>
    <circle class="fil0 str0" transform="matrix(-0.305613 -0.233047 -0.061067 -0.529892 17815.2 14402.6)" r="3278.66"/>
    <circle class="fil0 str0" transform="matrix(-0.305613 -0.233047 -0.0878046 -0.550281 17815.2 14402.6)" r="3278.66"/>
    <circle class="fil0 str0" transform="matrix(-0.305613 -0.233047 -0.114542 -0.57067 17815.2 14402.6)" r="3278.66"/>
    <circle class="fil0 str0" transform="matrix(-0.305613 -0.233047 -0.14128 -0.591059 17815.2 14402.6)" r="3278.66"/>
    <circle class="fil0 str0" transform="matrix(-0.305613 -0.233047 -0.168018 -0.611448 17815.2 14402.6)" r="3278.66"/>
    <circle class="fil0 str0" transform="matrix(-0.305613 -0.233047 -0.194755 -0.631837 17815.2 14402.6)" r="3278.66"/>
    <circle class="fil0 str0" transform="matrix(-0.305613 -0.233047 -0.221493 -0.652226 17815.2 14402.6)" r="3278.66"/>
    <circle class="fil0 str0" transform="matrix(-0.305613 -0.233047 -0.248231 -0.672615 17815.2 14402.6)" r="3278.66"/>
    <circle class="fil0 str0" transform="matrix(-0.305613 -0.233047 -0.274968 -0.693004 17815.2 14402.6)" r="3278.66"/>
    <circle class="fil0 str0" transform="matrix(-0.305613 -0.233047 -0.301706 -0.713393 17815.2 14402.6)" r="3278.66"/>
    <circle class="fil0 str0" transform="matrix(-0.305613 -0.233047 -0.328444 -0.733782 17815.2 14402.6)" r="3278.66"/>
    <circle class="fil0 str0" transform="matrix(-0.305613 -0.233047 -0.355181 -0.754171 17815.2 14402.6)" r="3278.66"/>
    <circle class="fil0 str0" transform="matrix(-0.305613 -0.233047 -0.381919 -0.77456 17815.2 14402.6)" r="3278.66"/>
    <circle class="fil0 str0" transform="matrix(-0.305613 -0.233047 -0.408656 -0.794949 17815.2 14402.6)" r="3278.66"/>
    <circle class="fil0 str0" transform="matrix(-0.305613 -0.233047 -0.435394 -0.815338 17815.2 14402.6)" r="3278.66"/>
    <circle class="fil0 str0" transform="matrix(-0.305613 -0.233047 -0.462132 -0.835727 17815.2 14402.6)" r="3278.66"/>
    <circle class="fil0 str0" transform="matrix(-0.305613 -0.233047 -0.488869 -0.856116 17815.2 14402.6)" r="3278.66"/>
    <circle class="fil0 str0" transform="matrix(-0.305613 -0.233047 -0.515607 -0.876505 17815.2 14402.6)" r="3278.66"/>
    <circle class="fil0 str0" transform="matrix(-0.305613 -0.233047 -0.542345 -0.896894 17815.2 14402.6)" r="3278.66"/>
    <circle class="fil0 str0" transform="matrix(-0.305613 -0.233047 -0.569082 -0.917283 17815.2 14402.6)" r="3278.66"/>
    <circle class="fil0 str0" transform="matrix(-0.305613 -0.233047 -0.59582 -0.937672 17815.2 14402.6)" r="3278.66"/>
    <circle class="fil0 str0" transform="matrix(-0.305613 -0.233047 -0.622558 -0.95806 17815.2 14402.6)" r="3278.66"/>
    <circle class="fil0 str0" transform="matrix(-0.305613 -0.233047 -0.649295 -0.978449 17815.2 14402.6)" r="3278.66"/>
    <circle class="fil0 str0" transform="matrix(-0.305613 -0.233047 -0.676033 -0.998838 17815.2 14402.6)" r="3278.66"/>
    <circle class="fil0 str0" transform="matrix(-0.305613 -0.233047 -0.702771 -1.01923 17815.2 14402.6)" r="3278.66"/>
    <circle class="fil0 str0" transform="matrix(-0.305613 -0.233047 -0.729508 -1.03962 17815.2 14402.6)" r="3278.66"/>
    <circle class="fil0 str0" transform="matrix(-0.305613 -0.233047 -0.756246 -1.06001 17815.2 14402.6)" r="3278.66"/>
    <circle class="fil0 str0" transform="matrix(-0.305613 -0.233047 -0.782984 -1.08039 17815.2 14402.6)" r="3278.66"/>
    <circle class="fil0 str0" transform="matrix(-0.305613 -0.233047 -0.809721 -1.10078 17815.2 14402.6)" r="3278.66"/>
    <circle class="fil0 str0" transform="matrix(-0.305613 -0.233047 -0.836459 -1.12117 17815.2 14402.6)" r="3278.66"/>
   </g>
   <g>
    <circle class="fil0 str0" transform="matrix(-0.366889 -0.114467 0.114467 -0.366889 18951.3 13156.5)" r="3278.66"/>
    <circle class="fil0 str0" transform="matrix(-0.366889 -0.114467 0.0823684 -0.376903 18951.3 13156.5)" r="3278.66"/>
    <circle class="fil0 str0" transform="matrix(-0.366889 -0.114467 0.0502698 -0.386918 18951.3 13156.5)" r="3278.66"/>
    <circle class="fil0 str0" transform="matrix(-0.366889 -0.114467 0.0181712 -0.396933 18951.3 13156.5)" r="3278.66"/>
    <circle class="fil0 str0" transform="matrix(-0.366889 -0.114467 -0.0139275 -0.406947 18951.3 13156.5)" r="3278.66"/>
    <circle class="fil0 str0" transform="matrix(-0.366889 -0.114467 -0.0460261 -0.416962 18951.3 13156.5)" r="3278.66"/>
    <circle class="fil0 str0" transform="matrix(-0.366889 -0.114467 -0.0781247 -0.426976 18951.3 13156.5)" r="3278.66"/>
    <circle class="fil0 str0" transform="matrix(-0.366889 -0.114467 -0.110223 -0.436991 18951.3 13156.5)" r="3278.66"/>
    <circle class="fil0 str0" transform="matrix(-0.366889 -0.114467 -0.142322 -0.447005 18951.3 13156.5)" r="3278.66"/>
    <circle class="fil0 str0" transform="matrix(-0.366889 -0.114467 -0.174421 -0.45702 18951.3 13156.5)" r="3278.66"/>
    <circle class="fil0 str0" transform="matrix(-0.366889 -0.114467 -0.206519 -0.467035 18951.3 13156.5)" r="3278.66"/>
    <circle class="fil0 str0" transform="matrix(-0.366889 -0.114467 -0.238618 -0.477049 18951.3 13156.5)" r="3278.66"/>
    <circle class="fil0 str0" transform="matrix(-0.366889 -0.114467 -0.270716 -0.487064 18951.3 13156.5)" r="3278.66"/>
    <circle class="fil0 str0" transform="matrix(-0.366889 -0.114467 -0.302815 -0.497078 18951.3 13156.5)" r="3278.66"/>
    <circle class="fil0 str0" transform="matrix(-0.366889 -0.114467 -0.334914 -0.507093 18951.3 13156.5)" r="3278.66"/>
    <circle class="fil0 str0" transform="matrix(-0.366889 -0.114467 -0.367012 -0.517107 18951.3 13156.5)" r="3278.66"/>
    <circle class="fil0 str0" transform="matrix(-0.366889 -0.114467 -0.399111 -0.527122 18951.3 13156.5)" r="3278.66"/>
    <circle class="fil0 str0" transform="matrix(-0.366889 -0.114467 -0.43121 -0.537137 18951.3 13156.5)" r="3278.66"/>
    <circle class="fil0 str0" transform="matrix(-0.366889 -0.114467 -0.463308 -0.547151 18951.3 13156.5)" r="3278.66"/>
    <circle class="fil0 str0" transform="matrix(-0.366889 -0.114467 -0.495407 -0.557166 18951.3 13156.5)" r="3278.66"/>
    <circle class="fil0 str0" transform="matrix(-0.366889 -0.114467 -0.527505 -0.56718 18951.3 13156.5)" r="3278.66"/>
    <circle class="fil0 str0" transform="matrix(-0.366889 -0.114467 -0.559604 -0.577195 18951.3 13156.5)" r="3278.66"/>
    <circle class="fil0 str0" transform="matrix(-0.366889 -0.114467 -0.591703 -0.587209 18951.3 13156.5)" r="3278.66"/>
    <circle class="fil0 str0" transform="matrix(-0.366889 -0.114467 -0.623801 -0.597224 18951.3 13156.5)" r="3278.66"/>
    <circle class="fil0 str0" transform="matrix(-0.366889 -0.114467 -0.6559 -0.607239 18951.3 13156.5)" r="3278.66"/>
    <circle class="fil0 str0" transform="matrix(-0.366889 -0.114467 -0.687999 -0.617253 18951.3 13156.5)" r="3278.66"/>
    <circle class="fil0 str0" transform="matrix(-0.366889 -0.114467 -0.720097 -0.627268 18951.3 13156.5)" r="3278.66"/>
    <circle class="fil0 str0" transform="matrix(-0.366889 -0.114467 -0.752196 -0.637282 18951.3 13156.5)" r="3278.66"/>
    <circle class="fil0 str0" transform="matrix(-0.366889 -0.114467 -0.784294 -0.647297 18951.3 13156.5)" r="3278.66"/>
    <circle class="fil0 str0" transform="matrix(-0.366889 -0.114467 -0.816393 -0.657311 18951.3 13156.5)" r="3278.66"/>
    <circle class="fil0 str0" transform="matrix(-0.366889 -0.114467 -0.848492 -0.667326 18951.3 13156.5)" r="3278.66"/>
    <circle class="fil0 str0" transform="matrix(-0.366889 -0.114467 -0.88059 -0.677341 18951.3 13156.5)" r="3278.66"/>
    <circle class="fil0 str0" transform="matrix(-0.366889 -0.114467 -0.912689 -0.687355 18951.3 13156.5)" r="3278.66"/>
    <circle class="fil0 str0" transform="matrix(-0.366889 -0.114467 -0.944787 -0.69737 18951.3 13156.5)" r="3278.66"/>
    <circle class="fil0 str0" transform="matrix(-0.366889 -0.114467 -0.976886 -0.707384 18951.3 13156.5)" r="3278.66"/>
    <circle class="fil0 str0" transform="matrix(-0.366889 -0.114467 -1.00898 -0.717399 18951.3 13156.5)" r="3278.66"/>
    <circle class="fil0 str0" transform="matrix(-0.366889 -0.114467 -1.04108 -0.727413 18951.3 13156.5)" r="3278.66"/>
    <circle class="fil0 str0" transform="matrix(-0.366889 -0.114467 -1.07318 -0.737428 18951.3 13156.5)" r="3278.66"/>
    <circle class="fil0 str0" transform="matrix(-0.366889 -0.114467 -1.10528 -0.747443 18951.3 13156.5)" r="3278.66"/>
    <circle class="fil0 str0" transform="matrix(-0.366889 -0.114467 -1.13738 -0.757457 18951.3 13156.5)" r="3278.66"/>
    <circle class="fil0 str0" transform="matrix(-0.366889 -0.114467 -1.16948 -0.767472 18951.3 13156.5)" r="3278.66"/>
   </g>
   <g>
    <circle class="fil0 str0" transform="matrix(-0.383913 0.0179196 -0.0179196 -0.383913 19592.6 11596.8)" r="3278.66"/>
    <circle class="fil0 str0" transform="matrix(-0.383913 0.0179196 -0.0515076 -0.382345 19592.6 11596.8)" r="3278.66"/>
    <circle class="fil0 str0" transform="matrix(-0.383913 0.0179196 -0.0850956 -0.380777 19592.6 11596.8)" r="3278.66"/>
    <circle class="fil0 str0" transform="matrix(-0.383913 0.0179196 -0.118684 -0.37921 19592.6 11596.8)" r="3278.66"/>
    <circle class="fil0 str0" transform="matrix(-0.383913 0.0179196 -0.152272 -0.377642 19592.6 11596.8)" r="3278.66"/>
    <circle class="fil0 str0" transform="matrix(-0.383913 0.0179196 -0.18586 -0.376074 19592.6 11596.8)" r="3278.66"/>
    <circle class="fil0 str0" transform="matrix(-0.383913 0.0179196 -0.219448 -0.374506 19592.6 11596.8)" r="3278.66"/>
    <circle class="fil0 str0" transform="matrix(-0.383913 0.0179196 -0.253036 -0.372939 19592.6 11596.8)" r="3278.66"/>
    <circle class="fil0 str0" transform="matrix(-0.383913 0.0179196 -0.286624 -0.371371 19592.6 11596.8)" r="3278.66"/>
    <circle class="fil0 str0" transform="matrix(-0.383913 0.0179196 -0.320212 -0.369803 19592.6 11596.8)" r="3278.66"/>
    <circle class="fil0 str0" transform="matrix(-0.383913 0.0179196 -0.3538 -0.368235 19592.6 11596.8)" r="3278.66"/>
    <circle class="fil0 str0" transform="matrix(-0.383913 0.0179196 -0.387388 -0.366667 19592.6 11596.8)" r="3278.66"/>
    <circle class="fil0 str0" transform="matrix(-0.383913 0.0179196 -0.420976 -0.3651 19592.6 11596.8)" r="3278.66"/>
    <circle class="fil0 str0" transform="matrix(-0.383913 0.0179196 -0.454564 -0.363532 19592.6 11596.8)" r="3278.66"/>
    <circle class="fil0 str0" transform="matrix(-0.383913 0.0179196 -0.488152 -0.361964 19592.6 11596.8)" r="3278.66"/>
    <circle class="fil0 str0" transform="matrix(-0.383913 0.0179196 -0.52174 -0.360396 19592.6 11596.8)" r="3278.66"/>
    <circle class="fil0 str0" transform="matrix(-0.383913 0.0179196 -0.555328 -0.358829 19592.6 11596.8)" r="3278.66"/>
    <circle class="fil0 str0" transform="matrix(-0.383913 0.0179196 -0.588916 -0.357261 19592.6 11596.8)" r="3278.66"/>
    <circle class="fil0 str0" transform="matrix(-0.383913 0.0179196 -0.622504 -0.355693 19592.6 11596.8)" r="3278.66"/>
    <circle class="fil0 str0" transform="matrix(-0.383913 0.0179196 -0.656092 -0.354125 19592.6 11596.8)" r="3278.66"/>
    <circle class="fil0 str0" transform="matrix(-0.383913 0.0179196 -0.68968 -0.352558 19592.6 11596.8)" r="3278.66"/>
    <circle class="fil0 str0" transform="matrix(-0.383913 0.0179196 -0.723268 -0.35099 19592.6 11596.8)" r="3278.66"/>
    <circle class="fil0 str0" transform="matrix(-0.383913 0.0179196 -0.756856 -0.349422 19592.6 11596.8)" r="3278.66"/>
    <circle class="fil0 str0" transform="matrix(-0.383913 0.0179196 -0.790444 -0.347854 19592.6 11596.8)" r="3278.66"/>
    <circle class="fil0 str0" transform="matrix(-0.383913 0.0179196 -0.824032 -0.346287 19592.6 11596.8)" r="3278.66"/>
    <circle class="fil0 str0" transform="matrix(-0.383913 0.0179196 -0.85762 -0.344719 19592.6 11596.8)" r="3278.66"/>
    <circle class="fil0 str0" transform="matrix(-0.383913 0.0179196 -0.891208 -0.343151 19592.6 11596.8)" r="3278.66"/>
    <circle class="fil0 str0" transform="matrix(-0.383913 0.0179196 -0.924796 -0.341583 19592.6 11596.8)" r="3278.66"/>
    <circle class="fil0 str0" transform="matrix(-0.383913 0.0179196 -0.958384 -0.340016 19592.6 11596.8)" r="3278.66"/>
    <circle class="fil0 str0" transform="matrix(-0.383913 0.0179196 -0.991972 -0.338448 19592.6 11596.8)" r="3278.66"/>
    <circle class="fil0 str0" transform="matrix(-0.383913 0.0179196 -1.02556 -0.33688 19592.6 11596.8)" r="3278.66"/>
    <circle class="fil0 str0" transform="matrix(-0.383913 0.0179196 -1.05915 -0.335312 19592.6 11596.8)" r="3278.66"/>
    <circle class="fil0 str0" transform="matrix(-0.383913 0.0179196 -1.09274 -0.333745 19592.6 11596.8)" r="3278.66"/>
    <circle class="fil0 str0" transform="matrix(-0.383913 0.0179196 -1.12632 -0.332177 19592.6 11596.8)" r="3278.66"/>
    <circle class="fil0 str0" transform="matrix(-0.383913 0.0179196 -1.15991 -0.330609 19592.6 11596.8)" r="3278.66"/>
    <circle class="fil0 str0" transform="matrix(-0.383913 0.0179196 -1.1935 -0.329041 19592.6 11596.8)" r="3278.66"/>
    <circle class="fil0 str0" transform="matrix(-0.383913 0.0179196 -1.22709 -0.327474 19592.6 11596.8)" r="3278.66"/>
    <circle class="fil0 str0" transform="matrix(-0.383913 0.0179196 -1.26068 -0.325906 19592.6 11596.8)" r="3278.66"/>
    <circle class="fil0 str0" transform="matrix(-0.383913 0.0179196 -1.29426 -0.324338 19592.6 11596.8)" r="3278.66"/>
    <circle class="fil0 str0" transform="matrix(-0.383913 0.0179196 -1.32785 -0.32277 19592.6 11596.8)" r="3278.66"/>
    <circle class="fil0 str0" transform="matrix(-0.383913 0.0179196 -1.36144 -0.321202 19592.6 11596.8)" r="3278.66"/>
   </g>
   <g>
    <circle class="fil0 str0" transform="matrix(-0.354631 0.148145 -0.148145 -0.354631 19661.9 9911.93)" r="3278.66"/>
    <circle class="fil0 str0" transform="matrix(-0.354631 0.148145 -0.179171 -0.34167 19661.9 9911.93)" r="3278.66"/>
    <circle class="fil0 str0" transform="matrix(-0.354631 0.148145 -0.210197 -0.328709 19661.9 9911.93)" r="3278.66"/>
    <circle class="fil0 str0" transform="matrix(-0.354631 0.148145 -0.241223 -0.315748 19661.9 9911.93)" r="3278.66"/>
    <circle class="fil0 str0" transform="matrix(-0.354631 0.148145 -0.27225 -0.302787 19661.9 9911.93)" r="3278.66"/>
    <circle class="fil0 str0" transform="matrix(-0.354631 0.148145 -0.303276 -0.289826 19661.9 9911.93)" r="3278.66"/>
    <circle class="fil0 str0" transform="matrix(-0.354631 0.148145 -0.334302 -0.276865 19661.9 9911.93)" r="3278.66"/>
    <circle class="fil0 str0" transform="matrix(-0.354631 0.148145 -0.365328 -0.263904 19661.9 9911.93)" r="3278.66"/>
    <circle class="fil0 str0" transform="matrix(-0.354631 0.148145 -0.396355 -0.250943 19661.9 9911.93)" r="3278.66"/>
    <circle class="fil0 str0" transform="matrix(-0.354631 0.148145 -0.427381 -0.237982 19661.9 9911.93)" r="3278.66"/>
    <circle class="fil0 str0" transform="matrix(-0.354631 0.148145 -0.458407 -0.225021 19661.9 9911.93)" r="3278.66"/>
    <circle class="fil0 str0" transform="matrix(-0.354631 0.148145 -0.489433 -0.21206 19661.9 9911.93)" r="3278.66"/>
    <circle class="fil0 str0" transform="matrix(-0.354631 0.148145 -0.520459 -0.199099 19661.9 9911.93)" r="3278.66"/>
    <circle class="fil0 str0" transform="matrix(-0.354631 0.148145 -0.551486 -0.186138 19661.9 9911.93)" r="3278.66"/>
    <circle class="fil0 str0" transform="matrix(-0.354631 0.148145 -0.582512 -0.173177 19661.9 9911.93)" r="3278.66"/>
    <circle class="fil0 str0" transform="matrix(-0.354631 0.148145 -0.613538 -0.160216 19661.9 9911.93)" r="3278.66"/>
    <circle class="fil0 str0" transform="matrix(-0.354631 0.148145 -0.644564 -0.147255 19661.9 9911.93)" r="3278.66"/>
    <circle class="fil0 str0" transform="matrix(-0.354631 0.148145 -0.67559 -0.134294 19661.9 9911.93)" r="3278.66"/>
    <circle class="fil0 str0" transform="matrix(-0.354631 0.148145 -0.706617 -0.121333 19661.9 9911.93)" r="3278.66"/>
    <circle class="fil0 str0" transform="matrix(-0.354631 0.148145 -0.737643 -0.108372 19661.9 9911.93)" r="3278.66"/>
    <circle class="fil0 str0" transform="matrix(-0.354631 0.148145 -0.768669 -0.0954114 19661.9 9911.93)" r="3278.66"/>
    <circle class="fil0 str0" transform="matrix(-0.354631 0.148145 -0.799695 -0.0824504 19661.9 9911.93)" r="3278.66"/>
    <circle class="fil0 str0" transform="matrix(-0.354631 0.148145 -0.830721 -0.0694894 19661.9 9911.93)" r="3278.66"/>
    <circle class="fil0 str0" transform="matrix(-0.354631 0.148145 -0.861748 -0.0565284 19661.9 9911.93)" r="3278.66"/>
    <circle class="fil0 str0" transform="matrix(-0.354631 0.148145 -0.892774 -0.0435674 19661.9 9911.93)" r="3278.66"/>
    <circle class="fil0 str0" transform="matrix(-0.354631 0.148145 -0.9238 -0.0306064 19661.9 9911.93)" r="3278.66"/>
    <circle class="fil0 str0" transform="matrix(-0.354631 0.148145 -0.954826 -0.0176454 19661.9 9911.93)" r="3278.66"/>
    <circle class="fil0 str0" transform="matrix(-0.354631 0.148145 -0.985853 -0.00468442 19661.9 9911.93)" r="3278.66"/>
    <circle class="fil0 str0" transform="matrix(-0.354631 0.148145 -1.01688 0.00827657 19661.9 9911.93)" r="3278.66"/>
    <circle class="fil0 str0" transform="matrix(-0.354631 0.148145 -1.0479 0.0212376 19661.9 9911.93)" r="3278.66"/>
    <circle class="fil0 str0" transform="matrix(-0.354631 0.148145 -1.07893 0.0341986 19661.9 9911.93)" r="3278.66"/>
    <circle class="fil0 str0" transform="matrix(-0.354631 0.148145 -1.10996 0.0471595 19661.9 9911.93)" r="3278.66"/>
    <circle class="fil0 str0" transform="matrix(-0.354631 0.148145 -1.14098 0.0601205 19661.9 9911.93)" r="3278.66"/>
    <circle class="fil0 str0" transform="matrix(-0.354631 0.148145 -1.17201 0.0730815 19661.9 9911.93)" r="3278.66"/>
    <circle class="fil0 str0" transform="matrix(-0.354631 0.148145 -1.20304 0.0860425 19661.9 9911.93)" r="3278.66"/>
    <circle class="fil0 str0" transform="matrix(-0.354631 0.148145 -1.23406 0.0990035 19661.9 9911.93)" r="3278.66"/>
    <circle class="fil0 str0" transform="matrix(-0.354631 0.148145 -1.26509 0.111965 19661.9 9911.93)" r="3278.66"/>
    <circle class="fil0 str0" transform="matrix(-0.354631 0.148145 -1.29611 0.124926 19661.9 9911.93)" r="3278.66"/>
    <circle class="fil0 str0" transform="matrix(-0.354631 0.148145 -1.32714 0.137886 19661.9 9911.93)" r="3278.66"/>
    <circle class="fil0 str0" transform="matrix(-0.354631 0.148145 -1.35817 0.150847 19661.9 9911.93)" r="3278.66"/>
    <circle class="fil0 str0" transform="matrix(-0.354631 0.148145 -1.38919 0.163808 19661.9 9911.93)" r="3278.66"/>
   </g>
   <g>
    <circle class="fil0 str0" transform="matrix(-0.282576 0.260502 -0.260502 -0.282576 19150.8 8304.93)" r="3278.66"/>
    <circle class="fil0 str0" transform="matrix(-0.282576 0.260502 -0.285224 -0.259785 19150.8 8304.93)" r="3278.66"/>
    <circle class="fil0 str0" transform="matrix(-0.282576 0.260502 -0.309946 -0.236994 19150.8 8304.93)" r="3278.66"/>
    <circle class="fil0 str0" transform="matrix(-0.282576 0.260502 -0.334668 -0.214203 19150.8 8304.93)" r="3278.66"/>
    <circle class="fil0 str0" transform="matrix(-0.282576 0.260502 -0.35939 -0.191412 19150.8 8304.93)" r="3278.66"/>
    <circle class="fil0 str0" transform="matrix(-0.282576 0.260502 -0.384113 -0.168621 19150.8 8304.93)" r="3278.66"/>
    <circle class="fil0 str0" transform="matrix(-0.282576 0.260502 -0.408835 -0.14583 19150.8 8304.93)" r="3278.66"/>
    <circle class="fil0 str0" transform="matrix(-0.282576 0.260502 -0.433557 -0.123039 19150.8 8304.93)" r="3278.66"/>
    <circle class="fil0 str0" transform="matrix(-0.282576 0.260502 -0.458279 -0.100248 19150.8 8304.93)" r="3278.66"/>
    <circle class="fil0 str0" transform="matrix(-0.282576 0.260502 -0.483001 -0.0774574 19150.8 8304.93)" r="3278.66"/>
    <circle class="fil0 str0" transform="matrix(-0.282576 0.260502 -0.507723 -0.0546664 19150.8 8304.93)" r="3278.66"/>
    <circle class="fil0 str0" transform="matrix(-0.282576 0.260502 -0.532446 -0.0318755 19150.8 8304.93)" r="3278.66"/>
    <circle class="fil0 str0" transform="matrix(-0.282576 0.260502 -0.557168 -0.00908457 19150.8 8304.93)" r="3278.66"/>
    <circle class="fil0 str0" transform="matrix(-0.282576 0.260502 -0.58189 0.0137064 19150.8 8304.93)" r="3278.66"/>
    <circle class="fil0 str0" transform="matrix(-0.282576 0.260502 -0.606612 0.0364973 19150.8 8304.93)" r="3278.66"/>
    <circle class="fil0 str0" transform="matrix(-0.282576 0.260502 -0.631334 0.0592882 19150.8 8304.93)" r="3278.66"/>
    <circle class="fil0 str0" transform="matrix(-0.282576 0.260502 -0.656057 0.0820792 19150.8 8304.93)" r="3278.66"/>
    <circle class="fil0 str0" transform="matrix(-0.282576 0.260502 -0.680779 0.10487 19150.8 8304.93)" r="3278.66"/>
    <circle class="fil0 str0" transform="matrix(-0.282576 0.260502 -0.705501 0.127661 19150.8 8304.93)" r="3278.66"/>
    <circle class="fil0 str0" transform="matrix(-0.282576 0.260502 -0.730223 0.150452 19150.8 8304.93)" r="3278.66"/>
    <circle class="fil0 str0" transform="matrix(-0.282576 0.260502 -0.754945 0.173243 19150.8 8304.93)" r="3278.66"/>
    <circle class="fil0 str0" transform="matrix(-0.282576 0.260502 -0.779667 0.196034 19150.8 8304.93)" r="3278.66"/>
    <circle class="fil0 str0" transform="matrix(-0.282576 0.260502 -0.80439 0.218825 19150.8 8304.93)" r="3278.66"/>
    <circle class="fil0 str0" transform="matrix(-0.282576 0.260502 -0.829112 0.241616 19150.8 8304.93)" r="3278.66"/>
    <circle class="fil0 str0" transform="matrix(-0.282576 0.260502 -0.853834 0.264407 19150.8 8304.93)" r="3278.66"/>
    <circle class="fil0 str0" transform="matrix(-0.282576 0.260502 -0.878556 0.287198 19150.8 8304.93)" r="3278.66"/>
    <circle class="fil0 str0" transform="matrix(-0.282576 0.260502 -0.903278 0.309989 19150.8 8304.93)" r="3278.66"/>
    <circle class="fil0 str0" transform="matrix(-0.282576 0.260502 -0.928001 0.33278 19150.8 8304.93)" r="3278.66"/>
    <circle class="fil0 str0" transform="matrix(-0.282576 0.260502 -0.952723 0.35557 19150.8 8304.93)" r="3278.66"/>
    <circle class="fil0 str0" transform="matrix(-0.282576 0.260502 -0.977445 0.378361 19150.8 8304.93)" r="3278.66"/>
    <circle class="fil0 str0" transform="matrix(-0.282576 0.260502 -1.00217 0.401152 19150.8 8304.93)" r="3278.66"/>
    <circle class="fil0 str0" transform="matrix(-0.282576 0.260502 -1.02689 0.423943 19150.8 8304.93)" r="3278.66"/>
    <circle class="fil0 str0" transform="matrix(-0.282576 0.260502 -1.05161 0.446734 19150.8 8304.93)" r="3278.66"/>
    <circle class="fil0 str0" transform="matrix(-0.282576 0.260502 -1.07633 0.469525 19150.8 8304.93)" r="3278.66"/>
    <circle class="fil0 str0" transform="matrix(-0.282576 0.260502 -1.10106 0.492316 19150.8 8304.93)" r="3278.66"/>
    <circle class="fil0 str0" transform="matrix(-0.282576 0.260502 -1.12578 0.515107 19150.8 8304.93)" r="3278.66"/>
    <circle class="fil0 str0" transform="matrix(-0.282576 0.260502 -1.1505 0.537898 19150.8 8304.93)" r="3278.66"/>
    <circle class="fil0 str0" transform="matrix(-0.282576 0.260502 -1.17522 0.560689 19150.8 8304.93)" r="3278.66"/>
    <circle class="fil0 str0" transform="matrix(-0.282576 0.260502 -1.19994 0.58348 19150.8 8304.93)" r="3278.66"/>
    <circle class="fil0 str0" transform="matrix(-0.282576 0.260502 -1.22467 0.606271 19150.8 8304.93)" r="3278.66"/>
    <circle class="fil0 str0" transform="matrix(-0.282576 0.260502 -1.24939 0.629062 19150.8 8304.93)" r="3278.66"/>
   </g>
   <g>
    <circle class="fil0 str0" transform="matrix(-0.176438 0.341438 -0.341438 -0.176438 18120.8 6969.68)" r="3278.66"/>
    <circle class="fil0 str0" transform="matrix(-0.176438 0.341438 -0.356874 -0.146566 18120.8 6969.68)" r="3278.66"/>
    <circle class="fil0 str0" transform="matrix(-0.176438 0.341438 -0.372311 -0.116694 18120.8 6969.68)" r="3278.66"/>
    <circle class="fil0 str0" transform="matrix(-0.176438 0.341438 -0.387747 -0.0868217 18120.8 6969.68)" r="3278.66"/>
    <circle class="fil0 str0" transform="matrix(-0.176438 0.341438 -0.403183 -0.0569498 18120.8 6969.68)" r="3278.66"/>
    <circle class="fil0 str0" transform="matrix(-0.176438 0.341438 -0.41862 -0.0270778 18120.8 6969.68)" r="3278.66"/>
    <circle class="fil0 str0" transform="matrix(-0.176438 0.341438 -0.434056 0.00279414 18120.8 6969.68)" r="3278.66"/>
    <circle class="fil0 str0" transform="matrix(-0.176438 0.341438 -0.449492 0.0326661 18120.8 6969.68)" r="3278.66"/>
    <circle class="fil0 str0" transform="matrix(-0.176438 0.341438 -0.464928 0.0625381 18120.8 6969.68)" r="3278.66"/>
    <circle class="fil0 str0" transform="matrix(-0.176438 0.341438 -0.480365 0.09241 18120.8 6969.68)" r="3278.66"/>
    <circle class="fil0 str0" transform="matrix(-0.176438 0.341438 -0.495801 0.122282 18120.8 6969.68)" r="3278.66"/>
    <circle class="fil0 str0" transform="matrix(-0.176438 0.341438 -0.511237 0.152154 18120.8 6969.68)" r="3278.66"/>
    <circle class="fil0 str0" transform="matrix(-0.176438 0.341438 -0.526674 0.182026 18120.8 6969.68)" r="3278.66"/>
    <circle class="fil0 str0" transform="matrix(-0.176438 0.341438 -0.54211 0.211898 18120.8 6969.68)" r="3278.66"/>
    <circle class="fil0 str0" transform="matrix(-0.176438 0.341438 -0.557546 0.24177 18120.8 6969.68)" r="3278.66"/>
    <circle class="fil0 str0" transform="matrix(-0.176438 0.341438 -0.572982 0.271642 18120.8 6969.68)" r="3278.66"/>
    <circle class="fil0 str0" transform="matrix(-0.176438 0.341438 -0.588419 0.301514 18120.8 6969.68)" r="3278.66"/>
    <circle class="fil0 str0" transform="matrix(-0.176438 0.341438 -0.603855 0.331386 18120.8 6969.68)" r="3278.66"/>
    <circle class="fil0 str0" transform="matrix(-0.176438 0.341438 -0.619291 0.361258 18120.8 6969.68)" r="3278.66"/>
    <circle class="fil0 str0" transform="matrix(-0.176438 0.341438 -0.634728 0.39113 18120.8 6969.68)" r="3278.66"/>
    <circle class="fil0 str0" transform="matrix(-0.176438 0.341438 -0.650164 0.421002 18120.8 6969.68)" r="3278.66"/>
    <circle class="fil0 str0" transform="matrix(-0.176438 0.341438 -0.6656 0.450874 18120.8 6969.68)" r="3278.66"/>
    <circle class="fil0 str0" transform="matrix(-0.176438 0.341438 -0.681036 0.480746 18120.8 6969.68)" r="3278.66"/>
    <circle class="fil0 str0" transform="matrix(-0.176438 0.341438 -0.696473 0.510617 18120.8 6969.68)" r="3278.66"/>
    <circle class="fil0 str0" transform="matrix(-0.176438 0.341438 -0.711909 0.540489 18120.8 6969.68)" r="3278.66"/>
    <circle class="fil0 str0" transform="matrix(-0.176438 0.341438 -0.727345 0.570361 18120.8 6969.68)" r="3278.66"/>
    <circle class="fil0 str0" transform="matrix(-0.176438 0.341438 -0.742782 0.600233 18120.8 6969.68)" r="3278.66"/>
    <circle class="fil0 str0" transform="matrix(-0.176438 0.341438 -0.758218 0.630105 18120.8 6969.68)" r="3278.66"/>
    <circle class="fil0 str0" transform="matrix(-0.176438 0.341438 -0.773654 0.659977 18120.8 6969.68)" r="3278.66"/>
    <circle class="fil0 str0" transform="matrix(-0.176438 0.341438 -0.789091 0.689849 18120.8 6969.68)" r="3278.66"/>
    <circle class="fil0 str0" transform="matrix(-0.176438 0.341438 -0.804527 0.719721 18120.8 6969.68)" r="3278.66"/>
    <circle class="fil0 str0" transform="matrix(-0.176438 0.341438 -0.819963 0.749593 18120.8 6969.68)" r="3278.66"/>
    <circle class="fil0 str0" transform="matrix(-0.176438 0.341438 -0.835399 0.779465 18120.8 6969.68)" r="3278.66"/>
    <circle class="fil0 str0" transform="matrix(-0.176438 0.341438 -0.850836 0.809337 18120.8 6969.68)" r="3278.66"/>
    <circle class="fil0 str0" transform="matrix(-0.176438 0.341438 -0.866272 0.839209 18120.8 6969.68)" r="3278.66"/>
    <circle class="fil0 str0" transform="matrix(-0.176438 0.341438 -0.881708 0.869081 18120.8 6969.68)" r="3278.66"/>
    <circle class="fil0 str0" transform="matrix(-0.176438 0.341438 -0.897145 0.898953 18120.8 6969.68)" r="3278.66"/>
    <circle class="fil0 str0" transform="matrix(-0.176438 0.341438 -0.912581 0.928825 18120.8 6969.68)" r="3278.66"/>
    <circle class="fil0 str0" transform="matrix(-0.176438 0.341438 -0.928017 0.958697 18120.8 6969.68)" r="3278.66"/>
    <circle class="fil0 str0" transform="matrix(-0.176438 0.341438 -0.943453 0.988569 18120.8 6969.68)" r="3278.66"/>
    <circle class="fil0 str0" transform="matrix(-0.176438 0.341438 -0.95889 1.01844 18120.8 6969.68)" r="3278.66"/>
   </g>
  </g>
 </g>
</svg>
