<?xml version="1.0" encoding="UTF-8"?>
<!DOCTYPE svg PUBLIC "-//W3C//DTD SVG 1.1//EN" "http://www.w3.org/Graphics/SVG/1.1/DTD/svg11.dtd">
<!-- Creator: CorelDRAW 2021.5 -->
<svg xmlns="http://www.w3.org/2000/svg" xml:space="preserve" width="297mm" height="211mm" version="1.1" style="shape-rendering:geometricPrecision; text-rendering:geometricPrecision; image-rendering:optimizeQuality; fill-rule:evenodd; clip-rule:evenodd"
viewBox="0 0 29700 21100"
 xmlns:xlink="http://www.w3.org/1999/xlink"
 xmlns:xodm="http://www.corel.com/coreldraw/odm/2003">
 <defs>
  <style type="text/css">
   <![CDATA[
    .str0 {stroke:#2B2A29;stroke-width:20;stroke-miterlimit:22.9256}
    .fil2 {fill:#FEFEFE}
    .fil0 {fill:#EBECEC}
    .fil1 {fill:#2B2A29}
   ]]>
  </style>
 </defs>
 <g id="Слой_x0020_1">
  <metadata id="CorelCorpID_0Corel-Layer"/>
  <g id="_2771756023680">
   <g>
    <path class="fil0 str0" d="M2691.24 8730.04c40.63,163.78 118.98,229.92 202.64,277.22 83.69,47.31 172.68,75.8 233.13,92.07 60.46,16.28 92.39,20.35 137.85,21.87 45.46,1.52 104.46,0.52 161.52,-12.19 57.08,-12.73 112.22,-37.14 166.39,-67.66 54.17,-30.53 107.37,-67.15 145.58,-98.18 38.21,-31.03 61.42,-56.46 75.92,-105.8 14.53,-49.34 20.32,-122.61 27.1,-237.05 6.77,-114.45 14.51,-270.1 15.95,-434.91 1.45,-164.82 -3.38,-338.77 -2.42,-435.44 0.98,-96.64 7.75,-115.97 42.57,-124.62 34.82,-8.65 97.69,-6.6 173.62,-3.56 75.94,3.07 164.92,7.13 267.46,3.56 102.54,-3.55 218.61,-14.75 365.64,-31.54 147.04,-16.78 325.02,-39.17 412.56,-50.36 87.53,-11.18 84.64,-11.18 85.61,9.66 0.96,20.86 5.79,62.58 13.05,146.51 7.26,83.93 16.94,210.09 28.06,364.72 11.12,154.63 23.7,337.76 47.4,506.64 23.7,168.88 58.51,323.53 83.67,414.57 25.15,91.06 40.61,118.53 54.16,138.87 13.55,20.34 25.15,33.57 57.07,52.9 31.92,19.33 84.15,44.77 125.75,60.01 41.6,15.28 72.55,20.37 132.04,20.37 59.48,0 147.51,-5.09 252.94,-14.76 105.44,-9.66 228.29,-23.91 303.73,-36.63 75.46,-12.7 103.51,-23.91 136.89,-55.44 33.37,-31.54 72.06,-83.41 96.23,-143.96 24.18,-60.52 33.86,-129.71 43.05,-191.25 9.2,-61.55 17.9,-115.47 16.45,-208.56 -1.45,-93.09 -13.07,-225.35 -27.56,-363.72 -14.51,-138.35 -31.93,-282.81 -44.03,-446.61 -12.07,-163.78 -18.86,-346.9 -17.89,-468.48 0.97,-121.58 9.67,-181.6 44.01,-255.36 34.35,-73.75 94.32,-161.24 144.13,-246.2 49.81,-84.94 89.48,-167.35 116.07,-261.96 26.6,-94.62 40.15,-201.43 45.47,-289.94 5.33,-88.52 2.42,-158.71 -15.96,-235.02 -8.74,-36.26 -20.97,-73.9 -37.26,-111.78 115.54,-48.82 196.63,-163.19 196.63,-296.54 0,-177.74 -144.07,-321.78 -321.78,-321.78 -124.55,0 -232.56,70.75 -286.05,174.27 -49.51,-33.57 -104.49,-65.69 -168.67,-95.78 -124.78,-58.49 -284.39,-109.37 -457.06,-152.6 -172.65,-43.24 -358.38,-78.85 -535.88,-101.73 -177.5,-22.89 -346.77,-33.08 -508.32,-41.72 -161.54,-8.64 -315.32,-15.76 -414.49,-24.42 -99.14,-8.63 -143.63,-18.82 -193.46,-54.93 -49.8,-36.11 -104.94,-98.17 -156.7,-194.32 -51.75,-96.13 -100.11,-226.35 -127.68,-324.02 -27.56,-97.66 -34.35,-162.78 -32.4,-234.5 1.92,-71.72 12.58,-150.05 26.6,-224.84 14.02,-74.77 31.43,-145.98 55.62,-209.06 24.18,-63.07 55.13,-118 81.73,-151.58 26.61,-33.57 48.86,-45.79 97.21,-52.9 48.37,-7.13 122.86,-9.17 195.88,-6.62 73.04,2.55 144.61,9.66 212.81,23.39 68.2,13.74 133.01,34.1 205.55,42.73 72.54,8.65 152.84,5.6 224.9,-5.08 72.06,-10.67 135.9,-29 183.79,-55.44 47.87,-26.45 79.8,-61.05 95.77,-90.55 15.94,-29.5 15.94,-53.92 9.18,-78.34 -6.77,-24.42 -20.31,-48.82 -39.66,-71.72 -19.34,-22.89 -44.49,-44.25 -71.59,-58.5 -27.07,-14.23 -56.09,-21.35 -97.2,-26.45 -41.11,-5.08 -94.31,-8.14 -128.65,-12.21 -34.34,-4.07 -49.82,-9.15 -56.1,-24.92 -6.29,-15.77 -3.39,-42.22 11.6,-63.59 15,-21.36 42.08,-37.63 93.82,-62.05 51.75,-24.42 128.17,-56.96 194.92,-96.13 66.74,-39.17 123.81,-84.96 162.01,-124.13 38.21,-39.17 57.57,-71.72 64.33,-109.37 6.78,-37.63 0.98,-80.36 -16.93,-113.44 -17.89,-33.05 -47.87,-56.45 -84.15,-75.27 -36.27,-18.81 -78.82,-33.07 -120.9,-37.15 -42.09,-4.05 -83.68,2.04 -128.66,13.24 -44.98,11.19 -93.35,27.46 -142.19,45.27 -48.85,17.8 -98.19,37.14 -137.85,56.47 -39.66,19.32 -69.64,38.66 -92.85,45.26 -23.22,6.62 -39.67,0.52 -51.76,-18.81 -12.08,-19.33 -19.82,-51.89 -32.88,-98.18 -13.06,-46.29 -31.43,-106.31 -54.18,-159.21 -22.72,-52.9 -49.82,-98.68 -73.99,-131.24 -24.18,-32.55 -45.46,-51.88 -70.13,-62.57 -24.66,-10.69 -52.71,-12.71 -78.83,-3.06 -26.12,9.68 -50.3,31.04 -71.59,58.51 -21.27,27.46 -39.66,61.04 -59.49,104.78 -19.82,43.75 -41.11,97.67 -52.22,150.57 -11.13,52.91 -12.1,104.79 -10.66,160.23 1.45,55.45 5.33,114.46 -1.44,155.66 -6.77,41.2 -24.19,64.6 -57.55,83.42 -33.38,18.82 -82.7,33.07 -118.49,31.03 -35.8,-2.03 -58.05,-20.34 -82.72,-61.05 -24.65,-40.69 -51.74,-103.76 -85.59,-159.2 -33.85,-55.44 -74.49,-103.27 -121.4,-148.03 -46.91,-44.75 -100.12,-86.47 -133.98,-107.85 -33.85,-21.35 -48.37,-22.37 -73.99,-14.23 -25.63,8.14 -62.4,25.43 -81.74,50.36 -19.35,24.93 -21.28,57.47 -23.22,99.19 -1.93,41.71 -3.87,92.59 -2.89,141.42 0.96,48.83 4.83,95.62 14.51,136.82 9.67,41.2 25.14,76.81 42.06,108.87 16.93,32.05 35.32,60.52 52.24,97.65 16.93,37.13 32.41,82.93 48.38,127.69 15.95,44.76 32.39,88.5 35.78,120.04 3.39,31.54 -6.28,50.87 -22.73,63.08 -16.45,12.21 -39.66,17.3 -60.94,10.69 -21.28,-6.62 -40.63,-24.93 -57.07,-46.81 -16.44,-21.88 -29.98,-47.31 -51.75,-69.69 -21.77,-22.38 -51.75,-41.7 -85.12,-57.48 -33.38,-15.76 -70.13,-27.98 -106.41,-33.06 -36.27,-5.08 -72.06,-3.06 -98.66,0.51 -26.61,3.57 -44.02,8.65 -79.33,31.02 -35.3,22.39 -88.49,62.07 -126.23,104.8 -37.72,42.73 -59.97,88.51 -77.38,123.6 -17.41,35.1 -29.98,59.52 -49.81,70.7 -19.83,11.19 -46.92,9.16 -85.13,-36.62 -38.21,-45.79 -87.54,-135.3 -121.87,-214.15 -34.34,-78.85 -53.68,-147.01 -53.21,-233.98 0.48,-87 20.81,-192.8 30.96,-288.94 10.16,-96.14 10.16,-182.61 -11.6,-252.3 -21.78,-69.68 -65.31,-122.59 -109.8,-155.66 -44.5,-33.06 -89.96,-46.28 -140.74,-45.78 -50.79,0.51 -106.89,14.76 -153.81,44.77 -46.91,30 -84.63,75.8 -112.19,115.46 -27.57,39.68 -44.99,73.26 -71.11,95.12 -26.11,21.89 -60.93,32.05 -94.3,27.48 -33.37,-4.58 -65.3,-23.91 -89.97,-52.91 -24.66,-28.99 -42.07,-67.66 -74.48,-103.25 -32.4,-35.61 -79.8,-68.17 -130.1,-95.13 -50.29,-26.96 -103.51,-48.32 -158.15,-55.94 -54.65,-7.64 -110.75,-1.53 -144.61,18.82 -33.86,20.34 -45.47,54.93 -46.92,95.62 -1.45,40.69 7.26,87.49 28.06,147.51 20.79,60.03 53.68,133.28 82.22,198.9 28.52,65.62 52.72,123.61 66.74,183.63 14.02,60.02 17.9,122.08 11.61,159.72 -6.29,37.64 -22.73,50.86 -64.82,60.02 -42.08,9.17 -109.78,14.25 -166.36,26.97 -56.6,12.71 -102.05,33.06 -128.17,54.42 -26.12,21.37 -32.89,43.75 -36.27,72.24 -3.4,28.49 -3.4,63.07 2.41,89.01 5.79,25.94 17.41,43.24 48.84,67.66 31.44,24.42 82.71,55.96 142.68,79.35 59.98,23.41 128.66,38.66 257.79,45.28 129.13,6.61 318.73,4.57 466.73,23.91 147.98,19.32 254.4,60.02 319.68,86.97 65.3,26.97 89.48,40.2 102.05,64.61 12.58,24.41 13.55,60.01 2.42,87.49 -11.12,27.47 -34.34,46.79 -77.87,64.6 -43.52,17.8 -107.36,34.09 -164.44,53.92 -57.06,19.84 -107.38,43.25 -164.45,73.75 -57.06,30.53 -120.91,68.18 -184.25,109.88 -63.37,41.72 -126.25,87.5 -181.86,135.31 -55.62,47.82 -103.99,97.67 -141.22,147.51 -37.24,49.86 -63.36,99.71 -77.39,146.51 -14.03,46.79 -15.95,90.53 -12.09,131.74 3.87,41.2 13.54,79.87 33.37,116.49 19.83,36.63 49.82,71.21 90.92,106.82 41.11,35.61 93.35,72.23 155.74,103.76 62.38,31.54 134.94,58 218.61,74.27 83.67,16.27 178.47,22.39 273.26,20.86 94.79,-1.52 189.59,-10.68 257.79,-12.72 68.19,-2.03 109.8,3.05 150.41,22.89 40.63,19.84 80.3,54.43 118.02,117.5 37.72,63.09 73.52,154.64 95.77,284.87 22.25,130.22 30.95,299.1 38.68,530.54 7.74,231.46 14.51,525.47 16.44,744.2 1.95,218.73 -0.97,362.17 -1.93,546.82 -0.96,184.65 0,410.5 1.93,654.16 1.95,243.65 4.84,505.11 45.46,668.91z"/>
    <ellipse class="fil1 str0" cx="2100.79" cy="4373.81" rx="81.82" ry="80.77"/>
    <circle class="fil2 str0" cx="3018.54" cy="3593.92" r="175"/>
   </g>
   <g>
    <path class="fil0 str0" d="M18048.09 2237.7c202.97,0 367.51,159.51 367.51,356.27 0,126.8 -68.33,238.1 -171.23,301.24l0 386.7 401.16 -265.09c74.84,-49.46 170.64,-19.45 214.62,65.82l0.01 0.01c43.99,85.28 17.32,196.21 -57.51,245.65l-558.28 368.94 0 290.25 401.16 -265.09c74.84,-49.46 170.65,-19.43 214.62,65.82l0.01 0.02c43.99,85.27 17.32,196.2 -57.51,245.64l-556.92 368.04 537.38 303.88 547.31 309.5 4.14 -2.31 50.44 -653.17c6.77,-87.55 92.49,-165.4 190.69,-171.11l0.02 0c98.18,-5.72 172.87,59.71 166.11,147.27l-36.25 469.35 259.31 -145.13 50.44 -653.17c6.77,-87.54 92.49,-165.39 190.69,-171.11l0.02 0c98.18,-5.72 172.86,59.72 166.11,147.28l-36.25 469.35 358.34 -200.56c104.65,-58.58 232.14,-36.19 283.32,49.73l10.19 17.12c51.18,85.93 7.4,204.16 -97.24,262.72l-358.31 200.56 437.39 204.24c81.61,38.11 102.7,133.54 48.51,213.1l-0.01 0.02c-54.18,79.58 -166.61,112.64 -248.2,74.54l-608.73 -284.24 -259.29 145.13 437.4 204.25c81.61,38.1 102.69,133.55 48.51,213.1l-0.01 0.01c-54.18,79.57 -166.62,112.65 -248.2,74.55l-608.72 -284.25 -12.72 7.12 0 603.07 0 603.05 12.73 7.12 608.71 -284.23c81.6,-38.1 194.01,-5.05 248.2,74.52l0.02 0.02c54.21,79.57 33.09,174.99 -48.52,213.1l-437.41 204.26 259.3 145.13 608.73 -284.24c81.6,-38.09 194.01,-5.05 248.21,74.53l0.01 0.02c54.2,79.57 33.1,174.98 -48.51,213.1l-437.41 204.25 358.33 200.55c104.65,58.58 148.4,176.8 97.23,262.73l-10.19 17.12c-51.18,85.92 -178.69,108.29 -283.32,49.72l-358.32 -200.54 36.23 469.33c6.76,87.57 -67.94,152.99 -166.11,147.28l-0.02 0c-98.18,-5.7 -183.94,-83.56 -190.69,-171.1l-50.44 -653.18 -259.29 -145.12 36.23 469.34c6.77,87.56 -67.97,152.99 -166.1,147.27l-0.03 0.01c-98.18,-5.71 -183.94,-83.57 -190.69,-171.11l-50.44 -653.18 -4.13 -2.31 -547.32 309.51 -537.37 303.88 556.91 368.04c74.83,49.46 101.51,160.35 57.51,245.65l0.01 0.01c-43.99,85.3 -139.79,115.28 -214.64,65.83l-401.16 -265.11 0.01 290.26 558.27 368.94c74.83,49.46 101.51,160.35 57.52,245.65l-0.01 0.02c-43.98,85.28 -139.77,115.27 -214.62,65.81l-401.16 -265.1 0 401.12c0,117.16 -83.74,212.99 -186.1,212.99l-20.38 0c-102.35,0 -186.09,-95.87 -186.09,-212.99l0 -401.1 -401.16 265.09c-74.84,49.46 -170.64,19.44 -214.62,-65.82l-0.01 -0.02c-44,-85.28 -17.32,-196.22 57.51,-245.65l558.28 -368.94 0.01 -290.25 -401.17 265.1c-74.84,49.46 -170.65,19.41 -214.62,-65.83l-0.01 -0.01c-43.99,-85.28 -17.32,-196.21 57.51,-245.65l556.92 -368.04 -537.38 -303.88 -547.31 -309.5 -4.14 2.31 -50.44 653.17c-6.77,87.55 -92.49,165.4 -190.69,171.11l-0.02 0c-98.18,5.72 -172.87,-59.71 -166.11,-147.27l36.25 -469.35 -259.31 145.13 -50.44 653.17c-6.77,87.55 -92.49,165.39 -190.69,171.11l-0.02 0c-98.18,5.72 -172.86,-59.72 -166.11,-147.28l36.25 -469.34 -358.34 200.55c-104.65,58.58 -232.14,36.19 -283.32,-49.73l-10.19 -17.12c-51.18,-85.93 -7.4,-204.16 97.24,-262.72l358.31 -200.56 -437.39 -204.24c-81.61,-38.11 -102.7,-133.54 -48.51,-213.1l0.01 -0.02c54.18,-79.58 166.61,-112.64 248.2,-74.54l608.73 284.24 259.29 -145.13 -437.4 -204.25c-81.61,-38.1 -102.69,-133.55 -48.51,-213.1l0.01 -0.01c54.18,-79.57 166.62,-112.65 248.2,-74.55l608.72 284.25 12.72 -7.12 0 -603.06 0 -603.05 -12.73 -7.13 -608.71 284.23c-81.6,38.1 -194.01,5.05 -248.2,-74.52l-0.02 -0.02c-54.21,-79.57 -33.09,-174.98 48.52,-213.1l437.41 -204.25 -259.3 -145.14 -608.73 284.24c-81.6,38.09 -194.01,5.05 -248.21,-74.53l-0.01 -0.02c-54.2,-79.57 -33.1,-174.98 48.51,-213.1l437.41 -204.25 -358.33 -200.55c-104.65,-58.58 -148.4,-176.8 -97.23,-262.73l10.19 -17.12c51.18,-85.92 178.69,-108.28 283.32,-49.72l358.32 200.55 -36.23 -469.34c-6.76,-87.57 67.94,-152.99 166.11,-147.28l0.02 0c98.18,5.7 183.94,83.57 190.69,171.1l50.44 653.18 259.29 145.12 -36.23 -469.34c-6.77,-87.56 67.97,-152.99 166.1,-147.27l0.03 -0.01c98.18,5.71 183.94,83.57 190.69,171.11l50.44 653.18 4.13 2.31 547.32 -309.51 537.38 -303.88 -556.92 -368.04c-74.83,-49.46 -101.5,-160.35 -57.52,-245.64l0.01 -0.02c43.98,-85.29 139.79,-115.27 214.62,-65.82l401.16 265.1 0 -290.26 -558.27 -368.94c-74.83,-49.46 -101.51,-160.35 -57.52,-245.64l0.02 -0.02c43.97,-85.29 139.77,-115.28 214.6,-65.82l401.17 265.1 0 -386.72c-102.89,-63.14 -171.22,-174.44 -171.22,-301.23 0,-196.76 164.54,-356.27 367.51,-356.27z"/>
    <ellipse class="fil2 str0" cx="18048.09" cy="2588.85" rx="186.2" ry="180.51"/>
   </g>
   <g>
    <path class="fil0 str0" d="M25098.72 1987.69c219.93,0 398.24,151.95 398.24,339.41 0,96.16 -46.92,182.96 -122.3,244.72l1605.35 0c408.86,0 743.38,285.1 743.38,633.57l0 995.62c0,348.46 -334.52,633.56 -743.38,633.56l-47.59 0 1267.98 1273.93c320.92,322.43 273.96,810.01 -104.35,1083.53 -342.02,247.27 -842.39,238.25 -1172.39,-3.99l0 694.49c0,882.84 -847.51,1605.16 -1883.37,1605.16l-0.01 0c-1035.86,0 -1883.38,-722.32 -1883.38,-1605.16l0 -3047.96c-408.87,0 -743.39,-285.1 -743.39,-633.56l0 -995.62c0,-348.47 334.52,-633.57 743.39,-633.57l1665.87 0c-75.37,-61.76 -122.29,-148.56 -122.29,-244.72 0,-187.46 178.3,-339.41 398.24,-339.41z"/>
    <circle class="fil2 str0" cx="25099.22" cy="2313.18" r="190"/>
   </g>
   <g>
    <path class="fil0 str0" d="M11486.37 2895.72l999.26 1023.32 787.15 806.1c78.45,80.34 104.48,202.29 67.4,315.73 -37.08,113.43 -126.32,184.83 -231.03,184.83l-654.82 0 205.5 210.44 894.62 916.17c89.16,91.31 118.75,229.9 76.61,358.83 -42.15,128.92 -143.57,210.06 -262.57,210.06l-826.09 0 450.05 460.89 1099.83 1126.31c109.61,112.25 146,282.64 94.18,441.12 -51.81,158.51 -176.49,258.26 -322.79,258.26l-2653.98 0 -2653.98 0c-146.3,0 -270.98,-99.75 -322.79,-258.26 -51.82,-158.48 -15.43,-328.87 94.18,-441.12l1099.83 -1126.31 450.05 -460.89 -826.09 0c-119,0 -220.42,-81.14 -262.57,-210.06 -42.14,-128.93 -12.55,-267.52 76.61,-358.83l894.62 -916.17 205.5 -210.44 -654.82 0c-104.71,0 -193.95,-71.4 -231.03,-184.83 -37.08,-113.44 -11.05,-235.39 67.4,-315.73l787.15 -806.1 999.26 -1023.32c-61.06,-66.7 -98.32,-155.55 -98.32,-253.11 0,-207.12 167.89,-374.99 375,-374.99 207.11,0 375,167.87 375,374.99 0,97.56 -37.26,186.41 -98.32,253.11z"/>
    <circle class="fil2 str0" cx="11209.69" cy="2624.06" r="190"/>
   </g>
  </g>
 </g>
</svg>
