<svg  width="200" height="250"
         viewBox="0 0 180 300" 
xmlns="http://www.w3.org/2000/svg" xmlns:ev="http://www.w3.org/2001/xml-events" xmlns:xlink="http://www.w3.org/1999/xlink">


<rect x="20" y="10" height="225" width="180" rx="25" ry="25"   stroke="#0033a0" stroke-width="20" fill="none" ></rect>



<rect x="150" y="-10" height="75" width="170" rx="25" ry="25"  stroke="#0033a0" stroke-width="20" fill="none" ></rect>
<rect x="170" y="-40" height="85" width="170" rx="20" ry="2"  stroke-width="20" stroke="white" fill="white" ></rect>

<rect x="150" y="3" height="155" width="17" rx="0" ry="0"  stroke="#0033a0"  fill="#0033a0" transform="rotate(-45 125 25)"></rect>

<rect x="45" y="35" height="20" width="20"  stroke="#fa2a4a" stroke-width="5.5" fill="white" ></rect>
<rect x="62.5" y="41.5" height="7" width="5.5"  stroke="white" fill="white"></rect>
<path  d="M1 15 L10 23 L24 8" stroke="#fa2a4a" stroke-width="4" fill="none" transform="translate(51,26)" stroke-linecap="round" stroke-linejoin="round"></path>
<rect x="75" y="45" height="10" width="70"  stroke="#0033a0"  fill="#0033a0" ></rect>

<rect x="45" y="75" height="20" width="20"  stroke="#fa2a4a" stroke-width="5.5" fill="white" ></rect>
<rect x="62.5" y="81.5" height="7" width="5.5"  stroke="white" fill="white"></rect>
<path  d="M1 15 L10 23 L24 8" stroke="#fa2a4a" stroke-width="4" fill="none" transform="translate(51,66)" stroke-linecap="round" stroke-linejoin="round"></path>
<rect x="75" y="85" height="10" width="100"  stroke="#0033a0"  fill="#0033a0" ></rect>

<rect x="45" y="115" height="20" width="20"  stroke="#fa2a4a" stroke-width="5.5" fill="white" ></rect>
<rect x="62.5" y="121.5" height="7" width="5.5"  stroke="white" fill="white"></rect>
<path  d="M1 15 L10 23 L24 8" stroke="#fa2a4a" stroke-width="4" fill="none" transform="translate(51,106)" stroke-linecap="round" stroke-linejoin="round"></path>
<rect x="75" y="125" height="10" width="100"  stroke="#0033a0"  fill="#0033a0" ></rect>

<rect x="45" y="155" height="20" width="20"  stroke="#fa2a4a" stroke-width="5.5" fill="white" ></rect>
<rect x="75" y="165" height="10" width="100"  stroke="##0033a0  "  fill="#0033a0" ></rect>

<rect x="45" y="195" height="20" width="20"  stroke="#fa2a4a" stroke-width="5.5" fill="white" ></rect>
<rect x="75" y="205" height="10" width="100"  stroke="##0033a0"  fill="#0033a0" ></rect>


</svg>

   