<?xml version="1.0" encoding="UTF-8"?>
<!DOCTYPE svg PUBLIC "-//W3C//DTD SVG 1.1//EN" "http://www.w3.org/Graphics/SVG/1.1/DTD/svg11.dtd">
<!-- Creator: CorelDRAW 2021.5 -->
<svg xmlns="http://www.w3.org/2000/svg" xml:space="preserve" width="850px" height="850px" version="1.1" style="shape-rendering:geometricPrecision; text-rendering:geometricPrecision; image-rendering:optimizeQuality; fill-rule:evenodd; clip-rule:evenodd"
viewBox="0 0 850 850"
 xmlns:xlink="http://www.w3.org/1999/xlink"
 xmlns:xodm="http://www.corel.com/coreldraw/odm/2003">
 <defs>
  <style type="text/css">
   <![CDATA[
    .str0 {stroke:black;stroke-width:8;stroke-miterlimit:22.9256}
    .str1 {stroke:black;stroke-width:10;stroke-miterlimit:22.9256}
    .fil1 {fill:none}
    .fil2 {fill:black}
    .fil3 {fill:black}
    .fil4 {fill:#5F5F5F}
    .fil0 {fill:black;fill-rule:nonzero}
   ]]>
  </style>
 </defs>
 <g id="Слой_x0020_1">
  <metadata id="CorelCorpID_0Corel-Layer"/>
  <g id="_2211783127200">
   <path class="fil0" d="M376.44 468.34c3.22,0.63 6.5,1.01 9.85,1.14l0.34 -1.14c0.46,-1.27 1.64,-5.13 3.54,-11.59 1.9,-6.45 4.53,-15.64 7.87,-27.54 2.65,-9.24 5.01,-17.06 7.08,-23.46 2.07,-6.39 3.8,-11.43 5.19,-15.1 6.68,-17.09 15.78,-29 27.3,-35.71 -1.85,-0.63 -4.15,-1.08 -6.91,-1.33 -10.95,-0.25 -20.16,7.73 -27.65,23.94 -2.31,5.19 -4.67,11.52 -7.09,18.99 -2.42,7.47 -4.78,16.15 -7.08,26.02 -5.19,22.04 -9.33,37.3 -12.44,45.78zm-24.2 39.13c1.62,1.27 3.17,2.47 4.67,3.61 1.5,1.14 2.99,2.22 4.49,3.23 3,-0.51 7.32,-5.89 12.96,-16.15 4.84,-8.86 8.47,-17.22 10.89,-25.07 -1.84,-0.13 -3.63,-0.25 -5.36,-0.38 -1.73,-0.13 -3.4,-0.32 -5.01,-0.57 -6.1,14.82 -13.65,26.59 -22.64,35.33zm126.15 -131.25c0,27.47 -8.18,50.39 -24.54,68.76 -16.01,17.98 -35.54,27.41 -58.58,28.3 -1.61,4.94 -3.48,9.72 -5.61,14.34 -2.14,4.62 -4.47,9.15 -7,13.58 -5.19,8.74 -9.85,14.5 -14,17.29 32.49,16.08 56.62,24.12 72.4,24.12 15.33,0 22.99,-5.38 22.99,-16.14 0,-3.04 -1.1,-6.02 -3.29,-8.93 -0.92,-1.4 -1.87,-2.72 -2.85,-3.99 -0.98,-1.27 -1.93,-2.53 -2.85,-3.8 -0.23,-0.76 -0.34,-1.27 -0.34,-1.52 0,-0.76 0.34,-1.14 1.03,-1.14 0.35,0 0.81,0.19 1.39,0.57 7.83,6.71 11.75,12.85 11.75,18.43 0,17.09 -11.41,25.64 -34.22,25.64 -11.98,0 -24.42,-3.04 -37.32,-9.12 -0.7,-0.25 -3.92,-2.02 -9.68,-5.32 -5.76,-3.29 -14.17,-8.04 -25.23,-14.24 -11.52,8.1 -22.7,12.28 -33.53,12.53 -9.33,0.26 -18.14,-1.26 -26.43,-4.56 -9.22,-3.67 -16.07,-8.73 -20.57,-15.19 -4.37,-6.33 -6.56,-13.99 -6.56,-22.99 0,-10.38 2.82,-17.85 8.46,-22.41 6.34,-5.44 14.92,-4.81 25.75,1.9 2.31,1.52 5.04,3.51 8.21,5.98 3.17,2.47 6.77,5.48 10.8,9.03 6.22,5.31 11.06,9.49 14.51,12.53 3.46,3.04 5.65,4.88 6.57,5.51 7.84,-7.98 14.57,-19.44 20.22,-34.38 -13.82,-3.17 -24.54,-9.81 -32.14,-19.94 -6.8,-9.25 -10.2,-19.95 -10.2,-32.11 0,-10 2.42,-19.69 7.26,-29.06 4.95,-9.24 11.87,-16.65 20.74,-22.22 0.23,-0.13 0.52,-0.19 0.86,-0.19 1.15,0 1.73,0.63 1.73,1.9 0,0.63 -0.29,1.14 -0.87,1.52 -7.6,4.56 -13.59,11.14 -17.97,19.75 -4.03,7.85 -6.04,16.34 -6.04,25.45 0,11.78 3.16,22.17 9.5,31.16 6.8,9.87 16.36,16.46 28.68,19.75 1.16,-3.16 2.83,-8.61 5.02,-16.33 2.19,-7.73 4.89,-17.86 8.12,-30.4 2.53,-9.75 5.1,-18.36 7.69,-25.83 2.59,-7.47 5.33,-13.87 8.21,-19.18 8.52,-16.21 18.6,-24.19 30.24,-23.94 1.84,0.13 3.54,0.35 5.09,0.67 1.56,0.31 3.03,0.79 4.41,1.42 6.22,-2.91 12.85,-4.37 19.87,-4.37 5.19,0 9.68,3.17 13.48,9.5 3.23,5.57 4.84,11.46 4.84,17.67zm-7.43 0.94c0,-15.7 -4.15,-23.55 -12.44,-23.55 -3.57,0 -7.55,1.65 -11.93,4.94 3.35,4.31 5.02,9.69 5.02,16.15 0,7.21 -2.08,14.12 -6.23,20.7 -4.49,7.22 -10.59,12.41 -18.31,15.58 -0.69,0.25 -1.15,0.06 -1.38,-0.57 -0.24,-0.64 -0.06,-1.14 0.51,-1.52 6.8,-3.42 12.27,-8.68 16.42,-15.77 3.92,-6.58 5.88,-13.3 5.88,-20.13 0,-5.32 -1.27,-9.63 -3.81,-12.92 -8.18,6.96 -15.15,17.16 -20.91,30.58 -3.22,7.6 -6.68,16.46 -10.36,26.59 -3.69,10.13 -7.61,21.72 -11.75,34.77l-5.53 17.28c21.08,-1.14 38.93,-11.08 53.56,-29.82 14.17,-18.24 21.26,-39 21.26,-62.31zm-117.85 142.47c-1.15,-0.76 -2.42,-1.65 -3.8,-2.66 -1.39,-1.01 -2.88,-2.15 -4.5,-3.42 -8.52,5.95 -17.45,8.93 -26.78,8.93 -4.49,0 -9.16,-0.7 -14,-2.09 -0.46,-0.13 -0.75,-0.38 -0.86,-0.76 -0.23,-0.51 -0.23,-0.89 0,-1.14 0.23,-0.38 0.52,-0.51 0.86,-0.38 2.31,0.5 4.55,0.88 6.74,1.14 2.19,0.25 4.32,0.38 6.39,0.38 9.34,0 17.75,-2.6 25.23,-7.79 -4.03,-3.17 -8.03,-6.33 -12.01,-9.5 -3.97,-3.16 -7.97,-6.33 -12.01,-9.5 -11.52,-8.1 -20.27,-12.15 -26.26,-12.15 -8.07,0 -12.1,4.3 -12.1,12.91 0,5.07 1.73,10.7 5.19,16.91 3.45,6.08 8.58,10.76 15.38,14.06 6.22,3.16 13.36,4.75 21.42,4.75 11.75,0 22.12,-3.23 31.11,-9.69z"/>
   <path class="fil0" d="M510.73 551.66c0.13,-1.39 0.19,-2.75 0.19,-4.08 0,-1.33 0,-2.69 0,-4.08 0,-21.91 -5.51,-40.08 -16.53,-54.52 -11.14,8.48 -16.71,17.66 -16.71,27.54 0,12.41 8.99,23.05 26.97,31.91 1.9,0.89 3.93,1.97 6.08,3.23zm-11.97 -65.72c10.77,13.93 16.15,31.79 16.15,53.57 0,2.4 -0.1,4.78 -0.29,7.12 -0.19,2.34 -0.41,4.65 -0.66,6.93 15.83,9.75 23.74,20.26 23.74,31.53 0,10.77 -6.96,21.03 -20.89,30.78 -12.67,8.86 -27.23,14.56 -43.69,17.09 -7.85,1.14 -15.2,1.71 -22.04,1.71 -13.93,0 -24.94,-2.34 -33.05,-7.03 -7.6,-4.56 -11.39,-10.38 -11.39,-17.47 0,-6.08 2.72,-12.03 8.16,-17.86 4.44,-4.81 12.35,-9.69 23.75,-14.62 12.53,-5.32 23.87,-7.98 34,-7.98 6.58,0 12.03,1.2 16.33,3.61 0.89,0.5 1.33,0.95 1.33,1.33 0,1.01 -1.33,1.2 -3.99,0.57 -3.16,-0.64 -6.33,-0.95 -9.49,-0.95 -9.88,0 -20.77,2.4 -32.67,7.21 -5.58,2.28 -10.23,4.66 -13.97,7.13 -3.73,2.47 -6.74,4.91 -9.02,7.31 -2.28,2.41 -3.92,4.78 -4.94,7.12 -1.01,2.35 -1.52,4.53 -1.52,6.56 0,5.32 3.14,9.4 9.41,12.25 6.26,2.85 14.97,4.27 26.11,4.27 3.68,0 7.44,-0.15 11.31,-0.47 3.86,-0.32 7.88,-0.79 12.06,-1.43 15.83,-2.4 28.49,-7.4 37.99,-15 8.74,-6.97 13.1,-15.01 13.1,-24.13 0,-8.35 -3.98,-16.14 -11.96,-23.36 -3.29,16.21 -9.56,29.51 -18.81,39.89 -10.38,11.52 -23.11,17.86 -38.18,18.99 -0.63,0.13 -1.07,-0.18 -1.33,-0.95 0,-0.63 0.38,-1.07 1.14,-1.32 15.33,-1.14 27.8,-7.48 37.42,-19 8.74,-10.26 14.38,-23.62 16.91,-40.08 -1.39,-1.01 -2.85,-2.06 -4.37,-3.13 -1.52,-1.08 -3.17,-2.12 -4.94,-3.14 -10,-5.44 -17.16,-10.25 -21.46,-14.43 -7.22,-6.84 -10.83,-14.38 -10.83,-22.61 0,-11.39 7.28,-22.09 21.84,-32.1 -10.13,-10.51 -22.16,-15.77 -36.09,-15.77 -8.1,0 -16.14,1.9 -24.12,5.7 -6.33,2.92 -11.33,7.6 -15.01,14.06 -3.67,6.58 -5.51,13.23 -5.51,19.94 0,5.58 1.27,10.39 3.8,14.44 4.69,7.35 11.78,11.02 21.28,11.02 8.48,0 14.94,-3.23 19.37,-9.69 0.38,-0.51 0.83,-0.7 1.33,-0.57 0.51,0.13 0.76,0.51 0.76,1.14 0,3.04 -2.91,5.76 -8.74,8.17 -5.31,2.15 -9.68,3.23 -13.1,3.23 -10.39,0 -18.24,-3.99 -23.56,-11.97 -2.65,-4.31 -3.98,-9.37 -3.98,-15.2 0,-7.21 2.02,-14.37 6.07,-21.46 4.18,-7.09 9.63,-12.16 16.34,-15.2 8.86,-4.17 17.92,-6.26 27.16,-6.26 15.45,0 28.3,5.19 38.56,15.57 15.07,-9.37 28.94,-14.75 41.6,-16.14 0.76,-0.13 1.52,-0.19 2.28,-0.19 0.76,0 1.46,0 2.09,0 12.79,0 20.01,4.62 21.65,13.86 0.13,0.51 0.13,1.21 0,2.09 -0.12,0.63 -0.19,1.2 -0.19,1.71 0,0.38 0.19,0.44 0.57,0.19 0.64,-0.51 1.3,-0.95 2,-1.33 0.7,-0.38 1.49,-0.82 2.37,-1.33 2.66,-0.12 3.99,0.83 3.99,2.85 0,2.41 -1.07,5.07 -3.23,7.98 -9.37,10.13 -15.13,15.19 -17.28,15.19 -0.64,0 -0.95,-0.37 -0.95,-1.13 0,-2.03 1.96,-6.78 5.89,-14.25 1.52,-3.04 2.28,-5.7 2.28,-7.98 0,-6.33 -5.32,-9.5 -15.96,-9.5 -1.01,0 -2.03,0.04 -3.04,0.1 -1.01,0.06 -2.09,0.16 -3.23,0.28 -13.42,1.27 -25.64,5.45 -36.66,12.54z"/>
   <circle class="fil1 str0" cx="425.15" cy="492.77" r="189.86"/>
   <circle class="fil1 str1" transform="matrix(1.03968 -0.0476256 0.0476256 1.03968 425.147 492.773)" r="197.26"/>
   <path class="fil2" d="M293.91 280.33l0.72 0c1.92,-12.6 10.59,-8.88 16.79,-18.96 4.08,-6.63 2.54,-11.05 4.93,-16.73 4.97,-11.82 21.91,-22 36.02,-10.79 -4.51,2.19 -22.57,3.99 -26.51,21.95 -1.17,5.31 -1.31,10 1.46,14.26 4.34,6.66 17.63,8.95 22.58,1.46 4.58,-6.95 -0.37,-14.39 -7.54,-13.02 -0.88,0.17 -1.97,0.54 -2.75,1.07 -1.3,0.89 -0.35,1 -2.89,2.14 -0.72,-5.64 -2.11,-6.97 0.43,-12.93 4.28,-10.06 12.62,-8.8 23.33,1.93 14.07,14.1 56,10.89 42.59,6.41 -13.41,-4.47 -14.54,0.87 -21.98,-1.13 -10.71,-2.88 -16.49,-6.76 -20.42,-18.71 -13.05,-18.68 -42.85,-22.33 -62.6,-13.14 -6.06,2.82 -10.87,5.72 -14.54,9.9 -2.62,2.99 -1.36,0.79 -5.78,6.43 -14.52,18.5 -36.56,-3.58 -27.89,-15.66 2.08,1.11 2.22,2.45 5.18,3.08 7.55,1.63 12.28,-6.45 7.88,-12.82 -5.24,-7.6 -17.52,-5.47 -22.44,0.92 -5.41,7.04 -1.25,20.33 3.53,25.22 11.32,11.58 17.64,8.98 21.08,11.36 -0.16,0.23 0.08,0.19 -0.97,0.81 -0.59,0.35 -0.63,0.3 -1.19,0.58 -0.83,0.43 -1.36,0.71 -2.16,1.19 -12.51,7.58 -27.81,-3.79 -31.63,-13.52 -1.59,-4.07 -1.42,-7.85 -2.61,-11.82 -2.49,-8.28 -7.67,-10.67 -14.33,-14.55 -3.83,-2.24 -2.88,-5.07 -5.09,-8.9 -10.22,5.32 -6.25,28.75 3.65,37 1.39,1.15 1.85,2.13 3.37,3.29 4.01,3.08 7.72,4.94 12.52,6.92l14.88 5.12c1.19,0.4 3.43,0.82 4.32,1.65 -4.99,2.3 -21.59,1.69 -27.27,0.19 -13.2,-3.49 -16.45,-10.98 -18.9,-11.7 1.88,5.05 7.66,10.51 12.07,13.54 17.02,11.74 41.42,9.42 58.39,-0.63 8.66,-5.13 13.5,-10.8 19.25,-18.52 1.15,-1.54 1.69,-1.77 3.02,-3.07 1.16,-1.14 1.62,-1.87 2.93,-3.17 8.59,-8.5 25.05,-13.26 37.84,-10.99 -2.7,1.77 -15.13,5.17 -19.61,7 -6.32,2.57 -12.72,6.33 -15.96,10.12 -7.95,9.35 -14.04,26.28 -5.17,35.72l1.47 1.5z"/>
   <g>
    <path class="fil3" d="M218.94 715.58c3.93,-0.18 27.05,8.96 31.83,11.2 10.48,4.92 25.24,4.32 36.94,4.77 11.18,0.42 74.29,-5.59 76.1,-16.84 -7.49,-3.82 -62.93,11.01 -102.68,-9.39 -15.71,-8.06 -21.09,-18.87 -30,-32.27 -4.12,-6.2 -7.21,-18.79 -5.67,-25.91 0.65,-2.99 1.36,-10.01 3.17,-11.39 1.08,-0.83 7.19,-7.18 7.32,-7.12 2.47,2.59 1.45,25.05 19.14,10.87 3.43,-2.75 5.04,-9.41 4.13,-13.97 -1.22,-6.06 -7.41,-6.04 -11.5,-7.41 -26.16,-8.71 -33.8,34.05 -36.05,36.18 -9.66,-1.11 3.53,-42.34 -2.09,-56.77 -11.63,-29.87 -44.63,-1.85 -46.72,-3.23 -2.13,-3.93 4.07,-44.9 3.08,-54.66 -1.05,-10.29 1.07,-14.64 -0.98,-27.38 -0.83,-5.15 -3.84,-24.09 -8.87,-25.85 -4.92,3.57 -9.59,39.77 -11.8,47.6 -1.65,5.84 -3.99,17.9 -4.52,24.05 -0.98,11.37 3.33,46.62 4.23,55.4 0.9,8.77 0.6,4.59 3.78,12.57 3.18,7.98 12.66,30.65 15.13,33.71 2.95,3.65 12.64,19.41 12.78,19.54 -22.29,-12.78 -41.33,-52.47 -45.67,-77.05 -6.13,-34.69 0.07,-64.86 10.46,-97.73 8.3,-26.29 23.61,-68.47 12.8,-95.12 -6.07,-14.96 -23.73,-23.92 -39.1,-16.99 -14.57,6.57 21.88,0.78 26.68,19.5 7.9,30.81 -8.9,61.88 -19.26,89.95 -11.01,29.83 -15.97,64.52 -13.46,96.11 2.87,36.08 14.18,57.79 39.4,82.77 9.96,9.87 21.07,18.54 33.24,25.5 11.15,6.36 17.71,11.97 29.51,13.58 12.76,1.73 5.82,-1.18 8.65,-4.22z"/>
    <path class="fil3" d="M104.25 457.42c-21.62,3.34 -31.52,11.5 -38.08,31.32 -10.6,32.04 17.65,34.17 25.01,19.59 6.62,-13.11 -4.06,-21.76 1.28,-27.94 8.73,-10.11 16.77,-1.81 22.78,3.33 5.58,4.77 11.79,-14.89 12.64,-18.58 2.38,-10.32 -17.68,-8.64 -23.63,-7.72z"/>
   </g>
   <g>
    <path class="fil3" d="M630.89 715.71c-3.92,-0.18 -27.05,8.96 -31.83,11.2 -10.48,4.92 -25.24,4.32 -36.93,4.77 -11.18,0.42 -74.3,-5.59 -76.11,-16.84 7.49,-3.82 62.94,11.01 102.69,-9.39 15.7,-8.06 21.08,-18.87 29.99,-32.27 4.13,-6.2 7.22,-18.79 5.68,-25.91 -0.65,-2.99 -1.36,-10.01 -3.17,-11.4 -1.09,-0.82 -7.2,-7.17 -7.33,-7.11 -2.47,2.59 -1.45,25.05 -19.13,10.87 -3.44,-2.75 -5.05,-9.41 -4.13,-13.97 1.21,-6.06 7.4,-6.04 11.5,-7.41 26.15,-8.71 33.8,34.05 36.04,36.18 9.66,-1.11 -3.52,-42.34 2.09,-56.77 11.63,-29.87 44.63,-1.85 46.72,-3.23 2.13,-3.93 -4.07,-44.9 -3.08,-54.66 1.05,-10.29 -1.06,-14.64 0.99,-27.38 0.83,-5.15 3.84,-24.09 8.86,-25.85 4.92,3.57 9.59,39.77 11.8,47.6 1.66,5.84 3.99,17.9 4.52,24.05 0.98,11.37 -3.33,46.62 -4.22,55.4 -0.9,8.77 -0.61,4.59 -3.79,12.57 -3.18,7.98 -12.65,30.65 -15.12,33.71 -2.95,3.65 -12.65,19.41 -12.79,19.54 22.29,-12.78 41.33,-52.47 45.67,-77.05 6.13,-34.69 -0.07,-64.86 -10.46,-97.73 -8.3,-26.29 -23.61,-68.47 -12.8,-95.12 6.07,-14.96 23.73,-23.92 39.11,-16.99 14.56,6.57 -21.89,0.78 -26.69,19.5 -7.9,30.81 8.91,61.87 19.27,89.95 11,29.83 15.97,64.52 13.46,96.11 -2.87,36.08 -14.19,57.79 -39.41,82.77 -9.95,9.87 -21.06,18.54 -33.24,25.5 -11.15,6.36 -17.7,11.97 -29.5,13.58 -12.77,1.73 -5.83,-1.18 -8.66,-4.22z"/>
    <path class="fil3" d="M745.59 457.55c21.62,3.34 31.52,11.5 38.07,31.32 10.61,32.04 -17.64,34.17 -25.01,19.59 -6.62,-13.12 4.06,-21.76 -1.28,-27.94 -8.72,-10.11 -16.76,-1.81 -22.78,3.33 -5.58,4.77 -11.79,-14.89 -12.64,-18.58 -2.38,-10.32 17.68,-8.63 23.64,-7.72z"/>
   </g>
   <g>
    <path class="fil2" d="M420.14 224.02l9.7 -0.01c3.61,-12.55 3.58,-14.81 9.36,-27.39 4.44,-9.69 10.39,-15.79 9.12,-27.34 -0.97,-8.79 -6.59,-18.5 -10.73,-26.3l-12.44 -24.51 -12.32 24.35c-4.1,7.86 -9.61,17.14 -10.75,25.95 -1.53,11.84 4.4,17.74 8.97,27.6 6.59,14.24 5.42,14.03 9.09,27.65z"/>
    <path class="fil2" d="M432.87 224.02c13.2,0 6.65,0.9 13.19,-5.29 18.32,-17.33 41.32,-8.9 36.72,13.89 30.38,-8.02 22.92,-43.35 -0.99,-47.62 -11.39,-2.03 -24.91,2.28 -33.33,10.13 -3.84,3.58 -7.5,7.68 -9.89,12.42 -2.34,4.62 -5.25,11.33 -5.7,16.47z"/>
    <path class="fil2" d="M367.52 232.62c-1.23,-6.1 -1.07,-11.08 2.59,-16.35 8.38,-12.04 25.25,-6.12 33.98,2.33 6.71,6.49 0.35,5.43 13.1,5.47 -3.01,-22.93 -24.6,-43.38 -48.68,-39.07 -23.88,4.28 -31.41,39.59 -0.99,47.62z"/>
    <path class="fil2" d="M457.12 233.52c0.96,3.61 2.73,5.75 1.66,10.08 -0.79,3.17 -3.1,5.39 -6.11,6.34 -3.36,1.06 -7.22,0.54 -10.02,-1.5 -2.15,-1.56 -1.06,-2.21 -3.91,-2.18 -1.98,0.02 -3.95,0.01 -5.92,0.01 -0.1,4.62 5.26,11.37 10.57,13.87 6.23,2.94 13.87,2.73 20.02,-0.32 13.1,-6.51 10.07,-26.64 -6.29,-26.3z"/>
    <path class="fil2" d="M417.48 246.27c-10.73,0 -6.29,-0.31 -9.99,2.29 -2.83,1.99 -6.74,2.43 -10.08,1.31 -5.44,-1.83 -6.97,-6.88 -5.74,-12.04 0.35,-1.44 1.27,-3.11 1.51,-4.31 -16.49,-0.34 -19.39,20.04 -6.1,26.39 6.21,2.97 13.79,3.16 20.02,0.14 4.42,-2.14 10.48,-8.69 10.38,-13.78z"/>
    <path class="fil2" d="M418.65 262.88l0.54 -0.25 0.05 0.83c-0.23,3.02 0.72,5.61 2.2,8.17 0.98,1.71 2.72,5.04 3.91,6.06 1.29,-2.26 2.59,-4.56 3.84,-6.86 2.4,-4.4 1.56,-5.6 2.04,-7.22 0.3,-1.01 0.14,-0.49 0.42,-0.81 2.15,2.14 2.69,3.6 6.39,3.63 -3.45,-6.11 -2.73,-9.86 -7.4,-14.18 -1.4,-1.3 -0.71,-3.97 -1.25,-5.78 -0.99,-0.39 -7.21,-0.39 -8.27,-0.01l-0.57 5.6c-2.9,2.66 -3.11,2.76 -4.53,6.73 -1.14,3.19 -1.85,4.88 -3.71,7.7 3.99,-0.35 3.92,-1.28 6.34,-3.61z"/>
    <path class="fil2" d="M406 232.51c-4.75,0.98 -4.21,5.48 -0.01,6.21 1.86,0.33 38.07,0.32 39.71,0 4.51,-0.88 4.09,-5.65 -0.31,-6.27 -2.16,-0.31 -37.83,-0.26 -39.39,0.06z"/>
    <polygon class="fil4" points="419.24,263.46 419.19,262.63 418.65,262.88 "/>
   </g>
   <path class="fil2" d="M555.86 280.33l-0.72 0c-1.92,-12.6 -10.58,-8.88 -16.79,-18.96 -4.08,-6.63 -2.54,-11.05 -4.93,-16.73 -4.96,-11.82 -21.91,-22 -36.02,-10.79 4.51,2.19 22.57,3.99 26.51,21.95 1.17,5.31 1.32,10 -1.46,14.26 -4.33,6.66 -17.63,8.95 -22.57,1.46 -4.59,-6.95 0.36,-14.39 7.54,-13.02 0.87,0.17 1.96,0.54 2.74,1.07 1.3,0.89 0.36,1 2.89,2.14 0.73,-5.64 2.11,-6.97 -0.43,-12.93 -4.28,-10.06 -12.62,-8.8 -23.32,1.93 -14.08,14.1 -56.01,10.89 -42.6,6.41 13.41,-4.47 14.54,0.87 21.98,-1.13 10.71,-2.88 16.49,-6.76 20.42,-18.71 13.06,-18.68 42.85,-22.33 62.6,-13.14 6.06,2.82 10.87,5.72 14.54,9.9 2.62,2.99 1.36,0.79 5.78,6.43 14.52,18.5 36.57,-3.58 27.89,-15.66 -2.07,1.11 -2.22,2.45 -5.18,3.08 -7.54,1.63 -12.28,-6.45 -7.88,-12.82 5.24,-7.6 17.53,-5.47 22.44,0.92 5.41,7.04 1.25,20.33 -3.53,25.22 -11.32,11.58 -17.64,8.98 -21.08,11.36 0.16,0.23 -0.08,0.19 0.97,0.81 0.6,0.35 0.63,0.3 1.19,0.58 0.83,0.43 1.36,0.71 2.16,1.19 12.51,7.58 27.81,-3.79 31.63,-13.52 1.59,-4.07 1.42,-7.85 2.62,-11.82 2.48,-8.28 7.66,-10.67 14.32,-14.55 3.83,-2.24 2.89,-5.07 5.1,-8.9 10.21,5.32 6.24,28.75 -3.66,37 -1.39,1.15 -1.85,2.13 -3.37,3.29 -4.01,3.08 -7.71,4.94 -12.51,6.92l-14.88 5.12c-1.2,0.4 -3.44,0.82 -4.33,1.65 4.99,2.3 21.59,1.69 27.27,0.19 13.2,-3.49 16.46,-10.98 18.9,-11.7 -1.87,5.05 -7.66,10.51 -12.07,13.54 -17.02,11.74 -41.41,9.42 -58.39,-0.63 -8.66,-5.13 -13.5,-10.8 -19.25,-18.52 -1.15,-1.54 -1.69,-1.77 -3.02,-3.07 -1.16,-1.14 -1.62,-1.87 -2.93,-3.17 -8.59,-8.5 -25.05,-13.26 -37.83,-10.99 2.69,1.77 15.12,5.17 19.6,7 6.32,2.57 12.73,6.33 15.96,10.12 7.96,9.35 14.04,26.28 5.17,35.72l-1.47 1.5z"/>
  </g>
 </g>
</svg>
