<?xml version="1.0" encoding="UTF-8"?>
<!DOCTYPE svg PUBLIC "-//W3C//DTD SVG 1.1//EN" "http://www.w3.org/Graphics/SVG/1.1/DTD/svg11.dtd">
<!-- Creator: CorelDRAW 2021.5 -->
<svg xmlns="http://www.w3.org/2000/svg" xml:space="preserve" width="297mm" height="211mm" version="1.1" style="shape-rendering:geometricPrecision; text-rendering:geometricPrecision; image-rendering:optimizeQuality; fill-rule:evenodd; clip-rule:evenodd"
viewBox="0 0 29700 21100"
 xmlns:xlink="http://www.w3.org/1999/xlink"
 xmlns:xodm="http://www.corel.com/coreldraw/odm/2003">
 <defs>
  <style type="text/css">
   <![CDATA[
    .fil2 {fill:black}
    .fil6 {fill:#0199D9}
    .fil4 {fill:#01A551}
    .fil5 {fill:#939598}
    .fil11 {fill:#94989B}
    .fil8 {fill:#B0252B}
    .fil10 {fill:#D1D1D2}
    .fil3 {fill:#EB1C25}
    .fil1 {fill:#FEFEFE}
    .fil7 {fill:#FFC20F}
    .fil9 {fill:white}
    .fil0 {fill:black;fill-rule:nonzero}
   ]]>
  </style>
 </defs>
 <g id="Слой_x0020_1">
  <metadata id="CorelCorpID_0Corel-Layer"/>
  <g id="_2858483148208">
   <path class="fil0" d="M9615 7099.54l-2191.07 0c0,399.77 0,799.53 0,1222.38l784.17 0 0 2344.83c0,430.52 -269.08,645.78 -668.84,645.78 -399.79,0 -714.99,-222.95 -714.99,-645.78l0 -676.54c-430.52,0 -876.43,0 -1299.26,0l0 699.61c0,1176.25 907.19,1852.78 2014.25,1852.78 1107.06,0 2075.74,-676.53 2075.74,-1852.78l0 -3590.28z"/>
   <path class="fil0" d="M17589.43 7150.52l-2029.63 0 0 5381.57 2029.63 0c3505.71,-15.38 3505.71,-5366.21 0,-5381.57zm-653.49 1253.13l653.49 0c1714.4,0 1714.4,2875.29 0,2875.29l-653.49 0 0 -2875.29z"/>
   <path class="fil0" d="M26016.23 9747.03c0,-3720.99 -5519.96,-3720.99 -5519.96,0 0,3728.65 5519.96,3728.65 5519.96,0zm-4105.37 0c0,-1937.37 2698.47,-1937.37 2698.47,0 0,1952.73 -2698.47,1952.73 -2698.47,0z"/>
   <g>
    <path class="fil1" d="M22971.95 11102.49l-39.16 -6.35 47.5 -195.46c13.3,-1.29 30.49,1.77 40,9.68l-48.34 192.13zm-142.5 -32.55l-30.23 -10.57c-21.72,-13.06 -19.66,-121.17 -34.96,-155.26 -10.5,12.62 -34.08,78.57 -42.79,101.75 -1.13,3 -1.93,5.34 -3.02,7.5 -4.69,9.24 -2.28,4.83 -6.25,9.7l-31.8 -11.15c2.97,-19.12 43.42,-115.86 55.43,-143.57l14.08 -34.57c0.48,-0.93 1.92,-3.53 2.45,-4.37 2.8,-4.36 1.95,-3.14 4.95,-6.13l33.69 12.25 27.21 150.49c7.38,-9.11 45.97,-106.01 48.2,-115.83l37.61 11.13c-2.94,19.92 -28.07,71.81 -36.98,93.93 -12.31,30.62 -24.03,66.8 -37.59,94.7zm-278.48 -165.16l47.98 28.83c-4.7,14.5 -10.28,21.23 -18.64,29.02l-132.11 -86.99c2.46,-8.72 1.4,-5.7 6.5,-14.39 2.32,-3.94 1.13,-2.24 4.12,-6.25l6.95 -8.04c11.09,7.31 36.49,26.08 50.67,30.69 20.44,-29.23 77.24,-121.96 91.64,-138 12.79,4.1 23.96,12.25 32.87,21.45 -15.64,25.31 -29.65,45.98 -45.32,70.74 -11.46,18.15 -38.92,54.41 -44.66,72.94zm1509.3 -254.74c6.62,-7.43 16.91,-16.65 26.37,-21.76 9.99,6.89 126.37,152.87 127.7,157.13 -5.9,7.73 -23.14,20.9 -30.52,24.74 -5.16,0.53 -120.67,-44.88 -145.65,-49.5 4.99,10.6 30.81,40.07 40.05,50.53 11.94,13.52 29.27,35.15 39.4,50.58 -4.94,7.91 -17.91,19.59 -27.5,24l-125.71 -155.89c6.1,-10.86 27.22,-25.13 28.52,-25.46 27,2.01 112.73,38.62 144.42,48.02 -1.98,-11.1 -58.09,-73.31 -77.08,-102.39zm117.75 -59c-14.21,-60.61 38.96,-116.33 85.85,-122.71 56.23,-7.67 110.6,49.04 120.5,88.69 15.25,61.01 -37.34,116.23 -86.16,120.79 -55.57,5.21 -109.71,-42.04 -120.19,-86.77zm-1811.51 0c4.34,-9.06 10.35,-18.99 22.91,-25.11 8.47,5.67 106.83,90.18 111.8,101.48l-129.15 149.05c-14.82,-3.55 -106.63,-87.74 -113.49,-96.99l19.17 -24.13c17.19,6.71 66.88,60.68 83.9,68.44l29.44 -29.5c-4.74,-8.22 0.38,-2.22 -8.67,-11.24 -3.65,-3.63 -5.63,-4.61 -9.64,-7.71l-55.29 -47.92c2.79,-9.53 10.48,-19.67 19.87,-27.14 10.73,4.01 58.01,51.92 76.35,63.96 10.53,-7.49 28.59,-27.84 34.98,-40.3 -18.29,-21.21 -60.04,-49.11 -82.18,-72.89zm-115.92 -66.78c19.49,-9.01 43.45,-36.54 65.94,-47.91 5.08,3.75 8.11,6.71 14.1,13.78l10.72 17.62 -160.19 121.74c-13.14,-12.27 -73.69,-88.71 -78.19,-109.84 -6.6,-31.11 14.07,-50.11 29.99,-60.15 31.18,-19.59 49.57,1.04 68.35,9.74 0.19,-35.24 13.23,-74.67 28.45,-103.8 7.19,3.79 1.16,-0.44 7.72,6.19l18.53 23.89c11.36,27.13 -51.2,98.62 -5.42,128.74zm2060.05 -151.88c3.45,-13.19 12.01,-24 18.19,-34.04 13.5,4.17 161.73,98.12 171.04,106.92 -3.4,9.43 -12.28,25.31 -21.02,32.82l-168.21 -105.7zm234.15 -7.91l-28.21 -11.72c4.48,-21.75 19.99,-35.77 21.32,-56.72l-148.27 -65.93c-1.66,-12.28 5.54,-27.99 12.85,-37.9 34.29,7.71 123.36,59.28 152.71,65.49 13.05,-12.88 15.51,-36.57 27.77,-52.3l29.54 12.7c-7.09,23.02 -56.01,134.48 -67.71,146.38zm-2481.11 -41.18c28.67,-6.69 89.75,-41.62 117.48,-50.17 6.78,10.19 12.55,20.49 14.12,33.31l-180.72 82.75c-51.91,-45.01 39.92,-94.55 66.8,-163.82 -35.97,8.68 -87.05,45.89 -122.71,50.95l-12.55 -34.29c35.99,-12.85 131.56,-60.97 183,-81.34 3.83,3.21 1.6,0.73 4.99,5.65l14.33 29.04c-8.13,19.01 -30.47,44.06 -42.46,63.54 -13.67,22.2 -29.06,42.71 -42.28,64.38zm2422.18 -403.5c14.31,3.55 78.48,49.61 91.56,58.83 20.1,14.16 76.74,48.69 88.02,64.04 -2.43,11.24 -3.94,29.44 -11.16,36.84 -9.29,8.75 -184.18,32 -212.55,34.91 3.68,-33.45 4.52,-40.25 19.88,-44.11 2.44,-0.6 9.44,-1.42 11.9,-1.75 29.75,-3.79 23.78,0.02 34.27,-42.15 3.5,-14.1 8.02,-28.19 8.2,-42.14l-40.23 -24.99 10.11 -39.48zm-2456.94 57.16c-0.37,18.28 14.05,68.29 20.73,81.89l48.04 4.11 10 40.18 -217.62 -22.72 -9.86 -45.66c30.38,-10.57 155.12,-120.81 176.2,-124.47l9.5 38.64c-7.98,9.81 -25.71,21.49 -36.99,28.03zm-187.28 -242.2l32.21 -0.44 4.3 56.09 167.59 -9.15 4.13 41.34 -167.16 11.19 3.08 60.79 -34.32 1.13c-3.71,-15.95 -12.15,-146.67 -9.83,-160.95zm255.48 16.36c-12.13,-179.08 31.73,-352.9 89.94,-497.95 27.83,-69.35 63.8,-135.2 101.97,-192.49 19.61,-29.41 39.23,-57.36 60.83,-84.88l68.67 -80.65c208.9,-220.55 491.43,-348.87 810.76,-366.53 180.45,-9.98 351.83,30.01 497.67,89.75 414.27,169.6 698.17,564.29 725.12,1044.35 17.87,318.87 -119.5,638.88 -320.05,852.24 -327.57,348.47 -854.05,470.66 -1307.86,279.48 -107.38,-45.23 -187.65,-92.73 -277.96,-162.36 -136.64,-105.39 -253.22,-252.48 -330.92,-408.36 -70.52,-141.53 -106.05,-293.92 -118.17,-472.6zm2410.55 -54.76c27.37,-5.34 163.47,8.26 203.83,9.5 1.18,37.99 -3.97,125.22 -24.02,146.37 -24.41,25.77 -86.46,29.21 -98.16,-38.1 -26.64,25.44 -56.3,47.05 -91.67,58.86l0.31 -45.54c32.82,-27.62 97.34,-34.69 89.83,-88.19l-80.97 -5.78 0.85 -37.12zm-2661.48 -95.3l200.86 17.75 -0.66 39.2 -201.37 -15.62 1.17 -41.33zm2764.78 -109.18c-1.58,21.9 10.61,71.88 10.72,85.7l-2.99 15.81c-38.34,9.95 -31.25,2.37 -35.06,-31.32 -2.33,-20.65 -4.37,-42.68 -8.51,-63.1l-54.1 5.41c1.44,29.01 17,89.9 12.94,113.76l-27.37 3.08c-3.12,-3.98 -2.03,-1.99 -4.69,-8.68l-4.48 -24.51c-1.57,-13.97 -3.64,-29.15 -5.41,-41.98 -3.24,-23.49 -9.13,-53.5 -9.66,-76.07 20.01,-7.06 180.94,-29.27 200.13,-27.23l20.19 145.14 -32.49 6.47 -16.11 -108.46 -43.11 5.98zm-2535.11 -42.73c-14.49,57.78 -52.94,89.39 -125.02,74.16 -134.22,-28.39 -96.34,-225.13 44.28,-193.73 51.78,11.55 97.48,52.77 80.74,119.57zm2335.88 -215.67l190.07 -68.66c8.61,30.59 35.22,84.93 34.33,114.19 -1.37,43.88 -38.16,66.49 -70.56,79.45 -44.15,17.62 -86.42,15.2 -111.75,-16.24 -10.97,-13.61 -41.58,-87.61 -42.09,-108.74zm-2428.76 -145.29c3.55,-10.84 9.42,-24.38 17.71,-31.85 21.25,6.09 139.49,66.06 181.07,82.89l-15.63 37.52c-21.32,6.62 -51.06,7.24 -75.06,9.9 -16.91,1.87 -56.56,4.02 -71.77,11.38 -0.75,0.37 -1.95,0.99 -2.81,1.66l112.05 52.63 -11.9 32.09c-17.24,-2.85 -161.19,-70.34 -185.25,-82.48 1.39,-12.88 8.88,-22.92 14.69,-36.4l155.31 -19.1c-26.54,-21.1 -92.33,-37.48 -118.41,-58.24zm2450.31 -83.31l50.8 86.14 -28.75 18.38c-13.01,-22.41 -38.39,-68.22 -53.61,-85.56l-45.01 25.52c3.5,18.55 44.7,74.04 54.96,97.84 -6.5,8.69 -15.91,13.15 -26.55,17.4 -8,-7.62 -76.18,-120.79 -79.35,-132.27 35.95,-19.85 157.34,-97.6 176,-102.87 5.25,19.19 55.76,89.58 72.36,127.48l-26.7 17.42c-7.47,-7.48 -51.84,-84.8 -54.21,-91.85 -16.6,4.21 -28.24,13.35 -39.94,22.37zm-2340.81 -104.11c7.01,-11.43 15.56,-21.4 23.68,-33.77l211.1 50.91c-4.83,14.09 -14.08,25.8 -24.62,35.92 -16.94,-2.23 -31.28,-9.73 -48.59,-8.57l-45.14 62.41c17.73,35.12 38.72,38.87 0.97,75.73l-117.4 -182.63zm2199.34 -84.12c6.49,13.4 16.71,20.79 26.31,33.13 8.75,11.28 20.35,18.48 26.66,33.64 -6.87,7.78 -13.16,15.23 -25.6,19.26l-27.86 -29.7c-10.65,-12.94 -14.54,-18.59 -27.68,-30.36 -22.14,14.47 -41.38,39.98 -62.47,53.17 -13.01,-7.03 -21.94,-19.28 -26.93,-29.74l151.88 -131.21c30.34,29.66 70.57,83 90.82,99.18 -4.61,11.59 -14.84,20.44 -24.88,25.33 -22.81,-16.53 -41.01,-53.32 -65.94,-71.58l-34.31 28.88zm-2030.83 -118c13.67,6.56 16.6,16.71 28.06,28.33 10.9,11.07 17.93,19.37 28.66,30.23 18.74,18.96 37.91,42.01 57.82,59.75 14.76,-6.39 53.72,-48.25 72.89,-64.61 9.75,2.95 20.28,14.74 25.2,18.77 -5.83,15.52 -94.32,93.8 -105.03,98.85 -26.35,-22.67 -122.05,-132.93 -136.37,-141.24 6.14,-11.46 18.53,-24.61 28.77,-30.08zm1366.17 -372.87c88.27,-21.99 165.26,65.42 110.55,160.08 -52.02,90.03 -171.88,45.7 -181.78,-29.54 -8.18,-62.14 23.46,-118.64 71.23,-130.54zm-325.89 148.87c-4.5,-15.54 8.73,-169.15 10.07,-200.31 22.07,-7.27 105.31,2.59 122.69,11.81 60.99,32.27 52.79,159.71 -5.52,185.62 -32.69,14.54 -89.27,5.14 -127.24,2.88zm-377.36 -157.31c11.79,22.49 46.21,149.46 37.89,176.63 -16.64,54.31 -118.19,57.96 -124.6,-9.93 13.81,-4.67 19.93,-9.72 36.68,-12.09 7.65,28.16 29.04,38.91 47.25,16.17 8.74,-22.6 -28.92,-124.79 -33.86,-160.04l18.55 -7.91c6.52,-1.64 10.51,-2.3 18.09,-2.83zm160.7 68.75c5.08,37.89 2.21,68.57 47.14,65.58 42.27,-2.82 35.82,-37.17 31.16,-74.01 -4.19,-32.97 -7.89,-67.15 -12.06,-98.16 9.64,-7.44 29.92,-9.06 41.25,-4.72 15.36,105.04 47.12,203.19 -56.54,211.55 -56.89,4.59 -78.74,-13.74 -87.78,-63.61 -4.97,-27.48 -16.8,-106.2 -15.34,-132.04l38.12 -4.99c5.25,34.57 9.4,65.69 14.05,100.4zm106.45 -181.03c-235.11,18.33 -408.04,64.58 -593.53,157.62 -250.08,125.44 -440.6,306.56 -591.95,535.81 -52.48,79.5 -87.38,157.73 -127.12,247.56 -73.38,165.82 -121.52,436.65 -104.81,645.92 24.84,310.81 118,586.78 301.93,821.38 13.58,17.31 26.52,34.06 41.18,52.53 7.71,9.7 11.21,13.98 21.09,23.99 23.72,24.05 31.59,40.7 68.4,73.77 29.16,26.19 62.19,61.5 98.62,92.43 278.74,236.53 679.61,380.63 1054,350.82 241,-19.19 400.24,-64.23 592.49,-157.75 77.46,-37.68 169.98,-96.3 230.36,-144.39 99.4,-79.17 136.81,-109.73 219.08,-204.41 62.65,-72.1 85.13,-99.82 142.37,-187.02 159.77,-243.41 255.83,-584.43 232.23,-890.5 -21.01,-272.18 -75.05,-438.31 -190.94,-654.31 -35.52,-66.2 -122.09,-194.62 -173.49,-246.28 -23.25,-23.38 -30.59,-39.71 -68.37,-73.8l-98.6 -92.46c-278.1,-237.11 -678.72,-380.08 -1052.94,-350.91z"/>
    <path class="fil1" d="M23848.14 10435.55c47.94,-12.32 87.01,19.68 94.8,60.12 8.77,45.4 -23.54,86.09 -59.8,93.16 -102.95,20.07 -136.55,-127.22 -35,-153.28zm-1174.1 1.08c49.03,-10.35 85.28,22.01 94.53,60.06 11.01,45.17 -22.85,84.62 -57.89,92.8 -103,24.05 -140.41,-130.96 -36.64,-152.86zm1536.47 -1121.31c49.22,-13.41 87.3,19.11 96.07,59.47 10.27,47.33 -24.18,85.14 -58.37,92.68 -99.45,21.96 -141.18,-123.94 -37.7,-152.15zm-1905.53 -0.07c105.59,-27.39 133.89,130.12 39.1,151.42 -76.44,17.16 -124.38,-59.53 -85.42,-120.45 13.06,-20.42 20.3,-24.23 46.32,-30.97zm168.2 127.55c-3.24,-22.65 -26.46,-41.84 -35.37,-66.35 -5.5,-15.16 13.43,-58.51 18.66,-75.53 5.91,-19.24 43.28,-139.63 51.66,-145.99 7.67,-5.85 130.12,-41.67 149.91,-48.23 22.54,-7.49 137.12,-40.45 149.02,-48.38l166.16 -229.78c25.46,-35.78 15,-31.17 68.72,-31.12 32.38,0.05 64.77,0 97.17,0 38.65,0 77.1,-6.23 90.98,8.93 12.52,13.65 36.25,40.49 43.35,52.95 10.39,-6.05 21.61,-21.52 29.43,-30.87 8.66,-10.35 19.15,-21.41 27.35,-30.99l225.39 0.49c17.11,18.37 48.23,65.36 65.74,89.16 22.07,29.99 42.71,60.35 65.32,90.94 12.25,16.6 21.23,28.78 33.53,46.32 10.79,15.4 17.9,32.57 36.7,38.87l238.07 74.8c17.56,4.87 48.12,9.39 55.3,24.24l58.16 175.63c10.56,30.07 12.91,30.74 -1.93,54.31 -9.24,14.66 -24.32,34.2 -26.58,50.36 17.75,5.69 35.07,13.59 51.97,20.54 29.79,12.24 22.74,10.02 32.47,40.94l54.84 163.74c8.13,25.24 -2.91,35.11 -15.94,50.8l-121.48 166.4c-40.35,56.53 -46.87,48.49 -46.58,95.16 0.64,96.46 -0.6,193.04 0.13,289.49 -17.51,10.75 -43.53,29.73 -61.03,42.6 -156.67,115.11 -94.86,85.15 -203.53,69.35 -0.55,24.36 1.38,73.87 -13.94,87.92l-177.17 124.67c-12.05,0.99 -129.9,-41.6 -151.62,-48.81 -192.81,-63.98 -110.5,-62.39 -300.44,-0.86 -20.58,6.67 -138.51,51.22 -151.17,49.67 -9.84,-1.22 -100.17,-69.62 -118.64,-82.76l-58.82 -41.69c-13.92,-12.41 -12.38,-64.8 -15.51,-85.63 -22.03,-0.27 -64.69,20.9 -83.02,14.38 -7.6,-2.68 -52.8,-36.61 -61.55,-42.93 -39.56,-28.62 -79.94,-58.2 -120.37,-84.31 -4.56,-92.28 -1.9,-197.78 -1.26,-291.09 0.27,-37.39 1.04,-31.14 -16.89,-55.43l-91.02 -124.11c-22.72,-30.3 -38.54,-54.28 -61.59,-84.19 -12.54,-16.29 -22.67,-24.14 -13.52,-51.23 6.71,-19.87 12.25,-36.69 18.35,-54.14 13.3,-38.12 24.8,-71.94 36.66,-109.59 9.79,-31.08 4.58,-26.82 33.93,-39.17 17.11,-7.2 33.88,-15.4 50,-19.48zm782.44 -818.6c105.27,-29.62 135.75,131 37.87,152.79 -98.95,22.02 -134.79,-125.51 -37.87,-152.79zm18.86 -40.96c-87.97,0.02 -175.44,10.08 -254.47,28.36 -172.34,39.85 -291.43,104.08 -428.93,202.75 -7.44,5.34 -12.07,10.06 -18.83,15.94 -58.16,50.44 -110.04,92.93 -159.87,155.82 -69.52,87.7 -108.11,145.66 -162,257.83 -130.92,272.51 -131.03,654.45 1.21,926.43 37.92,77.99 91.69,174.46 147.14,237.94 7.72,8.84 8.62,11.23 15.25,19.39 60.02,73.87 140.62,144.97 219.55,200.06 115.2,80.37 246.2,140.54 389.49,173.36 227.72,52.15 507.53,29.97 715.77,-72.31 67.51,-33.14 120.32,-61.62 178.74,-102.24l78.7 -60.09c75.82,-61.32 143.49,-138.98 200.25,-219.45 38.4,-54.43 71.14,-113.37 102.12,-178.97 129.02,-273.24 132.03,-654.8 -1.3,-926.38 -37.44,-76.27 -91.49,-174.43 -147.17,-237.93 -31.53,-35.99 -36.87,-47.93 -81.22,-92.21 -12.92,-12.9 -25.16,-21.7 -37.94,-34.89 -14.32,-14.8 -21.33,-20.59 -36.69,-32.69 -210.41,-165.62 -428.87,-260.77 -719.8,-260.72z"/>
    <path class="fil2" d="M23191.06 8205.05c374.22,-29.17 774.84,113.8 1052.94,350.91l98.6 92.46c37.78,34.09 45.12,50.42 68.37,73.8 51.4,51.66 137.97,180.08 173.49,246.28 115.89,216 169.93,382.13 190.94,654.31 23.6,306.07 -72.46,647.09 -232.23,890.5 -57.24,87.2 -79.72,114.92 -142.37,187.02 -82.27,94.68 -119.68,125.24 -219.08,204.41 -60.38,48.09 -152.9,106.71 -230.36,144.39 -192.25,93.52 -351.49,138.56 -592.49,157.75 -374.39,29.81 -775.26,-114.29 -1054,-350.82 -36.43,-30.93 -69.46,-66.24 -98.62,-92.43 -36.81,-33.07 -44.68,-49.72 -68.4,-73.77 -9.88,-10.01 -13.38,-14.29 -21.09,-23.99 -14.66,-18.47 -27.6,-35.22 -41.18,-52.53 -183.93,-234.6 -277.09,-510.57 -301.93,-821.38 -16.71,-209.27 31.43,-480.1 104.81,-645.92 39.74,-89.83 74.64,-168.06 127.12,-247.56 151.35,-229.25 341.87,-410.37 591.95,-535.81 185.49,-93.04 358.42,-139.29 593.53,-157.62zm-1478.45 1424.39l0 165.44c4.93,10.78 15.74,136.84 20.46,163.88 9.13,52.34 19.61,102.9 32.76,152.57 57.29,216.02 172.98,437.91 316.08,603.22 26.84,30.99 105.43,118.04 135.58,142.18 17.08,13.67 32.89,28.44 48.4,41.85 50.8,43.94 103.79,81.15 159.09,118.63 168.81,114.41 391.5,194.72 596.27,230.03 26.5,4.55 154.2,15.94 164.25,20.61l177.83 0c21.48,-9.95 284.2,-6.64 584.52,-152.7 171.21,-83.26 253.06,-146.39 385.57,-259.93l44.73 -45.56c8.73,-8.76 15.16,-16.09 24.02,-24.6 79.39,-76.35 162.06,-190.52 217.47,-285.77 70.05,-120.37 127.72,-247.94 163.51,-388.23 12.72,-49.91 24.14,-101.19 32.65,-151.97 4.56,-27.09 16,-154.26 20.54,-164.16l0 -171.76c-3.05,-7.19 -15.82,-141.67 -20.08,-167.53 -8.49,-51.53 -19.57,-101.73 -32.42,-151.95 -24.93,-97.39 -60.71,-187.84 -100.09,-271.16 -20.15,-42.65 -41.64,-81.17 -65.4,-122.08 -44.1,-75.95 -96.3,-148.23 -152.97,-214.82 -24.25,-28.5 -108.44,-120.72 -135.86,-141.94 -16.55,-12.81 -33.86,-28.87 -50.11,-43.53 -15.85,-14.29 -36.21,-27.9 -52.22,-41.48 -16.88,-14.28 -32.6,-25.51 -51.77,-38.59 -209.02,-142.48 -400.04,-224.55 -659.21,-267.28l-165.23 -18.69 -165.4 0c-8.29,3.75 -140.86,16.41 -167,21.01 -233.17,40.94 -468.38,132.01 -653.07,270.7 -39.05,29.34 -121.98,92.84 -153.77,124.16l-68.41 70.37c-10.86,10.35 -13.72,10.77 -22.74,22.47 -40.2,52.13 -76.42,84.2 -123.38,154.25l-71.86 112.19c-24.11,40.82 -43.1,78.3 -63.54,120.52 -64.24,132.67 -106.76,276.46 -130.78,425.33 -4.26,26.42 -14.61,154.46 -18.42,164.32z"/>
    <path class="fil2" d="M23396.77 10295.77c11.4,12.03 23.9,31.56 35.55,47.18 11.88,15.93 23.96,32.12 33.58,51.6l-107.53 -9.62 38.4 -89.16zm-308.53 97.33l68.22 -97.36 21.35 41.51c4.65,9.54 16.46,32.58 18.88,44.58l-108.45 11.27zm186.81 -266.15l87.48 119.15c12.43,18 17.64,16.93 5.47,42.57 -15.11,31.83 -27.81,61.06 -43.61,95.55 -6.89,15.03 -14.07,31.98 -21.5,47.76 -4.05,8.6 -7.27,15.2 -11.3,24.07 -4.7,10.41 -5.9,17.26 -13.65,25 -15.85,-28.46 -28.5,-59.24 -43.84,-91.87 -14.57,-31.03 -29.1,-62.7 -44.19,-95.1 -12.35,-26.55 -17.73,-24.69 -1.42,-45.92 11.12,-14.45 19.08,-26.13 29.14,-40.32 20.21,-28.52 37.86,-53.67 57.42,-80.89zm-729.35 123.94l-1.11 -272.14c21.54,-1.05 58.31,-1.36 74.62,8.37 10.88,29.93 28.55,155.83 44.41,173.12 31.25,-35.86 88.37,-129.77 114.52,-155.34 13.96,8.38 31.27,21.41 44.86,31.07l320.07 228.3c-14.91,33.91 -103.81,138.39 -109.84,161.3l178.68 -16.95c9.82,15.67 29.48,52.11 31.5,67.88l-232.96 80.34c-40.33,13.92 -35.24,5.61 -101.02,-41.62 -16.06,-11.52 -30.52,-21.27 -46.92,-32.87l-45.32 -32.69 -9.71 -99.7c-63.18,3.96 -79.19,36.56 -114.91,10.77l-89.21 -63.43c-23.75,-17.14 -41.8,-27.05 -57.66,-46.41zm1201.65 100.81c-8.8,115.39 2.68,87.44 -54.28,130.34 -18.68,14.06 -34.46,23.63 -52.68,37.51 -80.05,61.01 -46.28,53.32 -188.85,5.74 -47.81,-15.96 -93.48,-30.95 -139.36,-45.15 2.04,-12.24 25.13,-61.61 31.71,-69.66l180.58 16.91c-4.47,-14.23 -43.92,-62.96 -54.98,-79.76 -16.91,-25.65 -43.68,-53.31 -56.52,-79.37 13.12,-15.91 150.82,-109.48 180.56,-132.2l184.44 -131.63c8.29,13.97 100.05,146.34 116.14,154.39 4.12,-22.19 32.03,-165.53 41.47,-173.6 9.7,-7.16 57.27,-10.9 72.2,-9.47l1.2 277.99c-17.89,13.54 -38.14,26.84 -55.96,40.5l-86.22 62.94c-10.88,8.53 -17.11,14.69 -35.61,11.24 -21.37,-3.97 -64.25,-19.24 -83.84,-16.72zm61.37 -350.7c21.05,-9.97 67.5,-9.35 95.07,-11.59l-25.4 107.13c-8.44,-6.2 -28.1,-36.17 -34.97,-46.5 -12.25,-18.41 -25.33,-32.82 -34.7,-49.04zm-1064.87 0c-2.85,8.86 -61.48,91.86 -70.56,96.56l-21.97 -106.18 92.53 9.62zm51.4 -17.35c2.06,-12.39 75.55,-114.12 83.55,-120.4 15.38,7.52 31.23,22.04 46.43,32.56l273.7 194.62c15.02,10.57 30.49,20.21 44.34,32.06 -1.79,11.78 -2.23,8.91 -9.7,18.14 -21.41,26.48 -48.28,73.22 -73.63,102.08 -10.93,-4.7 -35.88,-23.59 -46.65,-31.92l-227.02 -161.76c-17.81,-12.42 -28.88,-21.24 -46.27,-33.71 -15.94,-11.44 -28.77,-17.91 -44.75,-31.67zm878.36 -120.3c7.71,6.02 81.14,108.35 84.44,116.82 -7.53,10.15 -253.79,186.08 -270.99,198.78l-91.11 64.69c-10.39,-9.91 -80.12,-104.54 -84.53,-117.69l362.19 -262.6zm16.42 -29.46c34.34,-8.93 70.61,-23.25 104.41,-34.88 77.91,-26.8 39.08,-24.39 127.73,47.2l105.32 99.05c-38.13,4.63 -77.58,7.02 -116.29,12.32 -34.53,4.74 -77.53,11.13 -111,13.48 -19.9,1.39 -14.91,-4.19 -32.27,-26.22 -9.46,-11.97 -17.24,-22.76 -26.46,-35.99 -9.5,-13.61 -46.92,-62.84 -51.44,-74.96zm-1167.98 113.74c5.14,-13.85 57.47,-54.34 72.4,-67.89l73.1 -65.69c41.64,-40.71 30.23,-35.74 92.99,-14.2 34.49,11.86 69.46,23.96 103.35,35.44l-97.65 137.28 -244.19 -24.94zm434.72 -350.99c12.73,-36.33 66.76,-212.66 78.22,-231.28l482.44 0.41c8.44,12.69 105.1,308.41 117.7,346.98 12.06,36.94 27.4,78.5 37.5,114.71l-344.54 251.31c-65.05,46.14 -32.98,45.46 -101.68,-2.11 -47.06,-32.62 -329.57,-231.6 -346.37,-249.2l76.73 -230.82zm-287.16 174.8c-24.89,19.77 -44.37,42.15 -72.98,61.83l-40.79 -101.82 113.77 39.99zm1329.02 -38.1l-41.82 99.89c-29.04,-16.1 -48.61,-42.95 -73.85,-62.82l115.67 -37.07zm-443.63 -357.11c30.09,-8.07 116.02,-42.64 137.6,-42.89 6.34,11.15 12.97,38.81 18.07,54.72 18.32,57.14 119.06,342.49 121.85,369.99 -11.1,6.78 -126.33,44.23 -138.08,44.64 -11.9,-23.52 -27.85,-78.26 -36.37,-105.37 -17.1,-54.25 -103.9,-300.04 -103.07,-321.09zm-833.89 381.82c0.91,-16.94 134.34,-416.77 140.7,-426.06l137.4 45.56c-0.51,10.45 -133.51,412.63 -141.24,425.24 -13.98,-0.79 -123.67,-37.12 -136.86,-44.74zm330.17 -419.83c-3.17,-22.7 -4.88,-130.17 1.99,-147.74 42.86,-2.6 434.95,-3.08 446.07,2.04 5.34,4.69 3.59,26.57 3.51,34.46 -0.11,12.72 -0.03,25.47 -0.03,38.21 0,23.05 1.33,49.09 -0.97,71.68 -20.46,4.91 -408.89,4.19 -450.57,1.35zm690.44 -139.99c14.12,3.62 87.49,45.19 94.52,57.12l-112.81 35.84 18.29 -92.96zm-1025.19 56.56c5.27,-8.44 80.4,-53.08 93.83,-55.58l18.24 92.93 -112.07 -37.35zm1419.98 251.6c11.07,31.94 59.06,169.61 55.71,180.31 -0.99,3.15 -152.32,211.57 -161.85,220.02l-53.93 -48.03c1.62,-24.89 59.24,-125.75 66.78,-165.36 -29.54,3 -68.9,19.44 -96.27,28.57 -19.38,6.47 -72.26,27 -87.57,27.39l-139.41 -425.1c16.34,-12.17 149.23,-50.89 180.21,-61.48 -7.8,-15.63 -136.06,-85.53 -154.38,-95.24l13.76 -73.49c10.81,-0.62 175.9,53.55 212.01,64.41 12.78,3.83 24.22,7.42 36.86,11.37 18.44,5.76 17.06,3.16 23.44,21.98 15.38,45.37 31.67,92.87 46.75,140.18 12.72,39.92 13.65,31.41 -6.16,65 -10.14,17.21 -28.26,39.21 -32.36,59.71 21.34,5.54 50.4,18.88 70.67,27.6 15.29,6.6 19.79,4.94 25.74,22.16zm-1623.39 -53.77c-10.44,-18.62 -20.9,-36.3 -34.31,-58.22 -21.15,-34.53 -15.2,-30.1 -2.39,-69.95 55.89,-173.66 32.62,-143.79 109.39,-167.73 35.13,-10.97 195.68,-62.91 207.53,-62.94l12.28 74.31 -146.08 85.86c-5.38,4.61 -3.78,3.17 -7.35,8.36l180.05 59.64c-3.94,31.63 -23.8,80.92 -34.48,112.26 -12.26,35.94 -23.06,68.79 -34.38,104.32l-68.53 208.06c-29.47,4.41 -139.14,-49.51 -185.41,-53.3 7.25,38.61 63.94,137.28 66.62,165.4 -9.62,10.28 -44.48,41.84 -54.76,47.38 -27.91,-29.2 -161.79,-221.76 -162,-224.82 -0.64,-8.86 41.29,-124.29 47.75,-145.1 12.43,-39.95 4.07,-38.94 42.41,-54.76 14.5,-5.99 54.26,-19.31 63.66,-28.77zm1015.06 -424.44c20.14,8.58 53.98,47.1 61.94,53.24 9.18,7.11 11.6,6.38 20.19,17.17 -8.82,9.69 -67.68,43.29 -82.15,48.63l0.02 -119.04zm-585.81 70.41c9.08,-11.66 12.56,-10.15 21.83,-18.79l58.97 -52.97 1.07 120.59c-16.34,-8.14 -72.96,-38.03 -81.87,-48.83zm586.19 83.51c19.37,-10.55 189.33,-109.48 209.3,-115.38 -4.68,38.83 -15.67,82.76 -23.96,120.99 -4.98,22.94 -14.43,102.35 -24.8,114.01 -5.8,4.92 -142.9,51.28 -160.9,54.16l0.36 -173.78zm-504.92 174.44l-162.57 -55.18 -45.99 -236.79 208.94 117.31 -0.38 174.66zm-173.82 -306.55c4.58,-16.36 104.25,-146.46 121.03,-171.67 31.02,-46.55 32.07,-54.19 56.89,-54.61l177.32 0.28c22.25,8.45 50.76,57.56 69.42,75.11 8.93,-3.14 30.92,-33.42 39.27,-42.51 25.55,-27.81 21.56,-32.64 47.49,-32.69l142.31 0.07c22.08,0.02 34.53,-4.9 46.61,9.44l65.18 90.98c14.3,19.93 82.94,111.79 87.41,125.6 -7.84,9.33 -19.99,14.4 -32.24,21.12 -9.93,5.47 -22.48,13.32 -31.59,15.67 -20.25,-16.76 -117.68,-108.82 -136.58,-114.58l-0.83 190.6c-110.08,4.99 -281.82,-0.33 -400.57,0.9l-49.98 -1.72 -0.24 -187.55c-18.5,3.79 -54.5,40.28 -71.21,54.73 -21.69,18.72 -42.35,40.97 -66,56.33 -19.08,-3.52 -52.17,-22.71 -63.69,-35.5zm-376.64 392.81c-16.12,4.08 -32.89,12.28 -50,19.48 -29.35,12.35 -24.14,8.09 -33.93,39.17 -11.86,37.65 -23.36,71.47 -36.66,109.59 -6.1,17.45 -11.64,34.27 -18.35,54.14 -9.15,27.09 0.98,34.94 13.52,51.23 23.05,29.91 38.87,53.89 61.59,84.19l91.02 124.11c17.93,24.29 17.16,18.04 16.89,55.43 -0.64,93.31 -3.3,198.81 1.26,291.09 40.43,26.11 80.81,55.69 120.37,84.31 8.75,6.32 53.95,40.25 61.55,42.93 18.33,6.52 60.99,-14.65 83.02,-14.38 3.13,20.83 1.59,73.22 15.51,85.63l58.82 41.69c18.47,13.14 108.8,81.54 118.64,82.76 12.66,1.55 130.59,-43 151.17,-49.67 189.94,-61.53 107.63,-63.12 300.44,0.86 21.72,7.21 139.57,49.8 151.62,48.81l177.17 -124.67c15.32,-14.05 13.39,-63.56 13.94,-87.92 108.67,15.8 46.86,45.76 203.53,-69.35 17.5,-12.87 43.52,-31.85 61.03,-42.6 -0.73,-96.45 0.51,-193.03 -0.13,-289.49 -0.29,-46.67 6.23,-38.63 46.58,-95.16l121.48 -166.4c13.03,-15.69 24.07,-25.56 15.94,-50.8l-54.84 -163.74c-9.73,-30.92 -2.68,-28.7 -32.47,-40.94 -16.9,-6.95 -34.22,-14.85 -51.97,-20.54 2.26,-16.16 17.34,-35.7 26.58,-50.36 14.84,-23.57 12.49,-24.24 1.93,-54.31l-58.16 -175.63c-7.18,-14.85 -37.74,-19.37 -55.3,-24.24l-238.07 -74.8c-18.8,-6.3 -25.91,-23.47 -36.7,-38.87 -12.3,-17.54 -21.28,-29.72 -33.53,-46.32 -22.61,-30.59 -43.25,-60.95 -65.32,-90.94 -17.51,-23.8 -48.63,-70.79 -65.74,-89.16l-225.39 -0.49c-8.2,9.58 -18.69,20.64 -27.35,30.99 -7.82,9.35 -19.04,24.82 -29.43,30.87 -7.1,-12.46 -30.83,-39.3 -43.35,-52.95 -13.88,-15.16 -52.33,-8.93 -90.98,-8.93 -32.4,0 -64.79,0.05 -97.17,0 -53.72,-0.05 -43.26,-4.66 -68.72,31.12l-166.16 229.78c-11.9,7.93 -126.48,40.89 -149.02,48.38 -19.79,6.56 -142.24,42.38 -149.91,48.23 -8.38,6.36 -45.75,126.75 -51.66,145.99 -5.23,17.02 -24.16,60.37 -18.66,75.53 8.91,24.51 32.13,43.7 35.37,66.35z"/>
    <path class="fil2" d="M23274.48 8583.24c290.93,-0.05 509.39,95.1 719.8,260.72 15.36,12.1 22.37,17.89 36.69,32.69 12.78,13.19 25.02,21.99 37.94,34.89 44.35,44.28 49.69,56.22 81.22,92.21 55.68,63.5 109.73,161.66 147.17,237.93 133.33,271.58 130.32,653.14 1.3,926.38 -30.98,65.6 -63.72,124.54 -102.12,178.97 -56.76,80.47 -124.43,158.13 -200.25,219.45l-78.7 60.09c-58.42,40.62 -111.23,69.1 -178.74,102.24 -208.24,102.28 -488.05,124.46 -715.77,72.31 -143.29,-32.82 -274.29,-92.99 -389.49,-173.36 -78.93,-55.09 -159.53,-126.19 -219.55,-200.06 -6.63,-8.16 -7.53,-10.55 -15.25,-19.39 -55.45,-63.48 -109.22,-159.95 -147.14,-237.94 -132.24,-271.98 -132.13,-653.92 -1.21,-926.43 53.89,-112.17 92.48,-170.13 162,-257.83 49.83,-62.89 101.71,-105.38 159.87,-155.82 6.76,-5.88 11.39,-10.6 18.83,-15.94 137.5,-98.67 256.59,-162.9 428.93,-202.75 79.03,-18.28 166.5,-28.34 254.47,-28.36zm-1177.36 1167.87c12.12,178.68 47.65,331.07 118.17,472.6 77.7,155.88 194.28,302.97 330.92,408.36 90.31,69.63 170.58,117.13 277.96,162.36 453.81,191.18 980.29,68.99 1307.86,-279.48 200.55,-213.36 337.92,-533.37 320.05,-852.24 -26.95,-480.06 -310.85,-874.75 -725.12,-1044.35 -145.84,-59.74 -317.22,-99.73 -497.67,-89.75 -319.33,17.66 -601.86,145.98 -810.76,366.53l-68.67 80.65c-21.6,27.52 -41.22,55.47 -60.83,84.88 -38.17,57.29 -74.14,123.14 -101.97,192.49 -58.21,145.05 -102.07,318.87 -89.94,497.95z"/>
    <path class="fil3" d="M22849.82 9049.99c11.52,12.79 44.61,31.98 63.69,35.5 23.65,-15.36 44.31,-37.61 66,-56.33 16.71,-14.45 52.71,-50.94 71.21,-54.73l0.24 187.55 49.98 1.72c118.75,-1.23 290.49,4.09 400.57,-0.9l0.83 -190.6c18.9,5.76 116.33,97.82 136.58,114.58 9.11,-2.35 21.66,-10.2 31.59,-15.67 12.25,-6.72 24.4,-11.79 32.24,-21.12 -4.47,-13.81 -73.11,-105.67 -87.41,-125.6l-65.18 -90.98c-12.08,-14.34 -24.53,-9.42 -46.61,-9.44l-142.31 -0.07c-25.93,0.05 -21.94,4.88 -47.49,32.69 -8.35,9.09 -30.34,39.37 -39.27,42.51 -18.66,-17.55 -47.17,-66.66 -69.42,-75.11l-177.32 -0.28c-24.82,0.42 -25.87,8.06 -56.89,54.61 -16.78,25.21 -116.45,155.31 -121.03,171.67z"/>
    <path class="fil4" d="M22513.12 9452.62c-9.4,9.46 -49.16,22.78 -63.66,28.77 -38.34,15.82 -29.98,14.81 -42.41,54.76 -6.46,20.81 -48.39,136.24 -47.75,145.1 0.21,3.06 134.09,195.62 162,224.82 10.28,-5.54 45.14,-37.1 54.76,-47.38 -2.68,-28.12 -59.37,-126.79 -66.62,-165.4 46.27,3.79 155.94,57.71 185.41,53.3l68.53 -208.06c11.32,-35.53 22.12,-68.38 34.38,-104.32 10.68,-31.34 30.54,-80.63 34.48,-112.26l-180.05 -59.64c3.57,-5.19 1.97,-3.75 7.35,-8.36l146.08 -85.86 -12.28 -74.31c-11.85,0.03 -172.4,51.97 -207.53,62.94 -76.77,23.94 -53.5,-5.93 -109.39,167.73 -12.81,39.85 -18.76,35.42 2.39,69.95 13.41,21.92 23.87,39.6 34.31,58.22z"/>
    <path class="fil5" d="M22545.7 10250.89c15.86,19.36 33.91,29.27 57.66,46.41l89.21 63.43c35.72,25.79 51.73,-6.81 114.91,-10.77l9.71 99.7 45.32 32.69c16.4,11.6 30.86,21.35 46.92,32.87 65.78,47.23 60.69,55.54 101.02,41.62l232.96 -80.34c-2.02,-15.77 -21.68,-52.21 -31.5,-67.88l-178.68 16.95c6.03,-22.91 94.93,-127.39 109.84,-161.3l-320.07 -228.3c-13.59,-9.66 -30.9,-22.69 -44.86,-31.07 -26.15,25.57 -83.27,119.48 -114.52,155.34 -15.86,-17.29 -33.53,-143.19 -44.41,-173.12 -16.31,-9.73 -53.08,-9.42 -74.62,-8.37l1.11 272.14z"/>
    <path class="fil6" d="M23745.8 9167.47c18.32,9.71 146.58,79.61 154.38,95.24 -30.98,10.59 -163.87,49.31 -180.21,61.48l139.41 425.1c15.31,-0.39 68.19,-20.92 87.57,-27.39 27.37,-9.13 66.73,-25.57 96.27,-28.57 -7.54,39.61 -65.16,140.47 -66.78,165.36l53.93 48.03c9.53,-8.45 160.86,-216.87 161.85,-220.02 3.35,-10.7 -44.64,-148.37 -55.71,-180.31 -5.95,-17.22 -10.45,-15.56 -25.74,-22.16 -20.27,-8.72 -49.33,-22.06 -70.67,-27.6 4.1,-20.5 22.22,-42.5 32.36,-59.71 19.81,-33.59 18.88,-25.08 6.16,-65 -15.08,-47.31 -31.37,-94.81 -46.75,-140.18 -6.38,-18.82 -5,-16.22 -23.44,-21.98 -12.64,-3.95 -24.08,-7.54 -36.86,-11.37 -36.11,-10.86 -201.2,-65.03 -212.01,-64.41l-13.76 73.49z"/>
    <path class="fil7" d="M23747.35 10351.7c19.59,-2.52 62.47,12.75 83.84,16.72 18.5,3.45 24.73,-2.71 35.61,-11.24l86.22 -62.94c17.82,-13.66 38.07,-26.96 55.96,-40.5l-1.2 -277.99c-14.93,-1.43 -62.5,2.31 -72.2,9.47 -9.44,8.07 -37.35,151.41 -41.47,173.6 -16.09,-8.05 -107.85,-140.42 -116.14,-154.39l-184.44 131.63c-29.74,22.72 -167.44,116.29 -180.56,132.2 12.84,26.06 39.61,53.72 56.52,79.37 11.06,16.8 50.51,65.53 54.98,79.76l-180.58 -16.91c-6.58,8.05 -29.67,57.42 -31.71,69.66 45.88,14.2 91.55,29.19 139.36,45.15 142.57,47.58 108.8,55.27 188.85,-5.74 18.22,-13.88 34,-23.45 52.68,-37.51 56.96,-42.9 45.48,-14.95 54.28,-130.34z"/>
    <path class="fil1" d="M23240.52 9444.75c155.04,-20.1 278.35,91.56 295.59,225.8 20.12,156.65 -91.09,279.03 -225.82,297.11 -155.93,20.93 -279.34,-90.66 -297.51,-225.57 -21.48,-159.64 92.66,-279.83 227.74,-297.34zm-360.48 382.71c16.8,17.6 299.31,216.58 346.37,249.2 68.7,47.57 36.63,48.25 101.68,2.11l344.54 -251.31c-10.1,-36.21 -25.44,-77.77 -37.5,-114.71 -12.6,-38.57 -109.26,-334.29 -117.7,-346.98l-482.44 -0.41c-11.46,18.62 -65.49,194.95 -78.22,231.28l-76.73 230.82z"/>
    <path class="fil1" d="M23247.29 9472.81c-40.08,6.36 -57.18,11.41 -87.53,28.5 -80.52,45.35 -130.29,134.8 -119.15,230.94 8.6,74.23 52.8,140.69 116.94,177.15 46.01,26.13 93.66,36.79 148.35,29.65 161.08,-21.05 256.38,-202.04 172.01,-349.99 -13.9,-24.38 -32.78,-47.05 -53.72,-63.85 -42.29,-33.94 -106.01,-63.63 -176.9,-52.4z"/>
    <path class="fil6" d="M23555 9376.23c-0.83,21.05 85.97,266.84 103.07,321.09 8.52,27.11 24.47,81.85 36.37,105.37 11.75,-0.41 126.98,-37.86 138.08,-44.64 -2.79,-27.5 -103.53,-312.85 -121.85,-369.99 -5.1,-15.91 -11.73,-43.57 -18.07,-54.72 -21.58,0.25 -107.51,34.82 -137.6,42.89z"/>
    <path class="fil4" d="M22721.11 9758.05c13.19,7.62 122.88,43.95 136.86,44.74 7.73,-12.61 140.73,-414.79 141.24,-425.24l-137.4 -45.56c-6.36,9.29 -139.79,409.12 -140.7,426.06z"/>
    <path class="fil5" d="M22795.25 9983.65c15.98,13.76 28.81,20.23 44.75,31.67 17.39,12.47 28.46,21.29 46.27,33.71l227.02 161.76c10.77,8.33 35.72,27.22 46.65,31.92 25.35,-28.86 52.22,-75.6 73.63,-102.08 7.47,-9.23 7.91,-6.36 9.7,-18.14 -13.85,-11.85 -29.32,-21.49 -44.34,-32.06l-273.7 -194.62c-15.2,-10.52 -31.05,-25.04 -46.43,-32.56 -8,6.28 -81.49,108.01 -83.55,120.4z"/>
    <path class="fil7" d="M23311.42 10125.95c4.41,13.15 74.14,107.78 84.53,117.69l91.11 -64.69c17.2,-12.7 263.46,-188.63 270.99,-198.78 -3.3,-8.47 -76.73,-110.8 -84.44,-116.82l-362.19 262.6z"/>
    <path class="fil3" d="M23054.33 9334.58l440.45 -0.35c8.71,-24.21 3.32,-107.92 3.12,-139.23l-442.99 -0.8 -0.58 140.38z"/>
    <path class="fil2" d="M23247.29 9472.81c70.89,-11.23 134.61,18.46 176.9,52.4 20.94,16.8 39.82,39.47 53.72,63.85 84.37,147.95 -10.93,328.94 -172.01,349.99 -54.69,7.14 -102.34,-3.52 -148.35,-29.65 -64.14,-36.46 -108.34,-102.92 -116.94,-177.15 -11.14,-96.14 38.63,-185.59 119.15,-230.94 30.35,-17.09 47.45,-22.14 87.53,-28.5zm-6.77 -28.06c-135.08,17.51 -249.22,137.7 -227.74,297.34 18.17,134.91 141.58,246.5 297.51,225.57 134.73,-18.08 245.94,-140.46 225.82,-297.11 -17.24,-134.24 -140.55,-245.9 -295.59,-225.8z"/>
    <path class="fil1" d="M23528.56 9182.1l-0.36 173.78c18,-2.88 155.1,-49.24 160.9,-54.16 10.37,-11.66 19.82,-91.07 24.8,-114.01 8.29,-38.23 19.28,-82.16 23.96,-120.99 -19.97,5.9 -189.93,104.83 -209.3,115.38z"/>
    <path class="fil1" d="M22522.05 9947.63l244.19 24.94 97.65 -137.28c-33.89,-11.48 -68.86,-23.58 -103.35,-35.44 -62.76,-21.54 -51.35,-26.51 -92.99,14.2l-73.1 65.69c-14.93,13.55 -67.26,54.04 -72.4,67.89z"/>
    <polygon class="fil1" points="22861.07,9301.36 23023.64,9356.54 23024.02,9181.88 22815.08,9064.57 "/>
    <path class="fil1" d="M23275.05 10126.95c-19.56,27.22 -37.21,52.37 -57.42,80.89 -10.06,14.19 -18.02,25.87 -29.14,40.32 -16.31,21.23 -10.93,19.37 1.42,45.92 15.09,32.4 29.62,64.07 44.19,95.1 15.34,32.63 27.99,63.41 43.84,91.87 7.75,-7.74 8.95,-14.59 13.65,-25 4.03,-8.87 7.25,-15.47 11.3,-24.07 7.43,-15.78 14.61,-32.73 21.5,-47.76 15.8,-34.49 28.5,-63.72 43.61,-95.55 12.17,-25.64 6.96,-24.57 -5.47,-42.57l-87.48 -119.15z"/>
    <path class="fil1" d="M23690.03 9833.89c4.52,12.12 41.94,61.35 51.44,74.96 9.22,13.23 17,24.02 26.46,35.99 17.36,22.03 12.37,27.61 32.27,26.22 33.47,-2.35 76.47,-8.74 111,-13.48 38.71,-5.3 78.16,-7.69 116.29,-12.32l-105.32 -99.05c-88.65,-71.59 -49.82,-74 -127.73,-47.2 -33.8,11.63 -70.07,25.95 -104.41,34.88z"/>
    <path class="fil2" d="M24672.31 9745.55c2.77,29.03 3.22,80.05 -26.97,80.92 -36.06,1.04 -27.44,-55.34 -22.09,-84.47l49.06 3.55zm-82.99 68.57c11.7,67.31 73.75,63.87 98.16,38.1 20.05,-21.15 25.2,-108.38 24.02,-146.37 -40.36,-1.24 -176.46,-14.84 -203.83,-9.5l-0.85 37.12 80.97 5.78c7.51,53.5 -57.01,60.57 -89.83,88.19l-0.31 45.54c35.37,-11.81 65.03,-33.42 91.67,-58.86z"/>
    <path class="fil2" d="M22184.64 10576.01c-10.97,-8.06 -20.86,-23.82 -29.5,-35.12 -29.37,-38.45 11.24,-69.86 39.4,-32.72 8.25,10.87 20.95,25.8 27.31,37.75 -5.8,9.3 -25.84,25.2 -37.21,30.09zm65.95 -51.75c-45.78,-30.12 16.78,-101.61 5.42,-128.74l-18.53 -23.89c-6.56,-6.63 -0.53,-2.4 -7.72,-6.19 -15.22,29.13 -28.26,68.56 -28.45,103.8 -18.78,-8.7 -37.17,-29.33 -68.35,-9.74 -15.92,10.04 -36.59,29.04 -29.99,60.15 4.5,21.13 65.05,97.57 78.19,109.84l160.19 -121.74 -10.72 -17.62c-5.99,-7.07 -9.02,-10.03 -14.1,-13.78 -22.49,11.37 -46.45,38.9 -65.94,47.91z"/>
    <path class="fil2" d="M22019.3 9198.02c15.21,-7.36 54.86,-9.51 71.77,-11.38 24,-2.66 53.74,-3.28 75.06,-9.9l15.63 -37.52c-41.58,-16.83 -159.82,-76.8 -181.07,-82.89 -8.29,7.47 -14.16,21.01 -17.71,31.85 26.08,20.76 91.87,37.14 118.41,58.24l-155.31 19.1c-5.81,13.48 -13.3,23.52 -14.69,36.4 24.06,12.14 168.01,79.63 185.25,82.48l11.9 -32.09 -112.05 -52.63c0.86,-0.67 2.06,-1.29 2.81,-1.66z"/>
    <path class="fil2" d="M22829.45 11069.94c13.56,-27.9 25.28,-64.08 37.59,-94.7 8.91,-22.12 34.04,-74.01 36.98,-93.93l-37.61 -11.13c-2.23,9.82 -40.82,106.72 -48.2,115.83l-27.21 -150.49 -33.69 -12.25c-3,2.99 -2.15,1.77 -4.95,6.13 -0.53,0.84 -1.97,3.44 -2.45,4.37l-14.08 34.57c-12.01,27.71 -52.46,124.45 -55.43,143.57l31.8 11.15c3.97,-4.87 1.56,-0.46 6.25,-9.7 1.09,-2.16 1.89,-4.5 3.02,-7.5 8.71,-23.18 32.29,-89.13 42.79,-101.75 15.3,34.09 13.24,142.2 34.96,155.26l30.23 10.57z"/>
    <path class="fil2" d="M22063.68 10323.29c13.22,-21.67 28.61,-42.18 42.28,-64.38 11.99,-19.48 34.33,-44.53 42.46,-63.54l-14.33 -29.04c-3.39,-4.92 -1.16,-2.44 -4.99,-5.65 -51.44,20.37 -147.01,68.49 -183,81.34l12.55 34.29c35.66,-5.06 86.74,-42.27 122.71,-50.95 -26.88,69.27 -118.71,118.81 -66.8,163.82l180.72 -82.75c-1.57,-12.82 -7.34,-23.12 -14.12,-33.31 -27.73,8.55 -88.81,43.48 -117.48,50.17z"/>
    <path class="fil2" d="M24038.17 10760.65c24.98,4.62 140.49,50.03 145.65,49.5 7.38,-3.84 24.62,-17.01 30.52,-24.74 -1.33,-4.26 -117.71,-150.24 -127.7,-157.13 -9.46,5.11 -19.75,14.33 -26.37,21.76 18.99,29.08 75.1,91.29 77.08,102.39 -31.69,-9.4 -117.42,-46.01 -144.42,-48.02 -1.3,0.33 -22.42,14.6 -28.52,25.46l125.71 155.89c9.59,-4.41 22.56,-16.09 27.5,-24 -10.13,-15.43 -27.46,-37.06 -39.4,-50.58 -9.24,-10.46 -35.06,-39.93 -40.05,-50.53z"/>
    <path class="fil2" d="M24249.87 10513.71c37.59,-14.58 73.12,17.49 87.07,38.57 23.15,35.04 3.33,72.69 -24.82,83.51 -63.14,24.25 -144.06,-90.32 -62.25,-122.08zm-71.85 77.33c10.48,44.73 64.62,91.98 120.19,86.77 48.82,-4.56 101.41,-59.78 86.16,-120.79 -9.9,-39.65 -64.27,-96.36 -120.5,-88.69 -46.89,6.38 -100.06,62.1 -85.85,122.71z"/>
    <path class="fil2" d="M23642.05 8361.54c37.65,-14.31 71.25,16.62 70.92,53.24 -0.29,34.79 -17.07,72.31 -45.06,81.73 -79.92,26.91 -97.07,-107.93 -25.86,-134.97zm-14.89 -35.77c-47.77,11.9 -79.41,68.4 -71.23,130.54 9.9,75.24 129.76,119.57 181.78,29.54 54.71,-94.66 -22.28,-182.07 -110.55,-160.08z"/>
    <path class="fil2" d="M24582.24 9216.72c22.15,57.14 26.42,83.05 -34.44,103.28 -64,21.28 -77.79,-1.48 -90.77,-58.84l125.21 -44.44zm-170.5 16.75c0.51,21.13 31.12,95.13 42.09,108.74 25.33,31.44 67.6,33.86 111.75,16.24 32.4,-12.96 69.19,-35.57 70.56,-79.45 0.89,-29.26 -25.72,-83.6 -34.33,-114.19l-190.07 68.66z"/>
    <path class="fil2" d="M21904.95 9435.25c-13.86,-97.36 125.17,-74.98 137.23,-16.91 7.86,37.89 -22.96,66.88 -58.82,66.75 -34.05,-0.15 -74.16,-19.97 -78.41,-49.84zm170.91 13.89c16.74,-66.8 -28.96,-108.02 -80.74,-119.57 -140.62,-31.4 -178.5,165.34 -44.28,193.73 72.08,15.23 110.53,-16.38 125.02,-74.16z"/>
    <path class="fil2" d="M23344.36 8442.61c-5.32,-19.76 3.55,-109.28 6.85,-134.24 58.02,-1.9 86.7,11.37 82.46,71.75 -4.1,58.44 -24.95,76.88 -89.31,62.49zm-43.09 32.03c37.97,2.26 94.55,11.66 127.24,-2.88 58.31,-25.91 66.51,-153.35 5.52,-185.62 -17.38,-9.22 -100.62,-19.08 -122.69,-11.81 -1.34,31.16 -14.57,184.77 -10.07,200.31z"/>
    <path class="fil2" d="M22304.98 9315.25c-26.02,6.74 -33.26,10.55 -46.32,30.97 -38.96,60.92 8.98,137.61 85.42,120.45 94.79,-21.3 66.49,-178.81 -39.1,-151.42z"/>
    <path class="fil2" d="M24654.08 9485.89l16.11 108.46 32.49 -6.47 -20.19 -145.14c-19.19,-2.04 -180.12,20.17 -200.13,27.23 0.53,22.57 6.42,52.58 9.66,76.07 1.77,12.83 3.84,28.01 5.41,41.98l4.48 24.51c2.66,6.69 1.57,4.7 4.69,8.68l27.37 -3.08c4.06,-23.86 -11.5,-84.75 -12.94,-113.76l54.1 -5.41c4.14,20.42 6.18,42.45 8.51,63.1 3.81,33.69 -3.28,41.27 35.06,31.32l2.99 -15.81c-0.11,-13.82 -12.3,-63.8 -10.72,-85.7l43.11 -5.98z"/>
    <path class="fil2" d="M22674.04 10436.63c-103.77,21.9 -66.36,176.91 36.64,152.86 35.04,-8.18 68.9,-47.63 57.89,-92.8 -9.25,-38.05 -45.5,-70.41 -94.53,-60.06z"/>
    <path class="fil2" d="M23848.14 10435.55c-101.55,26.06 -67.95,173.35 35,153.28 36.26,-7.07 68.57,-47.76 59.8,-93.16 -7.79,-40.44 -46.86,-72.44 -94.8,-60.12z"/>
    <path class="fil2" d="M24210.51 9315.32c-103.48,28.21 -61.75,174.11 37.7,152.15 34.19,-7.54 68.64,-45.35 58.37,-92.68 -8.77,-40.36 -46.85,-72.88 -96.07,-59.47z"/>
    <path class="fil2" d="M22277.75 10695.34l-19.17 24.13c6.86,9.25 98.67,93.44 113.49,96.99l129.15 -149.05c-4.97,-11.3 -103.33,-95.81 -111.8,-101.48 -12.56,6.12 -18.57,16.05 -22.91,25.11 22.14,23.78 63.89,51.68 82.18,72.89 -6.39,12.46 -24.45,32.81 -34.98,40.3 -18.34,-12.04 -65.62,-59.95 -76.35,-63.96 -9.39,7.47 -17.08,17.61 -19.87,27.14l55.29 47.92c4.01,3.1 5.99,4.08 9.64,7.71 9.05,9.02 3.93,3.02 8.67,11.24l-29.44 29.5c-17.02,-7.76 -66.71,-61.73 -83.9,-68.44z"/>
    <path class="fil2" d="M24433.29 9004.87c11.7,-9.02 23.34,-18.16 39.94,-22.37 2.37,7.05 46.74,84.37 54.21,91.85l26.7 -17.42c-16.6,-37.9 -67.11,-108.29 -72.36,-127.48 -18.66,5.27 -140.05,83.02 -176,102.87 3.17,11.48 71.35,124.65 79.35,132.27 10.64,-4.25 20.05,-8.71 26.55,-17.4 -10.26,-23.8 -51.46,-79.29 -54.96,-97.84l45.01 -25.52c15.22,17.34 40.6,63.15 53.61,85.56l28.75 -18.38 -50.8 -86.14z"/>
    <path class="fil2" d="M23255.62 8624.2c-96.92,27.28 -61.08,174.81 37.87,152.79 97.88,-21.79 67.4,-182.41 -37.87,-152.79z"/>
    <path class="fil2" d="M24548.25 10008.6c8.62,2.39 23.23,12.72 32.71,18.84 20.15,12.99 22.58,10.39 30.38,23.47l-75.48 7.14 12.39 -49.45zm-106.52 105.81c28.37,-2.91 203.26,-26.16 212.55,-34.91 7.22,-7.4 8.73,-25.6 11.16,-36.84 -11.28,-15.35 -67.92,-49.88 -88.02,-64.04 -13.08,-9.22 -77.25,-55.28 -91.56,-58.83l-10.11 39.48 40.23 24.99c-0.18,13.95 -4.7,28.04 -8.2,42.14 -10.49,42.17 -4.52,38.36 -34.27,42.15 -2.46,0.33 -9.46,1.15 -11.9,1.75 -15.36,3.86 -16.2,10.66 -19.88,44.11z"/>
    <path class="fil2" d="M23150.85 8279.49c4.17,31.01 7.87,65.19 12.06,98.16 4.66,36.84 11.11,71.19 -31.16,74.01 -44.93,2.99 -42.06,-27.69 -47.14,-65.58 -4.65,-34.71 -8.8,-65.83 -14.05,-100.4l-38.12 4.99c-1.46,25.84 10.37,104.56 15.34,132.04 9.04,49.87 30.89,68.2 87.78,63.61 103.66,-8.36 71.9,-106.51 56.54,-211.55 -11.33,-4.34 -31.61,-2.72 -41.25,4.72z"/>
    <path class="fil2" d="M22146.99 8912.51l71.71 19.5 -29.34 43.73c-5.23,-4.07 -2.79,-1.75 -6.76,-6.71l-35.61 -56.52zm62.89 170.88c37.75,-36.86 16.76,-40.61 -0.97,-75.73l45.14 -62.41c17.31,-1.16 31.65,6.34 48.59,8.57 10.54,-10.12 19.79,-21.83 24.62,-35.92l-211.1 -50.91c-8.12,12.37 -16.67,22.34 -23.68,33.77l117.4 182.63z"/>
    <path class="fil2" d="M21998.43 10003.88l11.39 50.69c-18.31,-0.51 -62.15,-1.2 -74.11,-9.24l62.72 -41.45zm30.49 -26.93c11.28,-6.54 29.01,-18.22 36.99,-28.03l-9.5 -38.64c-21.08,3.66 -145.82,113.9 -176.2,124.47l9.86 45.66 217.62 22.72 -10 -40.18 -48.04 -4.11c-6.68,-13.6 -21.1,-63.61 -20.73,-81.89z"/>
    <path class="fil2" d="M24326.13 8787.76c24.93,18.26 43.13,55.05 65.94,71.58 10.04,-4.89 20.27,-13.74 24.88,-25.33 -20.25,-16.18 -60.48,-69.52 -90.82,-99.18l-151.88 131.21c4.99,10.46 13.92,22.71 26.93,29.74 21.09,-13.19 40.33,-38.7 62.47,-53.17 13.14,11.77 17.03,17.42 27.68,30.36l27.86 29.7c12.44,-4.03 18.73,-11.48 25.6,-19.26 -6.31,-15.16 -17.91,-22.36 -26.66,-33.64 -9.6,-12.34 -19.82,-19.73 -26.31,-33.13l34.31 -28.88z"/>
    <path class="fil1" d="M23642.05 8361.54c-71.21,27.04 -54.06,161.88 25.86,134.97 27.99,-9.42 44.77,-46.94 45.06,-81.73 0.33,-36.62 -33.27,-67.55 -70.92,-53.24z"/>
    <path class="fil1" d="M21904.95 9435.25c4.25,29.87 44.36,49.69 78.41,49.84 35.86,0.13 66.68,-28.86 58.82,-66.75 -12.06,-58.07 -151.09,-80.45 -137.23,16.91z"/>
    <path class="fil2" d="M21841.64 9734.75c-2.32,14.28 6.12,145 9.83,160.95l34.32 -1.13 -3.08 -60.79 167.16 -11.19 -4.13 -41.34 -167.59 9.15 -4.3 -56.09 -32.21 0.44z"/>
    <path class="fil1" d="M24249.87 10513.71c-81.81,31.76 -0.89,146.33 62.25,122.08 28.15,-10.82 47.97,-48.47 24.82,-83.51 -13.95,-21.08 -49.48,-53.15 -87.07,-38.57z"/>
    <path class="fil2" d="M24544.79 10364.47c11.7,-11.9 60.62,-123.36 67.71,-146.38l-29.54 -12.7c-12.26,15.73 -14.72,39.42 -27.77,52.3 -29.35,-6.21 -118.42,-57.78 -152.71,-65.49 -7.31,9.91 -14.51,25.62 -12.85,37.9l148.27 65.93c-1.33,20.95 -16.84,34.97 -21.32,56.72l28.21 11.72z"/>
    <path class="fil2" d="M22550.97 10904.78c5.74,-18.53 33.2,-54.79 44.66,-72.94 15.67,-24.76 29.68,-45.43 45.32,-70.74 -8.91,-9.2 -20.08,-17.35 -32.87,-21.45 -14.4,16.04 -71.2,108.77 -91.64,138 -14.18,-4.61 -39.58,-23.38 -50.67,-30.69l-6.95 8.04c-2.99,4.01 -1.8,2.31 -4.12,6.25 -5.1,8.69 -4.04,5.67 -6.5,14.39l132.11 86.99c8.36,-7.79 13.94,-14.52 18.64,-29.02l-47.98 -28.83z"/>
    <path class="fil2" d="M22473.62 8771.11c-4.92,-4.03 -15.45,-15.82 -25.2,-18.77 -19.17,16.36 -58.13,58.22 -72.89,64.61 -19.91,-17.74 -39.08,-40.79 -57.82,-59.75 -10.73,-10.86 -17.76,-19.16 -28.66,-30.23 -11.46,-11.62 -14.39,-21.77 -28.06,-28.33 -10.24,5.47 -22.63,18.62 -28.77,30.08 14.32,8.31 110.02,118.57 136.37,141.24 10.71,-5.05 99.2,-83.33 105.03,-98.85z"/>
    <path class="fil2" d="M22887.27 8328.07c4.94,35.25 42.6,137.44 33.86,160.04 -18.21,22.74 -39.6,11.99 -47.25,-16.17 -16.75,2.37 -22.87,7.42 -36.68,12.09 6.41,67.89 107.96,64.24 124.6,9.93 8.32,-27.17 -26.1,-154.14 -37.89,-176.63 -7.58,0.53 -11.57,1.19 -18.09,2.83l-18.55 7.91z"/>
    <path class="fil1" d="M23344.36 8442.61c64.36,14.39 85.21,-4.05 89.31,-62.49 4.24,-60.38 -24.44,-73.65 -82.46,-71.75 -3.3,24.96 -12.17,114.48 -6.85,134.24z"/>
    <path class="fil1" d="M24457.03 9261.16c12.98,57.36 26.77,80.12 90.77,58.84 60.86,-20.23 56.59,-46.14 34.44,-103.28l-125.21 44.44z"/>
    <path class="fil2" d="M24478.85 10478.08c8.74,-7.51 17.62,-23.39 21.02,-32.82 -9.31,-8.8 -157.54,-102.75 -171.04,-106.92 -6.18,10.04 -14.74,20.85 -18.19,34.04l168.21 105.7z"/>
    <path class="fil2" d="M23020.29 10910.36c-9.51,-7.91 -26.7,-10.97 -40,-9.68l-47.5 195.46 39.16 6.35 48.34 -192.13z"/>
    <polygon class="fil2" points="21845.02,9642.38 22046.39,9658 22047.05,9618.8 21846.19,9601.05 "/>
    <path class="fil8" d="M23054.91 9194.2l442.99 0.8c0.2,31.31 5.59,115.02 -3.12,139.23l-440.45 0.35 0.58 -140.38zm-3.63 144.02c41.68,2.84 430.11,3.56 450.57,-1.35 2.3,-22.59 0.97,-48.63 0.97,-71.68 0,-12.74 -0.08,-25.49 0.03,-38.21 0.08,-7.89 1.83,-29.77 -3.51,-34.46 -11.12,-5.12 -403.21,-4.64 -446.07,-2.04 -6.87,17.57 -5.16,125.04 -1.99,147.74z"/>
    <path class="fil1" d="M23808.72 10001c9.37,16.22 22.45,30.63 34.7,49.04 6.87,10.33 26.53,40.3 34.97,46.5l25.4 -107.13c-27.57,2.24 -74.02,1.62 -95.07,11.59z"/>
    <path class="fil1" d="M23723.43 9291.19l112.81 -35.84c-7.03,-11.93 -80.4,-53.5 -94.52,-57.12l-18.29 92.96z"/>
    <path class="fil1" d="M23528.16 9147.22c14.47,-5.34 73.33,-38.94 82.15,-48.63 -8.59,-10.79 -11.01,-10.06 -20.19,-17.17 -7.96,-6.14 -41.8,-44.66 -61.94,-53.24l-0.02 119.04z"/>
    <path class="fil1" d="M23358.37 10384.93l107.53 9.62c-9.62,-19.48 -21.7,-35.67 -33.58,-51.6 -11.65,-15.62 -24.15,-35.15 -35.55,-47.18l-38.4 89.16z"/>
    <path class="fil1" d="M22716.53 9254.79l112.07 37.35 -18.24 -92.93c-13.43,2.5 -88.56,47.14 -93.83,55.58z"/>
    <path class="fil1" d="M23882.96 9770.41c25.24,19.87 44.81,46.72 73.85,62.82l41.82 -99.89 -115.67 37.07z"/>
    <path class="fil1" d="M22673.29 10097.56c9.08,-4.7 67.71,-87.7 70.56,-96.56l-92.53 -9.62 21.97 106.18z"/>
    <path class="fil1" d="M22942.37 9098.59c8.91,10.8 65.53,40.69 81.87,48.83l-1.07 -120.59 -58.97 52.97c-9.27,8.64 -12.75,7.13 -21.83,18.79z"/>
    <path class="fil1" d="M22596.63 9833.27c28.61,-19.68 48.09,-42.06 72.98,-61.83l-113.77 -39.99 40.79 101.82z"/>
    <path class="fil1" d="M23196.69 10381.83c-2.42,-12 -14.23,-35.04 -18.88,-44.58l-21.35 -41.51 -68.22 97.36 108.45 -11.27z"/>
    <path class="fil1" d="M24672.31 9745.55l-49.06 -3.55c-5.35,29.13 -13.97,85.51 22.09,84.47 30.19,-0.87 29.74,-51.89 26.97,-80.92z"/>
    <path class="fil1" d="M22184.64 10576.01c11.37,-4.89 31.41,-20.79 37.21,-30.09 -6.36,-11.95 -19.06,-26.88 -27.31,-37.75 -28.16,-37.14 -68.77,-5.73 -39.4,32.72 8.64,11.3 18.53,27.06 29.5,35.12z"/>
    <path class="fil1" d="M24535.86 10058.05l75.48 -7.14c-7.8,-13.08 -10.23,-10.48 -30.38,-23.47 -9.48,-6.12 -24.09,-16.45 -32.71,-18.84l-12.39 49.45z"/>
    <path class="fil1" d="M21935.71 10045.33c11.96,8.04 55.8,8.73 74.11,9.24l-11.39 -50.69 -62.72 41.45z"/>
    <path class="fil1" d="M22146.99 8912.51l35.61 56.52c3.97,4.96 1.53,2.64 6.76,6.71l29.34 -43.73 -71.71 -19.5z"/>
   </g>
   <g>
    <path class="fil2" d="M13113.68 10849.02c147.31,-0.87 635.03,-54.9 662.94,-52.25 37.31,378.17 97.09,781.91 228.04,1132.4l128.59 309.27c-145.22,55.35 -564.5,50.5 -731.76,35.26 -232.28,-21.17 -445.33,-69.72 -652.26,-133.73 -177.13,-54.8 -138.56,-22.36 -194.05,-197.54 -87.55,-276.38 -191.76,-672.91 -228.08,-954.89 31,13.63 51.18,39.6 90.12,55.91 43.47,18.21 63.23,-9.47 89.8,-31.4l161.38 -121.19 151.35 183.33c49.62,63.95 89.8,120.01 139.81,189.77 55.28,77.1 224.5,333.3 253.49,416.14l386.84 -112.47c-20.89,-56.39 -74.8,-150.16 -105.77,-199.83 -81.32,-130.39 -136.8,-219.69 -228.78,-339.21 -7.15,-9.28 -7.26,-8.17 -15.97,-18.94 -8.89,-11 -10.59,-14.59 -18.35,-23.79 -8.27,-9.82 -7.71,-7.94 -16.31,-18.56 -13.44,-16.58 -17.97,-20.83 -33.02,-37.06l-68.01 -81.22zm-2076.44 1383.29c3.98,-20.21 52.15,-116.71 67.19,-148.97 145.06,-311.19 282.3,-963.89 286.31,-1282.87l566.51 44.08 -194.41 208.23c-13.56,14.33 -8.21,9.45 -19.19,23.11l-76.68 98.56c-64.97,85.51 -260.97,385.19 -299.32,487.53l387.56 112.13c43.67,-104.74 246.66,-412.86 323.72,-510.6 16.14,-20.47 29.07,-42.12 48.03,-63.46l15.97 60.03c4.11,21.28 7.66,36.92 12.41,57.71 8.7,38.11 17.11,75.39 26.82,113.91 19.53,77.53 38.84,151.58 58.71,228.12l130.81 436.97c-52,33.83 -336.97,99.97 -416.91,114.78 -299.6,55.49 -615.25,72.72 -917.53,20.74zm1313.81 -1830.24c43.44,-114.93 97.31,-227.3 143.34,-342.44 271.69,-679.64 514.82,-1463.22 715.52,-2172.74 31.88,-112.69 80.85,-263.01 100.65,-376.23l211.37 78.53c-43.27,208.44 -123.13,434.55 -191.13,629.67l-220.77 597.3c116.17,-163.74 386.3,-627.03 480.72,-835.75 38.49,-85.08 110.17,-216.48 132.79,-301.55 66.29,22.32 131.52,60.03 196.1,88.19 61.23,26.7 123.28,58.68 184.11,89.17 65.77,32.96 124.08,60.29 183.57,90.13 103.93,52.14 243.46,417.5 283.67,535.33 216.42,634.1 290.55,1174.96 352.7,1841.63 15.94,171.03 19.9,343.22 34.42,513.37 -165.97,-19.2 -453.92,-9.82 -600.54,44.24 365.09,29.63 274.95,13.97 608.25,113.61l12.45 551.62c-286.69,-31.22 -534.46,-28.16 -820.13,12.56l-84.1 -345.17c89.75,-22.43 158.7,-54.61 264.28,-73.21 117.47,-20.7 196.79,-15.53 313.27,-16.86 -47.12,-34.73 -211.28,-61.15 -281.3,-71.76 -122.79,-18.6 -212.8,-18.24 -336.63,-10.27 -36.19,-273.99 -111.36,-552.91 -94.53,-837.33 64.81,-57.13 209.34,-103.55 309.68,-120.94 143.77,-24.92 247.13,-14.58 386.24,-1.38 -183.91,-101.02 -465.81,-107.94 -688.66,-67.8 17.6,-202.25 74.16,-372.08 75.84,-587.98 0.82,-104.63 -18.14,-212.08 -3.09,-315.89 15.15,-104.43 50.11,-159.37 75.93,-243.23l-178.89 214.16c-12.78,-64.91 -79.99,-218.31 -110.7,-249.43 11.41,150.81 36.61,201.99 39.12,412.13 1.76,146.68 -3.79,289.27 -22.38,434.11 -37.41,291.44 -77.95,550.39 -58.8,851.85 -333.92,-29.89 -654.27,-65.03 -991.56,-72.25 -54.27,-1.16 -49.98,7.7 -85.42,-20.79 -42.56,-34.23 -145.44,-116.47 -201.51,-113.06 -29.32,1.78 -102.76,62.58 -133.88,78.46zm-1742.06 722.03c202.92,-8.2 312.95,11.95 496.09,61.57l-92.7 374.5c-273.07,-23 -561.64,-65.05 -833.12,-13.75 -11.66,-44.14 1.98,-430.82 7.22,-501.12 48.92,-44.01 235.2,-99.77 314.73,-117.96 140.04,-32.04 248.39,-34.88 390.55,-46.42 -189.26,-69.78 -492.24,-59.38 -697.81,-30.22 29.88,-814.19 180.69,-2051.06 564.8,-2765.05 57.94,-107.7 55.07,-112.82 129.79,-149.99 87.32,-43.44 497.28,-246.45 558.46,-263.7 20.73,31.46 53.75,117.63 69.69,155.74 46.16,110.39 164.01,346.31 219.46,439.53 52.6,88.43 269.55,476.9 333.05,548.93 -11.26,-45.48 -38.72,-102.66 -57.16,-151.1 -122.18,-321.05 -289.43,-767.43 -357.61,-1085l206.15 -72.13c11.74,18.11 98.37,348.23 116.84,405.83 127.16,396.61 264.06,739.18 472.81,1090.28 131.23,220.73 134.06,157.71 102.52,252.27 -98.58,295.5 -203.34,557.09 -316.49,847.2 -42.96,110.14 -129.53,283.33 -156.69,359.12 -112.17,1.69 -233.53,10.88 -345.17,20.82 -105.03,9.35 -225.53,29.6 -326.92,34.42 23.31,-549.91 -94,-804.53 -82.67,-1267.11 5.17,-211.06 27.19,-263.72 38.07,-417.41 -1.26,1.51 -2.76,3.58 -3.57,4.7l-33.23 53.5c-33.51,63.95 -66.33,173.28 -75.36,187.8 -31.95,-32.89 -55.67,-69.21 -83.87,-102.01l-73.19 -89.45c-3.69,-3.45 -6.67,1.78 -9.62,-8.1 -0.89,-2.98 -3.37,-2.85 -5.15,-4.15 23.65,88.22 63.09,142.76 75.82,253.63 11.13,97.03 -2.28,204.35 -2.1,303.75 0.34,199.29 43.13,376.23 70.07,569.48 -208.01,-18.07 -442.09,-13.72 -608.41,79.29 120.87,-8.68 204.31,-22.15 331.32,-6.76 53.09,6.43 104.39,17.91 151.78,30.38 49.13,12.92 94.68,38.24 134,47.95 4.65,182.88 -37.24,717 -97.49,880.25 -239.28,22.66 -231.92,2.27 -471.12,68.21l-53.77 22.28zm2464.8 -3594.71c-9.57,88.03 -273.55,961.72 -307.89,1070.65 -22.76,72.19 -80.58,287.96 -109.94,339.03 -64.88,-94.8 -129.87,-239.19 -176.14,-335.14 -121.39,-251.79 -199.19,-475.49 -285.35,-738.22 -39.47,-120.37 -86.81,-274.95 -109.96,-395.47l-5.24 -19.94c185.82,-66.31 809.86,-39.89 1016.85,2.22l-22.33 76.87zm-3125.66 4271.73c275.4,-84.67 424.51,-101.1 720.83,-84.93 88.17,4.81 175.44,18.98 259.3,23.09 -57.92,203.37 -175.18,420.91 -261.98,598.46 208.52,49.03 182.38,68.81 455.49,98.49 446.56,48.54 920.23,-18.48 1341.03,-164.89 53.08,-18.47 54.57,-11.64 106.33,7.36 274.75,100.89 606.07,171.51 930.11,192.52 171.81,11.13 363.97,4.61 532.07,-19.14 105.12,-14.85 382.83,-65.63 452.65,-109.95 -36.79,-90.99 -96.53,-183.41 -140.35,-288.59 -40,-96.02 -93.03,-207.83 -118.7,-305.26 347.31,-39.93 659.16,-52.11 978.15,52.84 10.4,-133.05 1.82,-310.73 -0.08,-447.38 -14.12,-1018.48 -136.89,-2570.18 -634.15,-3416.1 -90.86,-154.56 -100.11,-131.76 -245.05,-204.23 -205.97,-102.99 -401.4,-199.19 -615.7,-288.47 -106.2,-44.24 -212.78,-87.75 -331.3,-124.17 -274.16,-84.26 -491.55,-102.73 -801.19,-102.88 -628.81,-0.31 -956.61,155.94 -1432.96,368.39 -103.28,46.06 -200.61,100.35 -301.9,146.52 -147.18,67.1 -172.24,68.74 -253.65,195.52 -479.07,746 -630.45,2468.62 -637.28,3418.13 -1.04,145.26 -11.49,311.49 -1.67,454.67z"/>
    <path class="fil9" d="M12351.05 10402.07c31.12,-15.88 104.56,-76.68 133.88,-78.46 56.07,-3.41 158.95,78.83 201.51,113.06 35.44,28.49 31.15,19.63 85.42,20.79 337.29,7.22 657.64,42.36 991.56,72.25 -19.15,-301.46 21.39,-560.41 58.8,-851.85 18.59,-144.84 24.14,-287.43 22.38,-434.11 -2.51,-210.14 -27.71,-261.32 -39.12,-412.13 30.71,31.12 97.92,184.52 110.7,249.43l178.89 -214.16c-25.82,83.86 -60.78,138.8 -75.93,243.23 -15.05,103.81 3.91,211.26 3.09,315.89 -1.68,215.9 -58.24,385.73 -75.84,587.98 222.85,-40.14 504.75,-33.22 688.66,67.8 -139.11,-13.2 -242.47,-23.54 -386.24,1.38 -100.34,17.39 -244.87,63.81 -309.68,120.94 -16.83,284.42 58.34,563.34 94.53,837.33 123.83,-7.97 213.84,-8.33 336.63,10.27 70.02,10.61 234.18,37.03 281.3,71.76 -116.48,1.33 -195.8,-3.84 -313.27,16.86 -105.58,18.6 -174.53,50.78 -264.28,73.21l84.1 345.17c285.67,-40.72 533.44,-43.78 820.13,-12.56l-12.45 -551.62c-333.3,-99.64 -243.16,-83.98 -608.25,-113.61 146.62,-54.06 434.57,-63.44 600.54,-44.24 -14.52,-170.15 -18.48,-342.34 -34.42,-513.37 -62.15,-666.67 -136.28,-1207.53 -352.7,-1841.63 -40.21,-117.83 -179.74,-483.19 -283.67,-535.33 -59.49,-29.84 -117.8,-57.17 -183.57,-90.13 -60.83,-30.49 -122.88,-62.47 -184.11,-89.17 -64.58,-28.16 -129.81,-65.87 -196.1,-88.19 -22.62,85.07 -94.3,216.47 -132.79,301.55 -94.42,208.72 -364.55,672.01 -480.72,835.75l220.77 -597.3c68,-195.12 147.86,-421.23 191.13,-629.67l-211.37 -78.53c-19.8,113.22 -68.77,263.54 -100.65,376.23 -200.7,709.52 -443.83,1493.1 -715.52,2172.74 -46.03,115.14 -99.9,227.51 -143.34,342.44z"/>
    <path class="fil9" d="M11654.43 7580.06c68.18,317.57 235.43,763.95 357.61,1085 18.44,48.44 45.9,105.62 57.16,151.1 -63.5,-72.03 -280.45,-460.5 -333.05,-548.93 -55.45,-93.22 -173.3,-329.14 -219.46,-439.53 -15.94,-38.11 -48.96,-124.28 -69.69,-155.74 -61.18,17.25 -471.14,220.26 -558.46,263.7 -74.72,37.17 -71.85,42.29 -129.79,149.99 -384.11,713.99 -534.92,1950.86 -564.8,2765.05 205.57,-29.16 508.55,-39.56 697.81,30.22 -142.16,11.54 -250.51,14.38 -390.55,46.42 -79.53,18.19 -265.81,73.95 -314.73,117.96 -5.24,70.3 -18.88,456.98 -7.22,501.12 271.48,-51.3 560.05,-9.25 833.12,13.75l92.7 -374.5c-183.14,-49.62 -293.17,-69.77 -496.09,-61.57l53.77 -22.28c239.2,-65.94 231.84,-45.55 471.12,-68.21 60.25,-163.25 102.14,-697.37 97.49,-880.25 -39.32,-9.71 -84.87,-35.03 -134,-47.95 -47.39,-12.47 -98.69,-23.95 -151.78,-30.38 -127.01,-15.39 -210.45,-1.92 -331.32,6.76 166.32,-93.01 400.4,-97.36 608.41,-79.29 -26.94,-193.25 -69.73,-370.19 -70.07,-569.48 -0.18,-99.4 13.23,-206.72 2.1,-303.75 -12.73,-110.87 -52.17,-165.41 -75.82,-253.63 1.78,1.3 4.26,1.17 5.15,4.15 2.95,9.88 5.93,4.65 9.62,8.1l73.19 89.45c28.2,32.8 51.92,69.12 83.87,102.01 9.03,-14.52 41.85,-123.85 75.36,-187.8l33.23 -53.5c0.81,-1.12 2.31,-3.19 3.57,-4.7 -10.88,153.69 -32.9,206.35 -38.07,417.41 -11.33,462.58 105.98,717.2 82.67,1267.11 101.39,-4.82 221.89,-25.07 326.92,-34.42 111.64,-9.94 233,-19.13 345.17,-20.82 27.16,-75.79 113.73,-248.98 156.69,-359.12 113.15,-290.11 217.91,-551.7 316.49,-847.2 31.54,-94.56 28.71,-31.54 -102.52,-252.27 -208.75,-351.1 -345.65,-693.67 -472.81,-1090.28 -18.47,-57.6 -105.1,-387.72 -116.84,-405.83l-206.15 72.13z"/>
    <path class="fil9" d="M13113.68 10849.02l68.01 81.22c15.05,16.23 19.58,20.48 33.02,37.06 8.6,10.62 8.04,8.74 16.31,18.56 7.76,9.2 9.46,12.79 18.35,23.79 8.71,10.77 8.82,9.66 15.97,18.94 91.98,119.52 147.46,208.82 228.78,339.21 30.97,49.67 84.88,143.44 105.77,199.83l-386.84 112.47c-28.99,-82.84 -198.21,-339.04 -253.49,-416.14 -50.01,-69.76 -90.19,-125.82 -139.81,-189.77l-151.35 -183.33 -161.38 121.19c-26.57,21.93 -46.33,49.61 -89.8,31.4 -38.94,-16.31 -59.12,-42.28 -90.12,-55.91 36.32,281.98 140.53,678.51 228.08,954.89 55.49,175.18 16.92,142.74 194.05,197.54 206.93,64.01 419.98,112.56 652.26,133.73 167.26,15.24 586.54,20.09 731.76,-35.26l-128.59 -309.27c-130.95,-350.49 -190.73,-754.23 -228.04,-1132.4 -27.91,-2.65 -515.63,51.38 -662.94,52.25z"/>
    <path class="fil9" d="M11037.24 12232.31c302.28,51.98 617.93,34.75 917.53,-20.74 79.94,-14.81 364.91,-80.95 416.91,-114.78l-130.81 -436.97c-19.87,-76.54 -39.18,-150.59 -58.71,-228.12 -9.71,-38.52 -18.12,-75.8 -26.82,-113.91 -4.75,-20.79 -8.3,-36.43 -12.41,-57.71l-15.97 -60.03c-18.96,21.34 -31.89,42.99 -48.03,63.46 -77.06,97.74 -280.05,405.86 -323.72,510.6l-387.56 -112.13c38.35,-102.34 234.35,-402.02 299.32,-487.53l76.68 -98.56c10.98,-13.66 5.63,-8.78 19.19,-23.11l194.41 -208.23 -566.51 -44.08c-4.01,318.98 -141.25,971.68 -286.31,1282.87 -15.04,32.26 -63.21,128.76 -67.19,148.97z"/>
    <path class="fil10" d="M12084.51 7470.24c18.64,14.57 45.99,68.73 60.73,93.39 93.75,156.88 355.37,512.79 486.43,570.84 157.95,-107.95 342,-373.54 417.98,-562.02 9.95,-24.67 6.74,-24.03 24.14,-43.06l22.33 -76.87c-206.99,-42.11 -831.03,-68.53 -1016.85,-2.22l5.24 19.94z"/>
    <path class="fil11" d="M13073.79 7529.39c-17.4,19.03 -14.19,18.39 -24.14,43.06 -75.98,188.48 -260.03,454.07 -417.98,562.02 -131.06,-58.05 -392.68,-413.96 -486.43,-570.84 -14.74,-24.66 -42.09,-78.82 -60.73,-93.39 23.15,120.52 70.49,275.1 109.96,395.47 86.16,262.73 163.96,486.43 285.35,738.22 46.27,95.95 111.26,240.34 176.14,335.14 29.36,-51.07 87.18,-266.84 109.94,-339.03 34.34,-108.93 298.32,-982.62 307.89,-1070.65z"/>
   </g>
   <g>
    <path class="fil2" d="M6634.84 9264.73c37.09,29.33 110.9,107.71 143.42,146.17 15.15,17.91 27.8,32.83 43.34,50.01 31.82,35.19 58.93,65.94 91.87,98.44 26.21,25.86 147.31,136.89 183.57,151.19 11.39,4.49 26.67,5.91 40.92,3.76 25.93,-3.91 104.74,-55.15 121.9,-68.25 60.32,-46.05 104.5,-86.38 131.75,-154.89 9.75,-24.52 16.98,-43.18 24.48,-69.19 7.96,-27.57 13.25,-52.82 14.12,-81.93 2.27,-76.37 -39.79,-73.33 -34.77,-105.73 13.21,-85.07 44.29,-168.41 95.34,-237.16 20.06,-27.02 72.47,-82.63 82.21,-107.86 27.23,-70.57 -62.86,-153.75 -136.93,-71.53 -152.71,169.48 -163.01,282.91 -176.7,299.21 -3.22,-12.67 -7.97,-22.15 -12.42,-35.73 -11.88,-36.24 -20.07,-75.84 -24.5,-114.5 -6.72,-58.66 12.2,-128.24 -25.29,-162.09 -39.64,-35.78 -101.08,-21.11 -122.76,23.13 -32.29,65.86 5.87,248.76 32.12,322.93 13.88,39.23 40.57,92.83 62.11,125.2 22.26,33.45 31.84,37.14 29.22,63.95 -2.15,21.94 -15.84,55.6 -24.17,69.69 -16.62,28.12 -73.05,80.29 -98.77,89.48 -15.67,-19.25 -32.06,-30.49 -48.73,-46.81 -50.13,-49.07 -132.77,-145.04 -182.02,-201.07 -15.6,-17.75 -33.91,-32.54 -47.79,-48.64 -28.01,-32.48 -117.21,-105.55 -153.87,-132.73 -17.58,-13.04 -40.9,-27.15 -71.69,-19.28 -35.88,9.17 -94.71,51.74 -120.39,69.53 -33.05,22.89 -73.68,59.99 -96.92,93.6 -26.45,38.26 -42.02,78.34 -58.14,131.95 -16.77,55.73 -21.54,110.67 10.16,154.91 9.01,12.58 5.74,16.96 2.89,37.37 -2.03,14.54 -4.25,27.83 -6.85,41 -35.16,178.13 -150.77,260.14 -170.36,306.37 -23.21,54.75 22.73,110.01 73.34,107.41 33.45,-1.72 46.99,-16.01 62.93,-33.69 40,-44.38 89.72,-109.69 119.33,-164.26 36.1,-66.56 45.65,-113.11 54.67,-130.74 0.27,-0.53 1.1,-0.89 1.31,-2.1 0.21,-1.23 0.86,-1.45 1.38,-2.11 5.43,21.35 16.2,48.39 23.32,73.43 7.2,25.35 10.66,51.92 13.99,79.26 7.1,58.3 -13.1,129.72 26.67,160.68 44.48,34.64 102.68,19.72 122.8,-27.97 15.23,-36.08 8.1,-130.53 1.87,-173.23 -16.24,-111.4 -52.32,-202.43 -101.35,-276.24 -17.12,-25.78 -28.05,-30.62 -17.23,-73.1 10.74,-42.17 42.78,-86.72 71.47,-115.82 8.76,-8.88 15.29,-15.57 24.68,-23.7 9.88,-8.56 17.18,-12.14 24.47,-18.32z"/>
    <path class="fil2" d="M6812.82 9819.71c7.36,118.04 140.25,147.52 205.07,81.01 71.82,-73.7 23,-206.02 -89.6,-203.31 -63.21,1.52 -119.51,57.58 -115.47,122.3z"/>
    <path class="fil2" d="M6754.56 8830.89c-156.43,40.46 -101.58,263.3 50.88,232.95 57.35,-11.41 104.27,-69.88 91.26,-140.38 -12.31,-66.65 -82.19,-108.08 -142.14,-92.57z"/>
   </g>
  </g>
 </g>
</svg>
